<svg width="299" height="125" viewBox="0 0 299 125" fill="none" xmlns="http://www.w3.org/2000/svg">
<path d="M150.664 121.27C150.186 121.612 149.949 121.812 149.685 121.973C148.369 122.778 147.118 123.744 145.708 124.334C142.263 125.771 137.859 123.548 136.682 119.942C135.497 116.321 135.322 112.628 136.254 108.968C137.323 104.769 140.329 102.208 145.164 101.933C146.566 101.854 147.996 102.062 149.402 102.223C150.074 102.302 150.435 102.129 150.423 101.45C150.396 99.7253 150.357 98.001 150.264 96.2806C150.217 95.3889 149.701 94.7762 148.858 94.4776C148.291 94.2773 147.856 93.9945 147.988 93.2875C148.12 92.5805 148.672 92.6237 149.196 92.6001C151.324 92.5058 153.453 92.3802 155.585 92.3173C156.75 92.282 156.844 92.4234 156.844 93.6096C156.844 102.011 156.836 110.413 156.844 118.815C156.844 119.463 156.863 120.119 156.945 120.763C157.053 121.643 157.589 122.185 158.374 122.59C158.731 122.774 158.941 123.257 159.221 123.603C158.828 123.866 158.452 124.334 158.044 124.361C155.919 124.506 153.783 124.53 151.655 124.612C150.909 124.644 150.59 124.353 150.656 123.576C150.711 122.908 150.668 122.236 150.668 121.27H150.664ZM150.427 112.825C150.427 112.825 150.423 112.825 150.419 112.825C150.419 111.489 150.544 110.142 150.381 108.826C150.237 107.664 150.019 106.371 149.394 105.436C147.93 103.241 144.524 103.877 143.479 106.552C141.863 110.68 141.983 114.895 143.44 119.047C144.057 120.802 145.693 121.482 147.464 120.94C149.177 120.417 150.361 118.878 150.412 117.02C150.451 115.622 150.419 114.223 150.419 112.821L150.427 112.825Z" fill="#393E66"/>
<path d="M24.033 124.294C22.3823 124.294 20.7316 124.338 19.0886 124.263C18.7119 124.247 18.3468 123.835 17.9778 123.607C18.2303 123.285 18.4206 122.841 18.7507 122.66C19.9664 122.001 20.3976 121.431 20.1684 120.092C19.9043 118.56 19.512 117.044 19.0925 115.543C19.0148 115.264 18.541 114.911 18.2458 114.907C15.5309 114.86 12.8159 114.871 10.101 114.911C9.84076 114.911 9.43294 115.182 9.35914 115.413C8.90471 116.831 8.40755 118.253 8.15509 119.714C7.85214 121.462 8.19393 121.875 9.73589 122.743C10.0194 122.9 10.2758 123.383 10.2602 123.701C10.2486 123.909 9.72812 124.255 9.43294 124.259C6.87725 124.302 4.32544 124.306 1.76974 124.259C1.43183 124.251 1.03566 123.945 0.802621 123.662C0.721056 123.56 0.98517 122.947 1.20656 122.857C3.21849 122.059 3.9215 120.26 4.6012 118.454C6.11209 114.443 7.59579 110.425 9.09114 106.407C10.5399 102.51 12.008 98.6256 13.4141 94.7134C13.6704 93.9946 14.0666 93.7236 14.7541 93.7236C16.0164 93.7236 17.2787 93.7864 18.5371 93.704C19.4537 93.645 19.8266 94.1007 20.0441 94.8666C20.6189 96.8659 21.1899 98.8652 21.7764 100.861C22.9222 104.757 24.0835 108.646 25.2254 112.542C25.9478 115.005 26.6547 117.476 27.3733 119.938C27.7228 121.136 28.3326 122.111 29.5328 122.664C29.8163 122.794 30.1076 123.344 30.0571 123.638C30.0105 123.898 29.4978 124.247 29.1794 124.259C27.4665 124.322 25.7536 124.287 24.0369 124.29L24.033 124.294ZM14.9521 100.511C14.8512 100.495 14.7502 100.48 14.6492 100.464C14.4938 100.762 14.2957 101.041 14.1831 101.355C13.0295 104.624 11.8876 107.895 10.7535 111.171C10.4311 112.098 10.5477 112.291 11.4876 112.303C13.3908 112.326 15.2939 112.322 17.1971 112.306C18.1215 112.299 18.2691 111.992 17.9856 111.053C17.4806 109.376 17.0223 107.687 16.5407 106.002C16.0164 104.172 15.4843 102.341 14.956 100.511H14.9521Z" fill="#393E66"/>
<path d="M129.962 113.885C129.962 115.743 129.939 117.601 129.97 119.459C129.993 120.806 130.234 122.043 131.667 122.703C131.927 122.821 132.137 123.41 132.083 123.732C132.044 123.96 131.523 124.263 131.217 124.267C128.272 124.306 125.332 124.302 122.388 124.267C122.112 124.267 121.627 123.96 121.615 123.772C121.588 123.418 121.743 122.829 121.992 122.715C123.278 122.126 123.561 120.995 123.577 119.808C123.616 116.226 123.581 112.644 123.522 109.062C123.511 108.39 123.324 107.703 123.111 107.059C122.625 105.589 120.881 104.937 119.32 105.684C117.782 106.414 116.768 107.632 116.756 109.407C116.733 112.958 116.791 116.509 116.822 120.06C116.834 121.215 117.219 122.13 118.329 122.688C118.609 122.829 118.896 123.395 118.827 123.67C118.757 123.941 118.232 124.259 117.906 124.263C114.997 124.31 112.084 124.314 109.175 124.271C108.848 124.267 108.324 123.937 108.262 123.666C108.192 123.379 108.479 122.813 108.759 122.672C109.913 122.098 110.289 121.14 110.289 119.954C110.297 115.429 110.293 110.9 110.289 106.375C110.289 105.193 109.839 104.34 108.658 103.877C108.336 103.751 108.095 103.166 108.021 102.757C107.998 102.624 108.615 102.219 108.953 102.204C111.148 102.101 113.346 102.062 115.545 102.023C116.628 102.003 116.768 102.231 116.64 103.303C116.574 103.845 116.663 104.407 116.686 104.957C117.133 104.682 117.611 104.454 118.019 104.128C120.598 102.086 123.41 101.198 126.618 102.384C128.047 102.915 129.01 103.995 129.372 105.448C129.702 106.76 129.853 108.135 129.943 109.49C130.036 110.951 129.962 112.42 129.962 113.889C129.962 113.889 129.966 113.889 129.97 113.889L129.962 113.885Z" fill="#393E66"/>
<path d="M43.4143 93.9281C46.4865 93.9281 49.5588 93.9281 52.6349 93.9281C54.006 93.9281 54.0215 93.9517 54.0254 95.3657C54.0254 96.8976 54.0099 98.4295 54.0332 99.9614C54.0448 100.668 53.7613 100.998 53.0544 100.943C52.8602 100.928 52.6621 100.908 52.4718 100.943C51.3688 101.159 50.8095 100.617 50.4987 99.6118C49.8346 97.475 48.3664 96.4459 46.1408 96.4773C45.0727 96.493 44.0046 96.4812 42.9404 96.4655C42.2685 96.4537 41.915 96.7208 41.9189 97.4396C41.9306 100.602 41.9267 103.764 41.9228 106.922C41.9228 107.574 42.2335 107.876 42.8783 107.856C43.2977 107.845 43.7211 107.86 44.1406 107.856C46.4671 107.813 47.0381 107.448 47.6828 105.193C48.0246 103.995 48.8636 104.302 49.6171 104.317C50.4444 104.337 50.3317 105.017 50.3356 105.551C50.3473 107.994 50.3434 110.437 50.3395 112.884C50.3395 113.407 50.4094 114.043 49.6326 114C48.9412 113.964 48.0751 114.432 47.7255 113.249C46.972 110.677 45.2087 109.734 42.5675 110.445C42.2995 110.516 41.9577 110.987 41.9539 111.278C41.9306 114.337 41.9422 117.401 42.0044 120.465C42.0238 121.545 42.6064 122.288 43.6745 122.606C44.1716 122.755 44.7154 122.896 44.5989 123.627C44.4824 124.369 43.9192 124.287 43.4026 124.287C40.2643 124.287 37.126 124.314 33.9916 124.267C33.5644 124.259 32.9235 124.004 32.7681 123.674C32.4613 123.026 33.0633 122.724 33.5954 122.5C34.3722 122.174 34.8577 121.612 34.9393 120.744C34.982 120.324 35.0519 119.903 35.0519 119.483C35.0714 112.511 35.0908 105.535 35.083 98.563C35.083 97.2354 34.7878 96.0492 33.2925 95.5346C33.0089 95.4364 32.8031 94.8472 32.7565 94.4584C32.7409 94.3209 33.308 93.9635 33.611 93.9635C36.8774 93.9281 40.1439 93.9399 43.4104 93.9399V93.932L43.4143 93.9281Z" fill="#393E66"/>
<path d="M183.88 111.741C183.88 114.474 183.892 117.212 183.876 119.946C183.869 121.246 184.292 122.205 185.616 122.664C185.912 122.766 186.281 123.3 186.238 123.579C186.195 123.87 185.71 124.294 185.399 124.314C183.08 124.459 180.754 124.522 178.431 124.601C177.848 124.62 177.623 124.275 177.65 123.733C177.677 123.214 177.74 122.696 177.747 122.173C177.747 121.965 177.65 121.757 177.6 121.549C177.347 121.635 177.064 121.678 176.842 121.812C175.499 122.633 174.232 123.626 172.815 124.279C169.96 125.594 166.22 124.373 165.085 121.651C164.491 120.225 164.309 118.563 164.246 116.996C164.126 113.842 164.212 110.68 164.215 107.522C164.215 105.99 164.2 104.498 162.456 103.755C162.227 103.657 162.103 103.013 162.153 102.655C162.18 102.459 162.67 102.188 162.953 102.184C165.183 102.149 167.412 102.18 169.645 102.172C170.523 102.172 170.601 102.722 170.601 103.414C170.589 107.483 170.57 111.556 170.609 115.625C170.62 116.725 170.733 117.841 170.95 118.917C171.323 120.771 172.888 121.556 174.636 120.877C176.4 120.19 177.402 118.721 177.398 116.827C177.398 113.669 177.425 110.507 177.375 107.349C177.359 106.493 177.184 105.609 176.901 104.804C176.765 104.423 176.147 104.238 175.84 103.885C175.561 103.563 175.3 103.143 175.242 102.738C175.223 102.593 175.817 102.2 176.139 102.192C178.338 102.145 180.536 102.176 182.734 102.161C183.55 102.157 183.861 102.475 183.849 103.335C183.803 106.136 183.83 108.936 183.83 111.737C183.849 111.737 183.865 111.737 183.884 111.737L183.88 111.741Z" fill="#393E66"/>
<path d="M63.9493 109.577C63.9493 112.648 64.1397 115.696 65.4136 118.556C66.9284 121.965 70.1716 122.727 72.9758 121.423C74.3819 120.767 74.9256 119.396 75.3257 118.002C75.6325 116.934 77.6173 116.223 78.4135 116.973C78.5921 117.142 78.6621 117.495 78.6659 117.766C78.6931 119.428 78.7125 121.089 78.6582 122.747C78.6504 123.045 78.3358 123.525 78.0833 123.591C72.8321 124.95 67.5809 125.673 62.5161 122.931C59.875 121.502 58.4146 119.098 57.7232 116.25C56.5386 111.379 56.4376 106.485 58.2126 101.737C59.7041 97.7418 62.5744 95.1219 66.7342 94.0575C70.2687 93.154 73.7915 93.5626 77.3065 94.2107C78.262 94.3874 78.7747 94.8273 78.6931 95.9311C78.596 97.2587 78.6465 98.602 78.6776 99.9336C78.697 100.68 78.4018 101.029 77.6561 101.002C77.2677 100.986 76.8327 101.112 76.5064 100.971C76.0947 100.794 75.5548 100.476 75.4383 100.102C74.813 98.1071 73.8148 96.5203 71.5931 96.1903C69.3287 95.8525 67.1459 97.0584 65.9186 99.1598C64.4931 101.599 64.2251 104.321 63.9532 107.043C63.8717 107.88 63.9416 108.736 63.9416 109.581L63.9493 109.577Z" fill="#393E66"/>
<path d="M271.065 113.344C269.127 113.344 267.184 113.336 265.246 113.344C264.151 113.347 263.875 113.611 264.101 114.707C264.376 116.066 264.571 117.515 265.204 118.705C266.493 121.125 269.795 121.895 272.552 120.567C273.411 120.155 274.18 119.522 274.937 118.925C275.504 118.481 275.951 118.418 276.413 119.031C276.607 119.29 276.93 119.479 277.042 119.762C277.151 120.029 277.201 120.508 277.042 120.673C273.045 124.927 266.862 126.196 261.661 123.022C259.424 121.655 258.364 119.424 257.917 116.89C257.3 113.383 257.389 109.954 259.16 106.745C260.457 104.388 262.458 102.903 265.025 102.302C268.291 101.54 271.519 101.517 274.42 103.571C276.627 105.134 277.376 107.515 277.815 110.032C277.943 110.767 277.908 111.525 277.967 112.271C278.033 113.084 277.664 113.363 276.879 113.347C274.941 113.316 272.999 113.336 271.061 113.336L271.065 113.344ZM267.787 110.924C268.691 110.924 269.596 110.916 270.501 110.924C271.255 110.932 271.581 110.551 271.484 109.824C271.356 108.858 271.259 107.876 271.014 106.937C270.634 105.468 269.861 104.294 268.19 104.129C267.002 104.011 265.654 104.977 265.079 106.529C264.668 107.644 264.485 108.846 264.244 110.021C264.112 110.653 264.485 110.916 265.075 110.92C265.98 110.924 266.885 110.92 267.79 110.92L267.787 110.924Z" fill="#393E66"/>
<path d="M199.665 101.725C201.759 101.984 203.611 102.224 205.472 102.436C206.055 102.502 206.342 102.754 206.33 103.37C206.311 104.541 206.373 105.719 206.291 106.886C206.272 107.169 205.86 107.617 205.581 107.656C203.759 107.931 203.561 107.801 202.687 106.21C201.627 104.278 199.281 103.563 197.331 104.58C195.762 105.397 195.393 107.463 196.822 108.677C197.956 109.635 199.409 110.209 200.726 110.947C201.798 111.544 202.94 112.035 203.938 112.738C206.237 114.357 206.897 116.655 206.357 119.357C205.864 121.82 204.213 123.175 201.984 124.004C198.982 125.115 195.948 124.891 192.895 124.318C191.975 124.145 191.031 124.027 190.149 123.733C189.811 123.619 189.415 123.096 189.384 122.731C189.287 121.6 189.369 120.453 189.342 119.314C189.322 118.54 189.691 118.324 190.406 118.281C191.598 118.214 192.425 118.375 192.926 119.754C193.661 121.777 196.174 122.798 198.267 122.209C200.52 121.572 201.304 118.858 199.545 117.303C198.481 116.36 197.082 115.798 195.82 115.083C194.756 114.479 193.606 113.995 192.616 113.281C190.619 111.843 189.439 109.918 189.912 107.342C190.414 104.616 192.309 103.15 194.802 102.498C196.442 102.07 198.162 101.956 199.661 101.733L199.665 101.725Z" fill="#393E66"/>
<path d="M291.627 101.717C293.755 101.98 295.612 102.219 297.472 102.435C298.027 102.498 298.26 102.765 298.253 103.327C298.237 104.497 298.241 105.672 298.257 106.846C298.264 107.408 298.043 107.707 297.46 107.695C297.072 107.687 296.684 107.687 296.295 107.703C295.643 107.726 295.266 107.479 294.978 106.827C293.973 104.525 292.034 103.637 289.871 104.38C287.898 105.059 287.288 107.42 288.892 108.779C289.976 109.698 291.39 110.224 292.656 110.924C293.732 111.513 294.858 112.023 295.872 112.703C298.074 114.172 298.816 116.352 298.451 118.901C298.09 121.415 296.579 123.002 294.233 123.905C291.106 125.107 287.956 124.899 284.771 124.298C283.979 124.149 283.187 123.984 282.39 123.842C281.711 123.721 281.388 123.351 281.408 122.633C281.439 121.525 281.439 120.417 281.423 119.31C281.412 118.63 281.66 118.324 282.379 118.28C283.563 118.21 284.391 118.367 284.931 119.71C285.956 122.255 288.512 122.672 290.329 122.153C292.516 121.529 293.235 118.984 291.611 117.377C290.85 116.623 289.828 116.116 288.873 115.586C287.688 114.926 286.414 114.423 285.249 113.732C282.662 112.204 281.532 109.945 281.948 107.333C282.386 104.58 284.29 103.197 286.713 102.518C288.372 102.054 290.131 101.948 291.627 101.717Z" fill="#393E66"/>
<path d="M98.459 124.286C96.8743 124.286 95.2896 124.322 93.7049 124.259C93.336 124.243 92.9786 123.898 92.6135 123.705C92.8427 123.328 92.9864 122.743 93.3127 122.613C94.6293 122.091 94.9789 121.054 94.9789 119.809C94.9867 112.672 94.9789 105.535 94.9789 98.4016C94.9789 97.0425 94.5517 96.0095 93.1612 95.4989C92.8893 95.4007 92.6796 94.8547 92.6407 94.4972C92.6252 94.3401 93.1107 93.9709 93.3748 93.967C96.7073 93.9277 100.036 93.9238 103.368 93.9631C103.667 93.9631 104.157 94.2851 104.207 94.5326C104.266 94.8154 103.998 95.381 103.749 95.4674C102.021 96.0802 101.803 97.4589 101.807 99.0143C101.819 104.651 101.807 110.287 101.815 115.928C101.815 117.295 101.826 118.666 101.854 120.033C101.877 121.199 102.316 122.079 103.446 122.594C103.8 122.755 103.99 123.277 104.254 123.63C103.842 123.85 103.438 124.235 103.015 124.259C101.5 124.337 99.9776 124.29 98.4551 124.29L98.459 124.286Z" fill="#393E66"/>
<path d="M96.9593 0V84.0704H0.787476L96.9593 0Z" fill="#393E66"/>
<path d="M218.355 111.831C218.355 113.685 218.347 115.543 218.363 117.397C218.363 117.817 218.421 118.245 218.526 118.65C219.155 121.144 220.744 121.788 222.95 120.421C223.63 120.001 224.088 119.762 224.686 120.641C225.23 121.439 225.156 121.867 224.426 122.385C222.212 123.953 219.916 125.21 217.066 124.644C213.92 124.019 212.129 122.103 212.028 118.874C211.9 114.809 211.958 110.739 211.943 106.67C211.939 105.048 211.943 105.087 210.358 104.969C209.954 104.938 209.367 104.675 209.231 104.356C208.971 103.752 209.515 103.433 210.039 103.272C211.71 102.75 212.42 101.501 212.642 99.859C212.75 99.0537 212.914 98.2524 212.983 97.4472C213.034 96.8502 213.333 96.6616 213.865 96.6616C215.061 96.6616 216.258 96.6734 217.45 96.6538C218.13 96.6459 218.34 96.9837 218.324 97.6279C218.289 98.8298 218.332 100.036 218.297 101.242C218.277 101.917 218.557 102.184 219.213 102.176C220.666 102.161 222.123 102.196 223.575 102.169C224.282 102.157 224.593 102.444 224.554 103.151C224.535 103.477 224.535 103.803 224.55 104.129C224.577 104.761 224.255 104.997 223.661 104.993C222.27 104.985 220.88 105.028 219.493 104.985C218.623 104.957 218.277 105.264 218.301 106.171C218.351 108.056 218.316 109.946 218.316 111.835C218.328 111.835 218.343 111.835 218.355 111.835V111.831Z" fill="#393E66"/>
<path d="M235.324 114.557C235.324 116.187 235.313 117.813 235.328 119.444C235.344 120.877 235.588 122.169 237.173 122.759C237.402 122.845 237.6 123.403 237.561 123.709C237.534 123.929 237.088 124.255 236.824 124.259C233.751 124.298 230.679 124.306 227.611 124.263C227.319 124.263 226.811 123.902 226.791 123.674C226.76 123.348 227.001 122.81 227.277 122.672C228.387 122.13 228.826 121.254 228.826 120.08C228.83 115.52 228.834 110.963 228.838 106.403C228.838 105.173 228.356 104.305 227.137 103.85C226.826 103.732 226.542 103.178 226.515 102.805C226.504 102.616 227.078 102.212 227.401 102.196C229.595 102.09 231.794 102.047 233.992 102.015C235.204 102 235.324 102.2 235.181 103.39C235.118 103.932 235.2 104.49 235.219 105.044C235.643 104.741 236.101 104.482 236.482 104.133C238.707 102.066 241.356 101.599 244.246 101.988C244.887 102.074 245.194 102.42 245.174 103.111C245.135 104.447 245.128 105.782 245.166 107.118C245.194 107.982 244.817 108.304 244.005 108.237C243.718 108.214 243.422 108.214 243.131 108.237C241.935 108.347 241.034 108.198 240.432 106.831C239.775 105.334 238.152 105.213 236.835 106.316C235.864 107.13 235.344 108.19 235.332 109.471C235.317 111.163 235.332 112.856 235.332 114.549L235.324 114.557Z" fill="#393E66"/>
<path d="M255.134 111.733C255.134 114.498 255.134 117.263 255.134 120.033C255.134 121.195 255.542 122.087 256.645 122.645C256.952 122.798 257.208 123.344 257.204 123.705C257.204 123.901 256.61 124.259 256.28 124.263C253.374 124.306 250.465 124.31 247.556 124.263C247.195 124.255 246.841 123.87 246.48 123.658C246.698 123.301 246.83 122.786 247.144 122.621C248.127 122.106 248.589 121.297 248.597 120.264C248.64 115.614 248.663 110.963 248.64 106.308C248.636 105.158 248.123 104.282 246.915 103.865C246.608 103.759 246.399 103.146 246.321 102.73C246.298 102.601 246.845 102.212 247.144 102.196C249.339 102.098 251.533 102.051 253.728 102.023C254.998 102.007 255.068 102.113 255.068 103.429C255.068 106.195 255.068 108.964 255.068 111.729C255.087 111.729 255.107 111.729 255.126 111.729L255.134 111.733Z" fill="#393E66"/>
<path d="M251.805 98.7553C249.868 98.7632 248.9 97.7969 248.9 95.8565C248.908 93.0285 248.589 93.3977 251.39 93.3741C252.264 93.3663 253.134 93.3663 254.008 93.382C254.571 93.3898 254.924 93.6294 254.92 94.2658C254.909 95.4716 254.897 96.6736 254.916 97.8794C254.928 98.5118 254.629 98.7632 254.035 98.7553C253.293 98.7514 252.547 98.7553 251.805 98.7553Z" fill="#393E66"/>
<path d="M87.7225 13.1876L14.3711 77.4767H35.5615L95.3293 28.573H156.184L170.854 13.1876H87.7225Z" fill="#CCCFD4"/>
<path d="M88.8091 47.8048L74.1388 60.9923H115.976L130.647 47.8048H88.8091Z" fill="#CCCFD4"/>
</svg>
