<svg enable-background="new 0 0 280.5 91.7" viewBox="0 0 280.5 91.7" xmlns="http://www.w3.org/2000/svg"><path d="m83.9 23.9-2.7 5.3h-9.2l15.2-29.2h11.1l14.8 29.2h-9.1l-2.6-5.3zm8.7-17.6-5.8 11.6h11.6z" fill="#122e5e"/><path d="m156.6 29.2h-14.2l-17.6-21.9v21.9h-8.3v-29.2h14.1l17.6 21.9v-21.9h8.4z" fill="#122e5e"/><path d="m241.4 0h25.7c10.4 0 13.4 2.6 13.4 13.1v1.7c0 2.3 0 4.6-.4 6.9-.9 5.1-4.6 7.5-9.7 7.5h-29zm23.8 22.1c5.9 0 6.3-2.2 6.3-7.4v-.3c0-5-.1-7.3-6.1-7.3h-15.1v14.9h14.9z" fill="#122e5e"/><path d="m185.4 0h-6.7v7.1h8.7c1.1 0 2 .9 2 2v11.1c0 1.1-.9 2-2 2h-8.7v7h2.1l3.3-.1c12.9-.4 13.6-4.1 13.6-15.1v-1.4c-0-9.9-3.1-12.4-12.3-12.6zm-25.5 12.7v1.4c0 10.9.6 14.6 13.6 15.1l3.3.1h2v-7h-8.7c-1.1 0-2-.9-2-2v-11.2c0-1.1.9-2 2-2h8.7v-7.1h-6.7c-9.1.2-12.2 2.7-12.2 12.7z" fill="#122e5e"/><path d="m113.1 34.1v29.2h-8.6v-18.7l-11.8 14.3h-.4l-11.9-14.3v18.7h-8.4v-29.2h9.5l11.2 14 11.2-14z" fill="#0071bc"/><path d="m237.9 63.3v-29.2h8.7v29.2z" fill="#0071bc"/><path d="m268.8 48.4 11.7 14.9h-9l-7.2-9.3-7.2 9.3h-8.5l11.6-14.8-11.4-14.4h9l7 8.9 6.9-8.9h8.6z" fill="#0071bc"/><path d="m126.9 58-2.7 5.3h-9.2l15.1-29.2h11.1l14.8 29.2h-9l-2.6-5.3zm8.7-17.6-5.8 11.6h11.6z" fill="#0071bc"/><path d="m196.9 34.1h25.7c10.4 0 13.4 2.6 13.4 13.1v1.7c0 2.3 0 4.6-.4 6.9-.9 5.1-4.6 7.5-9.7 7.5h-29zm23.9 22.1c5.9 0 6.3-2.2 6.3-7.4v-.3c0-5-.1-7.3-6.1-7.3h-15.1v14.9h14.9z" fill="#0071bc"/><path d="m201 0h27.2c6.9 0 9.8 1.4 9.8 8.5 0 2-.1 4.2-1.2 6s-3.2 2.1-5.1 2.8c3.7.5 6 1.6 6 5.6v6.4h-9v-2.8c0-3.2-.1-5.5-3.9-5.5h-14.8v8.3h-9zm22.4 13.9h1.1c4.2 0 4.5-.8 4.5-4.1 0-1.5-.1-2.7-1.8-3.2-.8-.2-1.7-.3-2.5-.3h-14.8v7.5h13.5z" fill="#122e5e"/><path d="m158 34.1h27.2c6.9 0 9.8 1.4 9.8 8.5 0 2-.1 4.2-1.2 6s-3.2 2.1-5.1 2.8c3.7.5 6 1.6 6 5.6v6.4h-9v-2.8c0-3.2-.1-5.5-3.9-5.5h-14.8v8.3h-9zm22.4 13.8h1.1c4.2 0 4.5-.8 4.5-4.1 0-1.5-.1-2.7-1.8-3.2-.8-.2-1.7-.3-2.5-.3h-14.8v7.5h13.5z" fill="#0071bc"/><path d="m63 31.9c0 4.5-1.2 9-3.9 12.8-4.3 6.1-12 9.7-19.5 9.2-4.7-.3-8.4-2.3-8.4-2.3l-.1-.1s-2.1-.8-5-3.7-4-5.3-4.1-5.3c-.3-.6-.4-.8-.5-1-.4-.8-.7-1.7-1-2.5 2.3 3.6 6.4 6.1 11 6.1 2.7 0 5.4-.9 7.7-2.5 1.7-1.2 3.1-2.9 4.1-4.8.2-.5.5-1 .7-1.4.2-.5.5-1.1.7-1.6.7-2.2.9-4.7.6-7-.3-2.9-1.4-5.9-3.1-8.7l-.6-.9c-.1-.1-1.5-2.6-5.1-5.4-3.2-2.5-5.6-3.3-6-3.4-.6-.2-4.5-1.7-9.4-1.5-.6 0-1.3.1-1.8.1-4.4.5-7.5 2-11.1 4.4-1.2.8-2.3 1.7-3.2 2.6 5.4-8.9 15.3-14.8 26.5-14.8 14.3 0 26.4 9.6 30.2 22.8.9 2.9 1.3 5.9 1.3 8.9z" fill="#122e5e"/><path d="m57.9 49.1c-5.6 8.6-15.3 14.4-26.4 14.4-13.2 0-24.4-8.1-29.1-19.6-.6-1.4-1-2.8-1.4-4.2 0-.1-.1-.2-.1-.3-.6-2.9-1-5.7-.9-8.6 0-1.2.1-2.4.3-3.5.8-4.1 3.2-8.2 6.2-11.1 3.5-3.4 8.1-5.6 12.9-6.2 5.7-.7 11.4.9 15.8 4.4 3.2 2.5 4.6 4.8 4.6 4.9.3.5.5.8.6 1 1 1.5 1.7 3.1 2.2 4.8-2.3-3.7-6.4-6.2-11.1-6.2-1.8 0-3.5.4-5 1-.1 0-.2.1-.3.1-.2.1-.5.2-.7.3-1.3.6-2.5 1.5-3.5 2.5-3 3-3.6 5.1-4.1 7.8-.2.9-.3 1.9-.3 2.9 0 3 .7 6.1 2.1 9l.5 1c0 .1 1.3 2.8 4.5 5.9 2.9 2.9 5.2 3.9 5.6 4.1.5.3 4.3 2.2 9.2 2.6.6 0 1.2.1 1.8.1 4.4 0 7.7-1.2 11.5-3.2 2.1-1.3 3.7-2.6 5.1-3.9z" fill="#1b75bc"/><g fill="#656565"><path d="m132.1 83.4-2 4.7h-1.5l6-14h1.6l6 14h-1.5l-2-4.7zm6-1.3-2.7-6.5-2.8 6.5z"/><path d="m156.1 74v1.3h-5.7v5.1h5.5v1.3h-5.5v6.4h-1.4v-14.1z"/><path d="m159.5 74v14h-1.3v-14z"/><path d="m166.8 87.1c.8 0 1.6-.2 2.3-.7.7-.4 1.2-1 1.5-1.8h1.4c-.4 1.1-1.1 2-2 2.6-.9.7-2 1-3.1 1-1 0-1.9-.2-2.7-.7s-1.5-1.1-2-2c-.5-.8-.7-1.7-.7-2.7s.2-1.9.7-2.7 1.2-1.5 2-2 1.7-.7 2.7-.7 1.9.3 2.8.8c.8.5 1.5 1.2 2 2.1s.7 1.8.7 2.7v.4h-9.5c0 .7.3 1.3.6 1.9.4.6.9 1 1.5 1.4.5.3 1.2.4 1.8.4zm0-8.5c-.6 0-1.3.1-1.8.4-.6.3-1.1.7-1.4 1.3-.4.5-.6 1.2-.8 1.9h8.1c-.2-1.1-.7-1.9-1.4-2.6-.8-.6-1.7-1-2.7-1z"/><path d="m174.8 88.1h-1.6l3.5-5.3-3.5-5.1h1.6l2.7 4 2.7-4h1.6l-3.5 5.1 3.5 5.3h-1.6l-2.8-4.2z"/><path d="m195.6 88.3c-1.3 0-2.5-.3-3.7-1-1.1-.6-2-1.5-2.7-2.6s-1-2.3-1-3.7c0-1.3.3-2.6 1-3.7s1.5-2 2.7-2.6c1.1-.6 2.3-1 3.7-1 .9 0 1.7.2 2.6.5s1.6.8 2.3 1.3c.7.6 1.2 1.3 1.6 2h-1.6c-.5-.8-1.2-1.4-2.1-1.9s-1.8-.7-2.8-.7-2 .3-2.9.8c-.9.6-1.6 1.3-2.2 2.2-.5.9-.8 1.9-.8 3 0 1 .3 2 .8 2.9.6.9 1.3 1.7 2.2 2.2.9.6 1.9.8 2.9.8.9 0 1.8-.2 2.7-.7.8-.5 1.6-1.1 2.2-2h1.6c-.7 1.2-1.6 2.2-2.8 2.9-1.2 1-2.4 1.3-3.7 1.3z"/><path d="m203.6 83c0-1 .2-1.9.7-2.8.5-.8 1.2-1.5 2-2s1.7-.7 2.7-.7 1.9.3 2.7.8 1.5 1.2 2 2 .7 1.7.7 2.7-.2 1.9-.7 2.7-1.2 1.5-2 2-1.7.7-2.7.7-1.9-.2-2.7-.7-1.5-1.2-2-2c-.4-.9-.7-1.8-.7-2.7zm9.6-.2c0-.7-.2-1.4-.6-2.1-.4-.6-.9-1.2-1.5-1.5-.6-.4-1.3-.6-2.1-.6-.7 0-1.4.2-2 .6s-1.1.9-1.5 1.6-.6 1.4-.6 2.1.2 1.4.6 2.1c.4.6.9 1.2 1.5 1.5.6.4 1.3.6 2 .6.8 0 1.5-.2 2.1-.6s1.1-.9 1.5-1.6c.4-.6.6-1.3.6-2.1z"/><path d="m227.6 78.6c-.9 0-1.6.3-2.1.9s-.7 1.4-.7 2.5v6.1h-1.3v-6.1c0-1-.2-1.9-.7-2.5s-1.2-.9-2.1-.9-1.6.3-2.1.9-.7 1.4-.7 2.5v6.1h-1.3v-10.4h1.3v1.2c.3-.5.7-.8 1.2-1.1.5-.2 1-.4 1.6-.4.7 0 1.4.2 2 .5s1.1.8 1.5 1.5c.8-1.3 2-2 3.5-2 .9 0 1.6.2 2.2.6s1.1.9 1.4 1.6.5 1.4.5 2.2v6.2h-1.3v-6c0-1-.2-1.8-.7-2.4-.5-.7-1.2-1-2.2-1z"/><path d="m235.6 77.7v1.8c.5-.7 1.1-1.2 1.8-1.6s1.5-.5 2.3-.5c1 0 2 .2 2.8.7s1.5 1.1 2 2c.5.8.7 1.7.7 2.7s-.2 1.9-.7 2.8c-.5.8-1.2 1.5-2 2s-1.8.7-2.8.7c-.8 0-1.6-.2-2.3-.5s-1.3-.9-1.7-1.5v5.5h-1.3v-14h1.2zm4.1.9c-.7 0-1.4.2-2.1.6-.6.4-1.1.9-1.5 1.6s-.6 1.4-.6 2.1c0 .8.2 1.5.6 2.1s.9 1.2 1.5 1.5c.6.4 1.3.6 2.1.6s1.5-.2 2.2-.6c.6-.4 1.2-.9 1.5-1.5.4-.6.6-1.4.6-2.1 0-.8-.2-1.5-.5-2.2-.4-.7-.9-1.2-1.5-1.5-.8-.4-1.5-.6-2.3-.6z"/><path d="m256.4 86.3c-.4.6-1 1.2-1.7 1.5-.7.4-1.5.6-2.3.6-1 0-2-.2-2.8-.7-.9-.5-1.5-1.1-2-2-.5-.8-.7-1.8-.7-2.8s.3-1.9.8-2.8c.5-.8 1.2-1.5 2-2 .9-.5 1.8-.7 2.8-.7.9 0 1.6.2 2.4.6.7.4 1.3.9 1.7 1.5v-1.8h1.3v10.4h-1.3zm.1-3.4c0-.8-.2-1.5-.6-2.1-.4-.7-.9-1.2-1.5-1.6s-1.3-.6-2.1-.6-1.5.2-2.1.6-1.2.9-1.5 1.5c-.4.7-.6 1.4-.6 2.2s.2 1.5.6 2.1.9 1.2 1.5 1.5c.7.4 1.4.6 2.2.6s1.5-.2 2.1-.6 1.1-.9 1.5-1.5c.3-.6.5-1.3.5-2.1z"/><path d="m264.8 78.6c-1 0-1.8.3-2.4 1s-.9 1.5-.9 2.6v5.9h-1.3v-10.4h1.3v1.3c.3-.5.8-.9 1.3-1.2.6-.3 1.2-.4 1.9-.4.9 0 1.7.2 2.4.6s1.2 1 1.6 1.7.6 1.6.6 2.5v5.8h-1.3v-5.8c0-.8-.1-1.4-.4-2s-.7-1-1.2-1.3c-.5-.1-1-.3-1.6-.3z"/><path d="m270.8 77.7h1.4l3.3 8.3 3.5-8.3h1.4l-6 14h-1.4l1.8-4z"/></g></svg>