<svg width="350" height="78" viewBox="0 0 350 78" fill="none" xmlns="http://www.w3.org/2000/svg">
<g clip-path="url(#clip0_3281_869)">
<path d="M233.079 62.352H239.35C242.125 62.352 244.39 64.0583 244.39 67.4708C244.39 70.8833 242.125 72.573 239.35 72.573H234.228V77.1617H233.079V62.352ZM239.35 71.4631C241.435 71.4631 243.159 70.1048 243.159 67.4874C243.159 64.87 241.435 63.4785 239.35 63.4785H234.228V71.4631H239.35Z" fill="#0D444A"/>
<path d="M247.493 62.352H257.212V63.4785H248.642V69.0445H256.621V70.171H248.642V76.0518H257.508V77.1783H247.493V62.3686V62.352Z" fill="#0D444A"/>
<path d="M264.747 63.4805H259.69V62.354H270.952V63.4805H265.896V77.1638H264.747V63.4805Z" fill="#0D444A"/>
<path d="M286.796 68.2177H290.391L290.293 68.6815C289.948 70.2056 289.357 71.5971 288.75 72.823C289.669 73.8997 290.194 75.2416 290.194 77.1632H288.963C288.963 75.8048 288.667 74.7943 288.093 73.9826C286.779 76.0864 285.039 77.4117 282.577 77.4117C279.835 77.4117 277.881 76.0036 277.881 73.4028C277.881 71.3486 279.129 70.0565 281.05 69.1288C279.884 68.2343 279.31 67.3066 279.31 65.7825C279.31 63.3474 281.132 62.1215 283.348 62.1215C284.268 62.1215 285.581 62.37 286.615 62.9995L286.106 63.9437C285.286 63.4799 284.12 63.2314 283.348 63.2314C282.018 63.2314 280.524 63.8278 280.524 65.7991C280.524 67.7704 281.936 68.4993 284.547 69.9074C285.844 70.6032 286.96 71.2492 287.879 72.0278C288.273 71.183 288.618 70.2719 288.93 69.3276H286.796V68.2508V68.2177ZM287.305 73.1046C286.517 72.4088 285.45 71.7628 284.087 71.0007C283.332 70.5866 282.659 70.2056 282.084 69.8411C280.196 70.686 279.063 71.564 279.063 73.4028C279.063 75.3575 280.623 76.2852 282.56 76.2852C284.678 76.2852 286.172 75.0097 287.305 73.1046Z" fill="#0D444A"/>
<path d="M299.124 62.3541H300.273V76.0374H308.154V77.1638H299.124V62.3541Z" fill="#0D444A"/>
<path d="M310.978 62.352H312.128V77.1617H310.978V62.352Z" fill="#0D444A"/>
<path d="M316.332 62.354H326.052V63.4805H317.482V69.0631H325.296V70.1896H317.482V77.1803H316.332V62.3706V62.354Z" fill="#0D444A"/>
<path d="M329.137 62.352H338.857V63.4785H330.287V69.0445H338.266V70.171H330.287V76.0518H339.152V77.1783H329.137V62.3686V62.352Z" fill="#0D444A"/>
<path d="M74.7649 37.5723C74.7649 29.3889 81.4797 24.5517 89.8197 24.5517C93.6122 24.5517 97.1583 25.4794 100.163 27.3513V25.8769C100.163 20.7416 97.224 18.0082 91.2809 18.0082C87.7347 18.0082 83.9423 19.1016 80.7737 20.8907L78.229 14.9767C82.317 12.79 87.6526 11.3985 92.2003 11.3985C101.772 11.3985 107.025 15.9209 107.025 24.8002V49.1849H100.918L100.376 46.4516C97.2897 48.7873 93.2674 50.2783 88.7198 50.2783C79.6902 50.2783 74.7485 45.1429 74.7485 37.5723H74.7649ZM90.5914 44.3477C94.3017 44.3477 97.3882 43.1053 100.015 41.0677V33.7457C97.2404 31.4099 93.9898 30.4656 90.5914 30.4656C84.8781 30.4656 81.7916 33.199 81.7916 37.3239C81.7916 41.4487 84.9602 44.3312 90.5914 44.3312V44.3477Z" fill="#0D444A"/>
<path d="M114.201 12.5581H120.915L121.293 15.7553C125.085 12.5581 129.009 11.3985 133.179 11.3985C143.752 11.3985 150.631 19.0353 150.631 30.8798C150.631 41.9457 143.144 50.3611 132.096 50.3611C128.385 50.3611 124.757 49.5825 121.523 47.6277C121.605 50.593 121.67 54.7179 121.67 58.4617V65.9494H114.184V12.5581H114.201ZM121.687 22.0668V40.14C124.461 42.6415 128.024 43.652 131.422 43.652C138.909 43.652 143.161 38.2018 143.161 30.8632C143.161 23.5246 138.843 18.0911 131.734 18.0911C128.106 18.0911 124.708 19.1844 121.687 22.0668Z" fill="#0D444A"/>
<path d="M153.649 31.1117C153.649 20.0458 161.218 11.3985 172.415 11.3985C182.446 11.3985 189.719 18.4058 189.719 29.4717C189.719 30.6479 189.636 31.8903 189.636 32.437H160.988C161.218 39.378 165.93 43.8176 172.809 43.8176C177.602 43.8176 181.378 42.2604 184.169 38.1356L189.193 42.1113C185.795 47.6443 179.852 50.3776 172.513 50.3776C161.152 50.3776 153.666 42.9728 153.666 31.1283L153.649 31.1117ZM161.3 26.5893H182.544C181.92 20.9735 177.914 17.4781 172.267 17.4781C166.619 17.4781 162.383 21.1391 161.3 26.5893Z" fill="#0D444A"/>
<path d="M195.138 12.5586H202.165L202.395 17.7768C205.481 13.42 209.191 11.6144 213.279 11.6144C214.363 11.6144 215.446 11.7635 216.596 12.161L215.742 19.5659C214.346 19.1683 213.115 18.9364 211.802 18.9364C206.63 18.9364 202.608 22.9122 202.608 31.3276V49.1689H195.122V12.5586H195.138Z" fill="#0D444A"/>
<path d="M224.41 35.9483V18.8028H219.846V12.5741H224.41V1.49164H231.896V12.5575H238.233V18.7863H231.896V35.236C231.896 41.3985 233.062 43.0219 235.837 43.0219C237.068 43.0219 238.151 42.7072 238.545 42.6243L239.169 49.085C237.478 49.5488 235.623 49.8635 233.916 49.8635C227.513 49.8635 224.41 45.8049 224.41 35.9152V35.9483Z" fill="#0D444A"/>
<path d="M242.057 37.1079V12.5575H249.543V35.6998C249.543 40.918 252.482 43.6514 257.029 43.6514C262.283 43.6514 266.453 39.5265 266.453 33.1321V12.5575H273.939V49.1843H266.995L266.765 44.8938C263.76 48.472 259.656 50.3439 254.879 50.3439C247.228 50.3439 242.057 45.4405 242.057 37.0913V37.1079Z" fill="#0D444A"/>
<path d="M281.133 12.5586H288.16L288.389 17.7768C291.476 13.42 295.186 11.6144 299.274 11.6144C300.358 11.6144 301.441 11.7635 302.59 12.161L301.737 19.5659C300.341 19.1683 299.11 18.9364 297.797 18.9364C292.625 18.9364 288.603 22.9122 288.603 31.3276V49.1689H281.116V12.5586H281.133Z" fill="#0D444A"/>
<path d="M301.146 31.1117C301.146 20.0458 308.715 11.3985 319.911 11.3985C329.942 11.3985 337.215 18.4058 337.215 29.4717C337.215 30.6479 337.133 31.8903 337.133 32.437H308.485C308.715 39.378 313.426 43.8176 320.305 43.8176C325.099 43.8176 328.875 42.2604 331.666 38.1356L336.69 42.1113C333.291 47.6443 327.348 50.3776 320.01 50.3776C308.649 50.3776 301.163 42.9728 301.163 31.1283L301.146 31.1117ZM308.797 26.5893H330.041C329.417 20.9735 325.411 17.4781 319.764 17.4781C314.116 17.4781 309.88 21.1391 308.797 26.5893Z" fill="#0D444A"/>
<path d="M44.0488 52.1658L36.5297 39.0126C36.2341 38.5157 35.7088 38.2009 35.1342 38.2009H28.6329C28.0583 38.2009 27.5165 38.5157 27.2374 39.0126L19.7182 52.1658C19.4227 52.6628 19.4227 53.2923 19.7182 53.7893L22.6241 58.8584C23.1002 59.7032 24.2002 59.9352 24.9718 59.3554L30.3403 55.4293C30.6851 55.1642 30.8985 54.7667 30.8985 54.3194C30.8985 53.8887 30.6851 53.4745 30.3403 53.2095L27.4508 51.0891C27.0896 50.824 26.9255 50.3436 27.0732 49.9129L28.5344 45.3739C28.6821 44.9432 29.0762 44.645 29.5194 44.645H34.2476C34.7073 44.645 35.1013 44.9432 35.2327 45.3739L36.6938 49.9129C36.8416 50.3436 36.6938 50.824 36.3162 51.0891L33.4268 53.2095C33.082 53.4745 32.8686 53.8721 32.8686 54.3194V54.3525C32.8686 54.7832 33.082 55.1974 33.4268 55.4624L38.7788 59.3885C39.5505 59.9517 40.6504 59.7198 41.1265 58.8915L44.0324 53.8058C44.3279 53.3089 44.3279 52.6794 44.0324 52.1824L44.0488 52.1658Z" fill="#57B1BC"/>
<path d="M57.0525 24.7987L42.3425 27.9627C41.7843 28.0787 41.3246 28.4928 41.144 29.0561L39.1411 35.2848C38.9605 35.8315 39.0919 36.4444 39.4695 36.8751L49.5334 48.1563C49.9274 48.5871 50.502 48.7858 51.0766 48.6533L56.757 47.4275C57.6928 47.2287 58.251 46.2513 57.9555 45.3236L55.9033 38.9624C55.772 38.5482 55.4436 38.2169 55.0332 38.0844C54.6228 37.9519 54.1631 38.0181 53.8183 38.2832L50.9288 40.4036C50.5677 40.6686 50.0751 40.6686 49.6975 40.4036L45.8723 37.604C45.5111 37.3389 45.3469 36.8585 45.4947 36.4278L46.9558 31.8888C47.1036 31.4581 47.4976 31.1599 47.9409 31.1599H52.6691C53.1288 31.1599 53.5228 31.4581 53.6541 31.8888L54.7541 35.3179C54.8854 35.7321 55.2138 36.0634 55.6242 36.1959H55.6571C56.0675 36.345 56.5272 36.2622 56.8719 36.0137L62.224 32.0876C62.9956 31.5244 63.1106 30.3979 62.4703 29.6856L58.5794 25.3122C58.1853 24.8815 57.6107 24.6827 57.0361 24.8152L57.0525 24.7987Z" fill="#57B1BC"/>
<path d="M35.2662 3.85992L33.6902 18.9513C33.6245 19.5311 33.8872 20.0943 34.3469 20.4422L39.6004 24.302C40.0601 24.6499 40.684 24.7162 41.2093 24.4677L54.9507 18.2887C55.4761 18.0567 55.8373 17.5432 55.9029 16.9634L56.5104 11.1323C56.6089 10.1715 55.8701 9.32661 54.9015 9.32661H48.2688C47.842 9.32661 47.4315 9.54196 47.1689 9.88984C46.9062 10.2377 46.8405 10.7016 46.9719 11.1157L48.0718 14.5448C48.2196 14.9755 48.0718 15.4559 47.6942 15.721L43.869 18.5206C43.5078 18.7856 43.0153 18.7856 42.6377 18.5206L38.8124 15.721C38.4512 15.4559 38.287 14.9755 38.4348 14.5448L39.8959 10.0058C40.0437 9.57509 40.4377 9.27691 40.881 9.27691H44.4436C44.8704 9.27691 45.2809 9.06156 45.5435 8.71368C45.8062 8.33266 45.8719 7.88539 45.7406 7.47125L43.6884 1.12657C43.3929 0.198892 42.375 -0.248382 41.4884 0.149195L36.1692 2.53466C35.6438 2.76658 35.2827 3.28012 35.217 3.85992H35.2662Z" fill="#57B1BC"/>
<path d="M8.80342 18.2884L22.5448 24.4674C23.0702 24.6993 23.6776 24.6331 24.1537 24.3018L29.4073 20.4419C29.867 20.0941 30.1297 19.5308 30.064 18.951L28.4879 3.85965C28.4222 3.27985 28.0611 2.78288 27.5357 2.53439L22.2329 0.148927C21.3627 -0.24865 20.3284 0.21519 20.0329 1.1263L17.9808 7.48754C17.8494 7.90168 17.9151 8.36553 18.1778 8.71341C18.4404 9.06129 18.8345 9.27664 19.2777 9.27664H22.8403C23.3 9.27664 23.694 9.57482 23.8418 10.0055L25.3029 14.5445C25.4507 14.9752 25.3029 15.4557 24.9253 15.7207L21.1001 18.5203C20.7389 18.7854 20.2464 18.7854 19.8688 18.5203L16.0435 15.7207C15.6823 15.4557 15.5181 14.9752 15.6659 14.5445L16.7659 11.1154C16.8972 10.7013 16.8315 10.2375 16.5689 9.88957C16.3062 9.50856 15.9122 9.30977 15.4689 9.30977H8.85267C7.90046 9.30977 7.14526 10.1546 7.24376 11.1154L7.85121 16.9631C7.91688 17.5429 8.27806 18.0399 8.80342 18.2884Z" fill="#57B1BC"/>
<path d="M14.2353 48.1399L24.2991 36.8586C24.6932 36.4279 24.8081 35.815 24.6275 35.2683L22.6246 29.0396C22.444 28.4929 21.9843 28.0622 21.4261 27.9462L6.71608 24.7822C6.15789 24.6662 5.56686 24.8484 5.17284 25.2792L1.28191 29.6525C0.641632 30.3648 0.756554 31.4913 1.52817 32.0545L6.89667 35.9806C7.24144 36.2457 7.70112 36.3119 8.11156 36.1794C8.522 36.0469 8.85034 35.7156 8.98168 35.3014L10.0817 31.8723C10.2294 31.4416 10.6234 31.1434 11.0831 31.1434H15.8113C16.271 31.1434 16.665 31.4416 16.7964 31.8723L18.2575 36.4113C18.4053 36.842 18.2575 37.3224 17.8799 37.5875L14.0547 40.3871C13.6935 40.6521 13.201 40.6521 12.8234 40.3871L9.9339 38.2667C9.58913 38.0016 9.12944 37.9354 8.71901 38.0679H8.68617C8.27574 38.217 7.94739 38.5317 7.81605 38.9459L5.76387 45.2905C5.46836 46.2182 6.02655 47.179 6.96234 47.3944L12.6592 48.6203C13.2174 48.7362 13.8084 48.554 14.2024 48.1233L14.2353 48.1399Z" fill="#57B1BC"/>
<path d="M337.823 9.92286H335.377V8.6473H341.599V9.92286H339.153V15.87H337.823V9.92286ZM342.338 8.6473H343.29L346.015 12.5237L348.757 8.6473H349.693V15.8865H348.363V11.4966L346.015 14.8263L343.668 11.5297V15.8865H342.338V8.63074V8.6473Z" fill="#0D444A"/>
</g>
<defs>
<clipPath id="clip0_3281_869">
<rect width="348.854" height="77.4116" fill="white" transform="translate(0.871338)"/>
</clipPath>
</defs>
</svg>
