<?xml version="1.0" encoding="UTF-8"?>
<svg id="Layer_2" data-name="Layer 2" xmlns="http://www.w3.org/2000/svg" viewBox="0 0 1344.83 381.34">
  <defs>
    <style>
      .cls-1 {
        fill: #d39001;
      }

      .cls-2 {
        fill: #5a6873;
      }

      .cls-3 {
        fill: #3b4642;
      }

      .cls-4 {
        fill: #f8a605;
      }

      .cls-5 {
        fill: #f5a705;
      }
    </style>
  </defs>
  <g id="Layer_1-2" data-name="Layer 1">
    <path class="cls-4" d="M480.31,379.91l-1.17-6.36h-.39c-4.15,5.06-10.65,7.79-18.18,7.79-12.85,0-20.52-9.35-20.52-19.48,0-16.49,14.8-24.41,37.26-24.28v-.91c0-3.38-1.82-8.18-11.56-8.18-6.49,0-13.37,2.21-17.53,4.8l-3.64-12.72c4.41-2.47,13.11-5.58,24.67-5.58,21.16,0,27.92,12.46,27.92,27.4v22.07c0,6.1.26,11.95.91,15.45h-17.79ZM477.97,349.92c-10.39-.13-18.44,2.34-18.44,10,0,5.06,3.38,7.53,7.79,7.53,4.93,0,8.96-3.25,10.26-7.27.26-1.04.39-2.21.39-3.38v-6.88Z"/>
    <path class="cls-4" d="M616.25,287.72v73.23c0,7.14.26,14.67.52,18.96h-17.53l-.91-9.35h-.26c-4.03,7.14-11.69,10.78-19.87,10.78-15.06,0-27.14-12.85-27.14-32.59-.13-21.42,13.24-33.76,28.43-33.76,7.79,0,13.89,2.73,16.75,7.14h.26v-34.41h19.74ZM596.51,343.29c0-1.04-.13-2.47-.26-3.51-1.17-5.32-5.45-9.74-11.56-9.74-8.96,0-13.63,8.05-13.63,18.05,0,10.78,5.32,17.53,13.5,17.53,5.71,0,10.26-3.89,11.43-9.48.39-1.43.52-2.86.52-4.54v-8.31Z"/>
    <path class="cls-4" d="M674.03,287.72h19.74c-.03,12.39-.07,24.77-.1,37.16.31-.02.62-.05.92-.07.88-1.58,3.04-4.96,7.23-7.35,4.26-2.43,8.24-2.47,10.26-2.47,12.6,0,22.2,8.7,22.2,27.79v37.13h-19.74v-34.93c0-8.31-2.86-14.02-10.26-14.02-5.19,0-8.44,3.38-9.87,6.88-.52,1.3-.65,2.99-.65,4.41v37.65h-19.74v-92.19Z"/>
    <path class="cls-4" d="M807.25,354.46c.65,8.18,8.7,12.08,17.92,12.08,6.75,0,12.2-.91,17.53-2.6l2.6,13.37c-6.49,2.6-14.41,3.89-22.98,3.89-21.55,0-33.89-12.46-33.89-32.33,0-16.1,10-33.89,32.07-33.89,20.52,0,28.31,15.97,28.31,31.68,0,3.38-.39,6.36-.65,7.79h-40.9ZM830.49,340.96c0-4.8-2.08-12.85-11.17-12.85-8.31,0-11.69,7.53-12.2,12.85h23.37Z"/>
    <path class="cls-4" d="M904.17,362.38c3.63,2.21,11.17,4.8,17.01,4.8s8.44-2.08,8.44-5.32-1.95-4.8-9.35-7.27c-13.11-4.41-18.18-11.56-18.05-19.09,0-11.82,10.13-20.77,25.84-20.77,7.4,0,14.02,1.69,17.92,3.64l-3.51,13.63c-2.86-1.56-8.31-3.64-13.76-3.64-4.8,0-7.53,1.95-7.53,5.19,0,2.99,2.47,4.54,10.26,7.27,12.08,4.15,17.14,10.26,17.27,19.61,0,11.82-9.35,20.51-27.53,20.51-8.31,0-15.71-1.82-20.52-4.41l3.51-14.15Z"/>
    <path class="cls-4" d="M1023.48,298.95c0,5.45-4.15,9.87-10.65,9.87s-10.39-4.41-10.26-9.87c-.13-5.71,4.02-10,10.39-10s10.39,4.28,10.52,10ZM1003.1,380.1v-63.49h19.74v63.49h-19.74Z"/>
    <path class="cls-4" d="M1095.28,316.42l8.57,29.47c1.56,5.32,2.73,10.39,3.63,15.45h.39c1.04-5.19,2.08-10,3.51-15.45l8.18-29.47h20.77l-23.63,63.49h-19.74l-23.11-63.49h21.42Z"/>
    <path class="cls-4" d="M1204.69,354.53c.65,8.18,8.7,12.08,17.92,12.08,6.75,0,12.2-.91,17.53-2.6l2.6,13.37c-6.49,2.6-14.41,3.89-22.98,3.89-21.55,0-33.89-12.46-33.89-32.33,0-16.1,10-33.89,32.07-33.89,20.52,0,28.31,15.97,28.31,31.68,0,3.38-.39,6.36-.65,7.79h-40.9ZM1227.93,341.02c0-4.8-2.08-12.85-11.17-12.85-8.31,0-11.69,7.53-12.2,12.85h23.37Z"/>
    <path class="cls-4" d="M1300.16,362.64c3.63,2.21,11.17,4.8,17.01,4.8s8.44-2.08,8.44-5.32-1.95-4.8-9.35-7.27c-13.11-4.41-18.18-11.56-18.05-19.09,0-11.82,10.13-20.77,25.84-20.77,7.4,0,14.02,1.69,17.92,3.64l-3.51,13.63c-2.86-1.56-8.31-3.64-13.76-3.64-4.8,0-7.53,1.95-7.53,5.19,0,2.99,2.47,4.54,10.26,7.27,12.08,4.15,17.14,10.26,17.27,19.61,0,11.82-9.35,20.51-27.53,20.51-8.31,0-15.71-1.82-20.52-4.41l3.51-14.15Z"/>
    <path class="cls-2" d="M544.81,102.73h-38.4l-66.82,166.59h42.35l11.11-32.19h62.49l12.61,32.19h42.92l-66.26-166.59ZM505.28,203.44l20.05-55.15,20.42,55.15h-40.47Z"/>
    <path class="cls-2" d="M874.76,138.28c-.51-2.23-1.05-3.87-1.2-4.32,0,0-2.38-7.21-7.1-13.17-4.92-6.22-17.86-13.43-33.82-16.58-4.65-.92-11.24-1.83-19.3-1.67h-58.7v166.78h38.78l.19-63.36c7.38.15,19.81-.15,26.4-.17,7.97-.03,10.72-.2,14.13-.84,10.03-1.87,17.15-6.14,19.76-7.82,2.47-1.6,15.45-9.9,19.62-22.61,1.02-3.12,1.69-6.82,1.69-6.82.36-2.01.55-3.78.65-5.79.1-1.85.19-3.71.14-7.25-.1-7.77-.18-11.74-1.24-16.38ZM821.68,173.45h-27.85v-37.58h26.72c10.05.6,17.92,8.97,17.95,18.79.02,9.44-7.21,17.64-16.82,18.79Z"/>
    <polygon class="cls-2" points="885.99 102.16 885.99 268.93 987.42 268.93 987.42 233.91 925.33 233.91 925.33 102.16 885.99 102.16"/>
    <rect class="cls-2" x="1006.81" y="102.54" width="39.06" height="166.78"/>
    <polygon class="cls-2" points="1105.82 168.54 1105.82 136.32 1177.12 136.32 1177.12 102.54 1068.47 102.54 1068.47 269.32 1179.97 269.32 1179.97 234.13 1105.68 234.13 1105.68 200.77 1173.41 200.77 1173.41 168.54 1105.82 168.54"/>
    <path class="cls-2" d="M1344.75,180.96c-.3-8.07-1.21-26.64-13.49-44.15-1.18-1.68-11.17-15.65-27.36-24.03-1.83-.95-3.32-1.62-4.32-2.07-11.29-5.06-22.29-6.54-27.73-7.24-6.18-.79-11.44-.94-15.26-.91-11.54.03-50.53.06-62.07.1,0,55.55.01,111.11.02,166.66,11.55-.03,50.56-.07,62.12-.1,10.5-.03,17.62-1.44,26.15-3.69,8.11-2.14,23.67-6.24,36.6-17.2,26.97-22.85,25.57-61.13,25.34-67.36ZM1305.22,188.3c-.24,5.67-.72,17.34-8.66,27.39-3.28,4.16-6.94,6.9-9.04,8.47-7.61,5.71-14.82,8.09-17.92,8.99-5.01,1.45-8.62,2.18-15.56,2.2-6.87.02-13.75.04-20.62.06,0-33.05,0-66.11-.01-99.16,3.25.03,7.96.08,13.65.2,13.24.28,16.1.58,19.11,1.13,3.68.67,8.74,1.64,14.49,4.52,3.3,1.65,10.14,5.58,15.72,12.89,9.71,12.72,9.1,27.15,8.85,33.32Z"/>
    <g>
      <path class="cls-5" d="M189.93,0C85.03,0,0,85.03,0,189.93s85.03,189.93,189.93,189.93h87.13v-102.73h-87.2c-48.16,0-87.2-39.04-87.2-87.2s39.04-87.2,87.2-87.2,87.2,39.04,87.2,87.2v87.2h102.73v102.73h.07v-189.93C379.86,85.03,294.82,0,189.93,0Z"/>
      <rect class="cls-1" x="277.06" y="277.13" width="102.73" height="102.73"/>
    </g>
    <polygon class="cls-3" points="598.12 236.82 555.54 237.13 544.05 203.44 584.86 203.44 598.12 236.82"/>
    <rect class="cls-3" x="754.64" y="173.45" width="38.96" height="32.51"/>
    <rect class="cls-3" x="885.99" y="233.91" width="39.34" height="35.03"/>
    <rect class="cls-3" x="1068.47" y="168.59" width="37.2" height="32.19"/>
    <rect class="cls-3" x="1194.52" y="235.4" width="38.9" height="33.91"/>
    <path class="cls-2" d="M740.08,138.28c-.51-2.23-1.05-3.87-1.2-4.32,0,0-2.38-7.21-7.1-13.17-4.92-6.22-17.86-13.43-33.82-16.58-4.65-.92-11.24-1.83-19.3-1.67h-58.7v166.78h38.78l.19-63.36c7.38.15,19.81-.15,26.4-.17,7.97-.03,10.72-.2,14.13-.84,10.03-1.87,17.15-6.14,19.76-7.82,2.47-1.6,15.45-9.9,19.62-22.61,1.02-3.12,1.69-6.82,1.69-6.82.36-2.01.55-3.78.65-5.79.1-1.85.19-3.71.14-7.25-.1-7.77-.18-11.74-1.24-16.38ZM686.99,173.45h-27.85v-37.58h26.72c10.05.6,17.92,8.97,17.95,18.79.02,9.44-7.21,17.64-16.82,18.79Z"/>
    <rect class="cls-3" x="619.96" y="173.45" width="38.96" height="32.51"/>
    <path class="cls-3" d="M411.39,80.35c1.93,0,1.93-3,0-3s-1.93,3,0,3h0Z"/>
  </g>
</svg>