<svg width="368" height="110" viewBox="0 0 368 110" fill="none" xmlns="http://www.w3.org/2000/svg">
<path d="M57.6277 1.44049C57.6277 1.44049 75.1017 3.31971 81.4153 13.8478C86.2945 21.9801 84.7623 33.0246 73.6129 36.7831C73.6129 36.7831 92.9451 49.564 88.1093 61.5976C83.2736 73.6312 42.751 87.9177 2.0437 70.7299C2.0437 70.7299 54.2807 67.6089 57.9972 60.092C61.7137 52.5751 56.139 46.9374 43.1313 46.5528C30.1237 46.1792 27.5156 46.5528 27.5156 46.5528L29.6021 62.5427C29.6021 62.5427 22.4734 59.5095 14.9318 58.6304C10.835 58.1578 6.60779 53.762 2.08717 52.2784L22.3104 35.6511C22.3104 35.6511 55.7695 33.7719 57.9972 26.6287C60.2249 19.4854 43.1313 16.4743 28.2546 22.1229L24.5381 30.3981L19.3329 27.7716L20.0718 11.9795L57.6277 1.44049Z" fill="#3D1152"/>
<path d="M113.234 20.7054C113.234 20.7054 111.256 43.6407 116.45 48.9047C121.655 54.1687 133.555 59.4327 143.215 42.8824C152.876 26.343 159.559 19.7493 159.559 19.7493C159.559 19.7493 163.786 57.4216 161.559 72.84C161.559 72.84 153.256 72.9719 144.704 73.7192C144.704 73.7192 139.868 71.84 138.76 66.576C138.76 66.576 129.469 74.8401 117.2 73.7192C104.931 72.5873 90.8043 64.3231 90.8043 52.6631C90.8043 41.0032 113.234 20.7054 113.234 20.7054Z" fill="#3D1152"/>
<path d="M185.596 17.1887L197.126 24.8264L213.546 17.6942C213.546 17.6942 216.827 34.5962 213.85 41.7394C213.85 41.7394 201.212 33.8379 195.637 38.7283C190.062 43.6187 187.824 64.2901 192.659 74.0708C192.659 74.0708 179.706 75.3237 165.742 69.8069L185.596 17.1777V17.1887Z" fill="#3D1152"/>
<path d="M240.148 8.32001L240.246 38.3766L294.645 18.1997C294.645 18.1997 279.649 34.9918 273.705 40.2558C273.705 40.2558 291.179 64.312 294.145 74.4664C294.145 74.4664 278.627 77.005 265.989 75.1258L248.798 53.795L242.484 57.5534L246.201 73.3455C246.201 73.3455 233.617 74.5983 220.761 69.8398L240.148 8.331V8.32001Z" fill="#3D1152"/>
<path d="M331.94 18.991C331.94 18.991 360.726 21.4416 360.726 47.0254V52.2895C360.726 52.2895 311.934 51.729 300.035 48.7178L332.842 42.8934C332.842 42.8934 329.875 25.9804 313.51 30.4861L331.929 19.002L331.94 18.991Z" fill="#3D1152"/>
<path d="M354.282 52.784C354.282 52.784 358.77 69.7629 336.841 75.027C314.912 80.291 299.274 74.8291 289.516 59.4217L319.465 66.2023L337.308 65.0704L351.338 54.8281L354.282 52.795V52.784Z" fill="#3D1152"/>
<path d="M159.559 19.7381C156.179 19.1777 152.104 18.8919 148.377 18.7491C149.627 41.4866 141.172 51.7399 132.055 58.4765C122.394 65.6197 112.168 55.2785 112.168 55.2785C113.32 55.2236 114.418 54.9269 115.461 54.4763C106.061 45.8604 113.212 20.6942 113.212 20.6942L96.2268 20.0239C95.7704 29.8925 95.4227 51.7179 100.291 65.7077C104.399 68.7188 109.626 70.7409 115.765 71.2794C132.229 72.741 140.151 62.2459 140.151 62.2459C140.325 66.2022 143.422 69.8178 143.422 69.8178H157.798C159.776 51.2673 159.548 19.7381 159.548 19.7381H159.559Z" fill="#691F74"/>
<path d="M182.064 26.5298C182.064 26.5298 183.216 25.0242 185.596 23.134V17.1996C185.596 17.1996 178.489 17.0128 171.469 18.1227C171.534 30.5849 172.045 55.85 174.859 70.2464L187.585 70.8289C187.585 70.8289 184.118 51.2784 187.585 42.2559C191.051 33.2334 207.906 32.2334 210.883 38.2447C210.883 38.2447 212.285 28.0793 213.176 20.7932C206.721 21.2108 192.051 23.3977 181.325 34.2335L182.075 26.5298H182.064Z" fill="#691F74"/>
<path d="M257.719 36.6731C257.719 36.6731 264.229 33.9587 270.716 35.3543L294.645 18.1886C294.645 18.1886 284.05 16.6171 274.465 15.9577C263.957 23.9142 233.551 45.1351 233.551 45.1351L233.932 38.7391C233.932 38.7391 235.279 37.4643 237.453 35.4752C238.05 29.8486 239.42 16.8698 240.159 8.30893C240.159 8.30893 238.855 8.04518 236.725 7.78143C232.682 8.70456 227.325 10.6497 224.641 14.6719C224.641 14.6719 225.662 53.2674 227.314 69.8067H241.593L240.278 56.861L250.189 49.8386L264.424 71.3123C267.902 72.3563 279.747 72.9168 286.625 73.1696C280.703 64.3999 268.847 47.6297 257.741 36.6621L257.719 36.6731Z" fill="#691F74"/>
<path d="M306.425 48.2012C306.294 51.7289 306.718 55.3335 310.326 58.0149C308.62 57.5973 306.783 57.0808 304.773 56.4214C304.773 56.4214 329.234 77.6204 341.383 53.3993L354.272 52.7949C354.272 52.7949 349.316 72.8509 320.074 73.3454C310.75 73.5103 303.447 71.1585 297.949 67.5759C291.591 55.6741 283.55 32.1674 313.684 26.1561C339.536 21.0019 351.338 32.0025 356.206 39.4425C357.38 44.5307 356.651 48.454 356.651 48.454C356.651 48.454 326.398 49.1024 306.403 48.2122M308.24 43.2559C320.182 43.7174 342.677 41.5745 342.677 41.5745L342.296 35.5632L337.232 35.6401C335.939 32.6729 332.244 27.7386 322.051 28.7716C312.706 29.7167 308.881 32.4201 307.479 36.0577C306.088 39.6953 308.229 43.2559 308.229 43.2559H308.24Z" fill="#691F74"/>
<path d="M57.1605 39.4096C57.1605 39.4096 63.7458 37.1567 69.3422 35.9918C67.6687 35.0467 66.5494 34.5192 66.5494 34.5192C81.1219 32.3103 82.0239 19.2546 75.1777 10.3091C65.2346 7.90238 41.9034 3.74831 6.32525 6.31988C6.32525 6.31988 6.50999 26.255 11.8456 55.0917C11.813 55.0917 13.4757 63.0262 14.2581 65.9714C14.2581 65.9714 8.19435 66.2462 2.03284 63.6856L2.05457 70.7189C2.05457 70.7189 38.4043 79.8843 66.6147 69.7958C71.1135 66.7077 77.9705 60.8063 77.3402 53.8829C76.4166 43.6406 57.1713 39.4096 57.1713 39.4096H57.1605ZM18.2245 22.3647L23.4514 22.6175C23.408 19.2107 23.4297 16.9798 23.4297 16.9798C57.5517 11.463 60.3445 22.8263 53.2919 27.0463C45.0765 35.838 18.2245 34.3983 18.2245 34.3983V22.3647ZM56.6389 54.0697C52.2378 57.7842 38.8824 58.0369 26.4833 57.3336C25.6791 52.5312 24.6685 45.7506 24.4403 43.4208C47.7389 40.7063 65.4302 46.6517 56.6389 54.0587V54.0697Z" fill="#691F74"/>
<path d="M75.1777 10.3201C72.7109 7.10019 69.2552 4.40774 65.0606 2.94612C49.195 -2.57066 2.04363 1.35263 2.04363 1.35263C-0.803491 12.5181 2.0219 63.6966 2.0219 63.6966C8.19428 66.2572 14.2471 65.9825 14.2471 65.9825C13.5299 63.279 11.4761 52.8169 11.4869 52.8169C7.95521 32.1125 6.32518 6.33092 6.32518 6.33092C41.9033 3.75935 65.2345 7.91342 75.1777 10.3201Z" fill="#863399"/>
<path d="M23.5384 27.1343C23.4949 25.4859 23.4732 23.9693 23.4515 22.6286L18.2245 22.3758V34.4094C18.2245 34.4094 45.0874 35.86 53.2919 27.0574C52.6616 27.442 51.9552 27.7607 51.1837 28.0135C42.7619 30.7059 26.7984 27.7827 23.5384 27.1343Z" fill="#863399"/>
<path d="M96.2486 20.024L89.0656 19.7382C89.0656 19.7382 90.4239 30.7168 89.924 44.256C89.6089 52.74 93.3906 60.6415 100.302 65.7077C95.4444 51.718 95.7813 29.8926 96.2377 20.024H96.2486Z" fill="#863399"/>
<path d="M132.066 58.4876C141.183 51.7509 149.627 41.4976 148.388 18.7601C142.52 18.5403 137.521 18.6942 137.521 18.6942C140.498 43.7615 131.577 62.3009 118.189 56.2896C117.156 55.8281 116.265 55.2017 115.483 54.4873C114.44 54.9379 113.342 55.2346 112.19 55.2896C112.19 55.2896 122.416 65.6308 132.077 58.4876H132.066Z" fill="#863399"/>
<path d="M164.547 19.7822C164.547 19.7822 164.742 57.2897 165.731 69.8288L174.849 70.2464C172.034 55.85 171.523 30.585 171.458 18.1227C169.046 18.5074 166.644 19.0349 164.547 19.7822Z" fill="#863399"/>
<path d="M185.596 26.7167V23.134C183.216 25.0243 182.064 26.5298 182.064 26.5298L181.314 34.2335C192.04 23.3868 206.71 21.2109 213.165 20.7933C213.307 19.6833 213.426 18.6393 213.535 17.7052C213.535 17.7052 192.388 16.7381 185.585 26.7167H185.596Z" fill="#863399"/>
<path d="M236.714 7.79254C232.791 7.31998 226.053 6.86941 219.305 8.16618C219.305 8.16618 220.261 59.3008 220.761 69.8178H227.303C225.651 53.2675 224.63 14.683 224.63 14.683C227.314 10.6608 232.671 8.71566 236.714 7.79254Z" fill="#863399"/>
<path d="M233.552 45.1352C233.552 45.1352 263.957 23.9253 274.465 15.9578C271.966 15.782 269.532 15.6831 267.38 15.6831C267.38 15.6831 247.059 27.7167 237.138 38.2448C237.138 38.2448 237.257 37.2007 237.431 35.4754C235.258 37.4645 233.91 38.7393 233.91 38.7393L233.53 45.1352H233.552Z" fill="#863399"/>
<path d="M267.38 37.7392L270.716 35.3435C264.218 33.9478 257.719 36.6622 257.719 36.6622C268.836 47.6299 280.692 64.4 286.604 73.1697C289.603 73.2796 291.668 73.3235 291.668 73.3235C287.201 63.301 267.38 37.7392 267.38 37.7392Z" fill="#863399"/>
<path d="M338.928 20.7053C310.13 10.518 290.211 27.1782 285.397 39.7503C282.768 46.6078 286.212 59.9162 297.97 67.576C291.613 55.6743 283.572 32.1675 313.706 26.1562C339.558 21.0021 351.359 32.0026 356.228 39.4426C354.804 33.2664 350.783 24.9034 338.928 20.7163V20.7053Z" fill="#863399"/>
<path d="M306.892 38.2667C306.685 39.5525 306.642 40.8933 306.707 42.256C306.718 42.5527 306.718 42.8604 306.707 43.1681C318.117 43.9044 342.698 41.5636 342.698 41.5636L342.318 35.5523L337.254 35.6292C337.786 36.8491 337.917 37.7502 337.917 37.7502C331.169 39.4536 315.933 38.8382 306.881 38.2667H306.892Z" fill="#863399"/>
<path d="M341.394 53.3884L332.973 53.784C332.973 53.784 329.995 64.312 316.618 60.8063C313.847 60.081 311.826 59.1249 310.337 58.015C308.631 57.5974 306.794 57.0809 304.784 56.4215C304.784 56.4215 329.245 77.6204 341.394 53.3994V53.3884Z" fill="#863399"/>
<path d="M69.3423 35.9919C63.7458 37.1568 57.1605 39.4096 57.1605 39.4096C57.1605 39.4096 76.3949 43.6406 77.3294 53.883C77.9597 60.8174 71.1027 66.7078 66.6038 69.7959C69.1358 68.8838 71.6135 67.8398 73.9824 66.5979C97.694 54.2017 77.2425 40.4317 69.3423 35.9919Z" fill="#863399"/>
<path d="M20.8324 94.5116C20.8324 96.9403 19.3002 98.9294 16.2249 100.457C14.5188 101.292 11.9325 102.105 8.44419 102.875L8.97667 108.6L3.88011 109.007L1.92407 86.4232C5.11893 86.1045 7.49878 85.9507 9.07447 85.9507C12.2476 85.9507 14.7035 86.3903 16.4422 87.2694C18.6373 88.4014 20.05 90.3795 20.6694 93.2148C20.7781 93.6324 20.8216 94.061 20.8216 94.5006L20.8324 94.5116ZM15.7359 94.3577C15.7359 92.1598 13.7364 91.0499 9.73735 91.0499C9.17227 91.0499 8.41159 91.0828 7.45531 91.1488L8.02039 97.6876C13.1604 96.5776 15.7359 95.4677 15.7359 94.3577Z" fill="#3D1152"/>
<path d="M39.3605 105.743C36.6004 106.798 33.9923 107.49 31.5255 107.853C29.5152 108.172 26.831 108.325 23.4732 108.325L22.2887 86.7199L27.3635 86.4342L28.3307 103.105C31.1887 102.919 34.264 102.193 37.5349 100.929L39.3714 105.743H39.3605Z" fill="#3D1152"/>
<path d="M60.6053 107.633L55.563 108.446C55.1718 106.183 54.6176 103.853 53.9113 101.468L46.6957 102.699L45.6742 108.633L40.5994 108.227C41.1753 104.721 41.7621 101.215 42.3381 97.6875C43.0444 93.5335 43.7073 90.0388 44.3267 87.2145L54.096 85.2363C55.3022 88.9288 56.4976 92.6323 57.7038 96.3358C59.1165 100.721 60.0728 104.479 60.5944 107.633H60.6053ZM52.3682 96.5007C52.1834 95.9072 51.5966 94.1489 50.6186 91.2037L48.6082 91.6103L47.5868 97.3469L52.3573 96.5007H52.3682Z" fill="#3D1152"/>
<path d="M78.916 86.6979L71.896 93.3027L72.548 107.842L67.4514 108.029L66.7994 93.4456L57.8451 87.0057L60.8009 82.7966L69.201 88.8409L75.4494 82.9615L78.9268 86.6979H78.916Z" fill="#3D1152"/>
<path d="M106.681 90.9289L100.182 91.7422L101.182 108.446L96.0857 108.732L95.1185 92.3466L89.5873 93.006L89.0548 87.9068L106.105 85.8627L106.692 90.9289H106.681Z" fill="#3D1152"/>
<path d="M127.589 106.15L122.492 106.589C122.416 105.776 122.199 103.182 121.84 98.8195L114.929 99.7646C115.059 101.446 115.255 103.589 115.516 106.183L110.419 106.589C109.658 98.7535 109.093 91.7202 108.735 85.4781L113.864 85.1924C113.962 87.9178 114.179 91.0718 114.483 94.6434L121.416 93.6983C121.123 90.3245 120.906 87.1046 120.764 84.0604L125.839 83.7747C126.002 86.7529 126.274 90.4894 126.654 94.9731C127.252 102.083 127.567 105.809 127.589 106.139V106.15Z" fill="#3D1152"/>
<path d="M149.301 107.633L144.258 108.446C143.867 106.183 143.313 103.853 142.607 101.468L135.391 102.699L134.37 108.633L129.295 108.227C129.871 104.721 130.457 101.215 131.033 97.6875C131.74 93.5335 132.403 90.0388 133.022 87.2145L142.791 85.2363C143.998 88.9288 145.193 92.6323 146.399 96.3358C147.812 100.721 148.779 104.479 149.29 107.633H149.301ZM141.053 96.5007C140.868 95.9072 140.281 94.1489 139.314 91.2037L137.304 91.6103L136.282 97.3469L141.053 96.5007Z" fill="#3D1152"/>
<path d="M164.699 89.6651L158.201 90.4783L159.2 107.183L154.093 107.468L153.126 91.0827L147.594 91.7421L147.062 86.6429L164.112 84.5989L164.699 89.6541V89.6651Z" fill="#3D1152"/>
<path d="M201.364 105.93L196.756 108.095C194.866 104.007 193.453 100.358 192.497 97.1491C191.769 99.5558 190.682 102.314 189.237 105.424C188.345 105.259 187.009 104.996 185.227 104.633C183.738 101.358 182.575 98.3689 181.738 95.6655C180.706 99.1931 179.945 103.007 179.467 107.117L174.425 106.49C175.338 99.347 177.142 92.4015 179.837 85.6319L184.412 85.9836C185.509 90.5223 186.487 93.9731 187.335 96.3358C188.498 92.4345 189.324 88.4343 189.823 84.3242L194.703 84.2253C196.072 92.0059 198.289 99.2371 201.364 105.93Z" fill="#3D1152"/>
<path d="M225.749 95.6874C225.749 99.3799 224.347 102.523 221.555 105.106C218.838 107.644 215.643 108.919 211.97 108.919C208.862 108.919 206.308 107.82 204.298 105.611C202.298 103.402 201.299 100.71 201.299 97.5117C201.299 94.006 202.701 90.9069 205.504 88.2145C208.243 85.566 211.351 84.2473 214.839 84.2473C217.947 84.2473 220.544 85.3572 222.63 87.5881C224.717 89.808 225.76 92.5114 225.76 95.6874H225.749ZM220.653 95.6984C220.653 93.9291 220.109 92.4345 219.033 91.2256C217.958 90.0168 216.556 89.4124 214.839 89.4124C212.763 89.4124 210.862 90.2476 209.112 91.907C207.308 93.5884 206.406 95.4786 206.406 97.5666C206.406 99.4459 206.895 100.929 207.873 102.017C208.884 103.182 210.296 103.754 212.1 103.754C214.317 103.754 216.295 102.974 218.045 101.402C219.783 99.8305 220.663 97.9293 220.663 95.6984H220.653Z" fill="#3D1152"/>
<path d="M245.864 86.1814C242.375 93.7313 239.833 100.699 238.213 107.073L233.823 107.611C230.194 100.94 227.466 93.6654 225.641 85.7858L230.585 84.555C231.813 89.863 233.367 94.6654 235.247 98.9623C236.801 94.2698 238.811 89.2695 241.278 83.9945L245.853 86.1924L245.864 86.1814Z" fill="#3D1152"/>
<path d="M262.762 105.369C261.055 105.721 259.36 106.095 257.665 106.468C255.818 106.831 254.09 107.007 252.471 107.007C251.123 107.007 249.797 106.919 248.493 106.754C248.243 101.831 247.798 94.4566 247.157 84.6429C248.341 84.6209 252.916 84.4121 260.871 84.0165L261.121 89.1706L252.568 89.5772L252.786 93.6104L261.153 92.8851L261.555 98.0392L253.068 98.7645L253.22 101.556H253.775C255.263 101.578 257.948 101.149 261.794 100.27L262.762 105.369Z" fill="#3D1152"/>
<path d="M284.713 99.4789C284.713 102.336 282.615 104.754 278.432 106.743C276.313 107.754 273.759 108.38 270.749 108.633L270.281 103.501C272.042 103.336 273.704 102.985 275.258 102.468C277.356 101.776 278.736 100.897 279.399 99.8195C279.334 99.4679 278.421 99.2481 276.66 99.1602H273.422C267.163 99.1602 264.033 97.3359 264.033 93.6873C264.033 91.6762 265.098 89.874 267.239 88.2805C268.814 87.0826 270.781 86.1045 273.15 85.3572C275.182 84.7088 277.334 84.3792 279.616 84.3792C280.67 84.3792 281.811 84.4451 283.039 84.566L282.507 89.7201C281.529 89.5992 280.594 89.5333 279.703 89.5333C275.78 89.5333 272.553 90.5663 269.999 92.6104C269.814 92.7532 269.586 93.028 269.314 93.4236C269.542 93.7753 270.607 93.9731 272.52 93.9951C275.335 94.017 277.247 94.094 278.247 94.2148C280.551 94.5116 282.224 95.16 283.256 96.16C284.234 97.0831 284.713 98.1821 284.713 99.4679V99.4789Z" fill="#3D1152"/>
<path d="M315.705 88.5881L308.685 95.1929L309.337 109.732L304.241 109.919L303.589 95.3358L294.634 88.8958L297.579 84.6868L305.979 90.7311L312.228 84.8517L315.705 88.5881Z" fill="#3D1152"/>
<path d="M339.873 95.6874C339.873 99.3799 338.471 102.523 335.678 105.106C332.962 107.644 329.767 108.919 326.094 108.919C322.986 108.919 320.432 107.82 318.422 105.611C316.422 103.402 315.423 100.71 315.423 97.5117C315.423 94.006 316.824 90.9069 319.617 88.2145C322.356 85.566 325.464 84.2473 328.952 84.2473C332.06 84.2473 334.657 85.3572 336.743 87.5881C338.83 89.808 339.873 92.5114 339.873 95.6874ZM334.777 95.6984C334.777 93.9291 334.233 92.4345 333.157 91.2256C332.082 90.0168 330.68 89.4124 328.963 89.4124C326.887 89.4124 324.985 90.2476 323.236 91.907C321.432 93.5884 320.53 95.4786 320.53 97.5666C320.53 99.4459 321.019 100.929 321.997 102.017C323.008 103.182 324.42 103.754 326.224 103.754C328.441 103.754 330.419 102.974 332.168 101.402C333.907 99.8305 334.787 97.9293 334.787 95.6984H334.777Z" fill="#3D1152"/>
<path d="M362.107 100.138C362.107 103.677 360.9 105.798 358.499 106.49C357.01 106.93 354.576 107.15 351.218 107.15C347.86 107.15 345.524 106.633 344.339 105.6C343.035 104.468 342.383 102.204 342.383 98.8195C342.383 97.0282 342.601 94.6324 343.035 91.6323C343.579 88.1046 343.883 85.7089 343.97 84.467L349.012 84.5879C348.99 86.2693 348.686 88.8409 348.11 92.2916C347.534 95.7424 347.241 98.3579 347.241 100.127C347.241 100.842 347.306 101.292 347.425 101.479C347.675 101.82 348.599 101.984 350.196 101.984C350.838 101.984 352.055 101.952 353.837 101.886C355.804 101.82 356.814 101.754 356.858 101.699C357.021 101.446 357.108 100.907 357.108 100.061C357.108 98.1381 356.804 95.6325 356.206 92.5554C355.315 88.0606 354.826 85.566 354.75 85.0825L359.879 84.4561C359.944 85.2693 360.161 86.599 360.531 88.4233C361.585 93.5994 362.117 97.5007 362.117 100.127L362.107 100.138Z" fill="#3D1152"/>
<path d="M367.594 104.105C367.594 104.743 367.366 105.281 366.921 105.71C366.475 106.15 365.932 106.369 365.302 106.369C364.617 106.369 364.019 106.128 363.508 105.644C362.987 105.149 362.737 104.556 362.737 103.864C362.737 103.237 362.965 102.699 363.411 102.259C363.856 101.82 364.4 101.6 365.019 101.6C365.714 101.6 366.312 101.842 366.823 102.336C367.334 102.831 367.594 103.413 367.594 104.116V104.105ZM366.997 104.105C366.997 103.578 366.801 103.127 366.41 102.765C366.019 102.391 365.551 102.204 365.03 102.204C364.563 102.204 364.161 102.369 363.835 102.688C363.498 103.007 363.335 103.402 363.335 103.875C363.335 104.402 363.53 104.864 363.932 105.237C364.324 105.611 364.78 105.787 365.312 105.787C365.78 105.787 366.182 105.622 366.508 105.303C366.834 104.974 366.997 104.578 366.997 104.105ZM366.29 104.523L366.138 105.106L364.932 104.787L364.976 105.204L364.389 105.27L364.128 102.754C364.541 102.721 364.813 102.699 364.954 102.699C365.812 102.699 366.236 103.007 366.236 103.611C366.236 103.897 366.04 104.149 365.649 104.369L366.301 104.545L366.29 104.523ZM365.638 103.578C365.638 103.391 365.432 103.292 365.008 103.292C364.954 103.292 364.878 103.292 364.78 103.292L364.856 104.051C365.367 103.853 365.628 103.699 365.628 103.578H365.638Z" fill="#3D1152"/>
<path d="M363.878 65.444C363.878 66.6859 363.443 67.7299 362.563 68.5871C361.683 69.4442 360.629 69.8728 359.401 69.8728C358.053 69.8728 356.89 69.4003 355.912 68.4552C354.902 67.4881 354.402 66.3342 354.402 64.9715C354.402 63.7406 354.837 62.6856 355.706 61.8284C356.575 60.9713 357.629 60.5317 358.857 60.5317C360.205 60.5317 361.379 61.0152 362.378 61.9603C363.378 62.9164 363.878 64.0703 363.878 65.433V65.444ZM362.715 65.444C362.715 64.422 362.335 63.5428 361.563 62.8175C360.792 62.0922 359.89 61.7295 358.868 61.7295C357.955 61.7295 357.184 62.0482 356.532 62.6746C355.88 63.3011 355.565 64.0813 355.565 64.9935C355.565 66.0375 355.956 66.9166 356.738 67.6529C357.499 68.3783 358.401 68.7299 359.433 68.7299C360.346 68.7299 361.118 68.4112 361.77 67.7848C362.411 67.1474 362.737 66.3781 362.737 65.455L362.715 65.444ZM361.324 66.2573L361.031 67.3892L358.673 66.7628L358.76 67.576L357.608 67.6969L357.097 62.7736C357.89 62.7076 358.423 62.6746 358.694 62.6746C360.368 62.6746 361.205 63.2681 361.205 64.444C361.205 65.0044 360.824 65.499 360.064 65.9166L361.324 66.2463V66.2573ZM360.042 64.411C360.042 64.0374 359.629 63.8505 358.814 63.8505C358.716 63.8505 358.564 63.8505 358.379 63.8505L358.531 65.3231C359.542 64.9385 360.042 64.6308 360.042 64.4V64.411Z" fill="#3D1152"/>
</svg>
