<svg width="386" height="144" viewBox="0 0 386 144" fill="none" xmlns="http://www.w3.org/2000/svg">
<g clip-path="url(#clip0_3281_918)">
<mask id="mask0_3281_918" style="mask-type:luminance" maskUnits="userSpaceOnUse" x="0" y="0" width="386" height="144">
<path d="M385.916 0H0.670898V143.402H385.916V0Z" fill="white"/>
</mask>
<g mask="url(#mask0_3281_918)">
<path d="M148.705 79.3041C148.517 79.1116 148.142 79.0154 147.766 79.3041C146.358 80.459 144.762 81.1327 143.073 81.1327C139.224 81.1327 136.22 77.9567 136.22 73.9145C136.22 69.7761 139.224 66.6 143.073 66.6C144.762 66.6 146.452 67.2737 147.766 68.4287C147.954 68.6211 148.048 68.6212 148.236 68.6212C148.423 68.6212 148.517 68.5249 148.705 68.4287L150.582 66.4076C150.676 66.3113 150.77 66.1188 150.77 65.9264C150.77 65.7339 150.676 65.5414 150.488 65.4451C148.236 63.424 145.889 62.4616 142.885 62.4616C136.689 62.4616 131.62 67.6587 131.62 74.0108C131.62 77.0905 132.747 79.9778 134.906 82.1914C137.065 84.3087 139.881 85.5599 142.885 85.5599C145.795 85.5599 148.423 84.5012 150.488 82.4801C150.676 82.2876 150.676 82.0951 150.676 81.9027C150.676 81.7102 150.582 81.6139 150.488 81.5177L148.705 79.3041Z" fill="#071689"/>
<path d="M191.698 71.7009H184.188C183.813 71.7009 183.531 71.9896 183.531 72.3746V74.9732C183.531 75.3581 183.813 75.6469 184.188 75.6469H188.131V80.2665C187.567 80.5553 186.253 81.0365 184.564 81.0365C180.809 81.0365 177.711 77.8604 177.711 73.8182C177.711 69.7761 180.809 66.5038 184.564 66.5038C186.253 66.5038 187.849 67.1775 189.163 68.3324C189.445 68.6211 189.82 68.6211 190.102 68.3324L191.979 66.3113C192.073 66.2151 192.167 66.0226 192.167 65.8301C192.167 65.6376 192.073 65.4451 191.979 65.3489C189.82 63.424 187.098 62.3654 184.376 62.3654C178.18 62.3654 173.205 67.5625 173.205 73.9145C173.205 76.9943 174.332 79.8816 176.491 82.0951C178.556 84.2125 181.372 85.4636 184.47 85.4636C188.975 85.4636 192.167 83.4425 192.167 83.3463C192.355 83.2501 192.449 82.9613 192.449 82.7688V72.3746C192.355 71.9896 192.073 71.7009 191.698 71.7009Z" fill="#071689"/>
<path d="M207.186 62.6541H194.608C194.232 62.6541 193.951 62.9428 193.951 63.3278V84.3087C193.951 84.6937 194.232 84.9824 194.608 84.9824H207.186C207.562 84.9824 207.843 84.6937 207.843 84.3087V81.8064C207.843 81.4214 207.562 81.1327 207.186 81.1327H198.081V75.7431H205.684C206.06 75.7431 206.341 75.4544 206.341 75.0694V72.4709C206.341 72.0859 206.06 71.7972 205.684 71.7972H198.081V66.7925H207.186C207.562 66.7925 207.843 66.5038 207.843 66.1188V63.5203C207.843 62.9428 207.562 62.6541 207.186 62.6541Z" fill="#071689"/>
<path d="M226.993 62.6541H224.177C223.801 62.6541 223.52 62.9428 223.52 63.3278V76.2243L210.753 62.3654H209.909C209.533 62.3654 209.251 62.6541 209.251 63.0391V84.405C209.251 84.7899 209.533 85.0787 209.909 85.0787H212.725C213.1 85.0787 213.382 84.7899 213.382 84.405V70.931L226.242 85.3674H226.993C227.369 85.3674 227.65 85.0787 227.65 84.6937V63.3278C227.65 62.9428 227.369 62.6541 226.993 62.6541Z" fill="#071689"/>
<path d="M245.861 79.3041C245.673 79.1116 245.298 79.0154 244.922 79.3041C243.514 80.459 241.918 81.1327 240.229 81.1327C236.38 81.1327 233.376 77.9567 233.376 73.9145C233.376 69.7761 236.38 66.6 240.229 66.6C241.918 66.6 243.608 67.2737 244.922 68.4287C245.11 68.6211 245.204 68.6212 245.392 68.6212C245.579 68.6212 245.673 68.5249 245.861 68.4287L247.738 66.4076C247.832 66.3113 247.926 66.1188 247.926 65.9264C247.926 65.7339 247.832 65.5414 247.645 65.4451C245.392 63.424 243.045 62.4616 240.041 62.4616C233.846 62.4616 228.777 67.6587 228.777 74.0108C228.777 77.0905 229.903 79.9778 232.062 82.1914C234.221 84.3087 237.037 85.5599 240.041 85.5599C242.951 85.5599 245.579 84.5012 247.645 82.4801C247.832 82.2876 247.832 82.0951 247.832 81.9027C247.832 81.7102 247.738 81.6139 247.645 81.5177L245.861 79.3041Z" fill="#071689"/>
<path d="M266.137 63.0391C266.043 62.8466 265.762 62.6541 265.574 62.6541H262.382C262.195 62.6541 262.007 62.7503 261.819 62.9428L256.938 70.161L252.057 62.9428C251.869 62.7503 251.681 62.6541 251.493 62.6541H248.302C248.02 62.6541 247.832 62.7503 247.738 63.0391C247.645 63.2315 247.645 63.5203 247.738 63.809L254.779 74.3957V84.5012C254.779 84.8862 255.06 85.1749 255.436 85.1749H258.252C258.627 85.1749 258.909 84.8862 258.909 84.5012V74.2995L266.043 63.7128C266.231 63.5203 266.231 63.2315 266.137 63.0391Z" fill="#071689"/>
<path d="M282.001 72.6633H276.651C276.275 72.6633 275.994 72.9521 275.994 73.337V74.492C275.994 74.8769 276.275 75.1656 276.651 75.1656H280.124V81.6139C279.842 81.8064 277.683 82.8651 274.679 82.8651C269.986 82.8651 266.137 78.8229 266.137 73.8182C266.137 68.8136 269.986 64.7714 274.679 64.7714C276.557 64.7714 278.81 65.7339 280.499 67.1775C280.687 67.37 280.875 67.4662 280.969 67.4662C281.063 67.4662 281.25 67.37 281.344 67.1775C281.532 66.985 281.72 66.7925 281.907 66.6C282.001 66.5038 282.095 66.4076 282.189 66.3113C282.471 66.0226 282.471 65.5414 282.189 65.2526C279.842 63.2315 277.496 62.2691 274.586 62.2691C268.39 62.2691 263.321 67.4662 263.321 73.8182C263.321 76.898 264.447 79.7853 266.607 81.9989C268.766 84.1162 271.582 85.3674 274.586 85.3674C279.091 85.3674 282.283 83.25 282.283 83.25C282.471 83.1538 282.565 82.8651 282.565 82.6726V73.2408C282.658 72.9521 282.283 72.6633 282.001 72.6633Z" fill="#071689"/>
<path d="M295.237 82.7688H286.413V63.3278C286.413 62.9428 286.132 62.6541 285.756 62.6541H284.536C284.16 62.6541 283.879 62.9428 283.879 63.3278V84.3087C283.879 84.6937 284.16 84.9824 284.536 84.9824H295.237C295.612 84.9824 295.894 84.6937 295.894 84.3087V83.3463C295.894 83.0576 295.612 82.7688 295.237 82.7688Z" fill="#071689"/>
<path d="M304.906 62.3654C301.902 62.3654 299.086 63.5203 296.927 65.7339C294.862 67.9474 293.641 70.8347 293.641 73.9145C293.641 80.3628 298.523 85.3674 304.812 85.3674C307.816 85.3674 310.632 84.2125 312.791 81.9989C314.95 79.8815 316.076 76.898 316.076 73.8183C316.076 67.5625 311.101 62.3654 304.906 62.3654ZM313.73 73.9145C313.73 78.9191 309.787 82.9613 304.812 82.9613C299.931 82.9613 295.988 78.9191 295.988 73.9145C295.988 68.9099 299.931 64.7714 304.812 64.7714C309.787 64.7714 313.73 68.9099 313.73 73.9145Z" fill="#071689"/>
<path d="M327.998 73.6258C329.406 72.7596 330.908 70.931 330.908 68.5249C330.908 65.0601 328.186 62.5578 324.431 62.5578H317.672C317.297 62.5578 317.015 62.8466 317.015 63.2315V84.2125C317.015 84.5974 317.297 84.8862 317.672 84.8862H324.712C328.749 84.8862 331.565 82.2876 331.565 78.6304C331.565 75.7431 329.218 74.2032 327.998 73.6258ZM324.431 72.6633H319.456V65.0601H324.431C326.684 65.0601 328.092 66.4075 328.092 68.8136C328.092 71.1234 326.684 72.6633 324.431 72.6633ZM324.994 82.7688H319.456V74.9732H324.431C326.871 74.9732 328.749 76.6093 328.749 78.8229C328.843 81.0365 327.153 82.7688 324.994 82.7688Z" fill="#071689"/>
<path d="M341.327 62.7503C341.234 62.4616 340.952 62.3654 340.764 62.3654H340.483C340.201 62.3654 340.013 62.4616 339.826 62.7503L330.438 84.1162C330.345 84.3087 330.345 84.5975 330.438 84.7899C330.532 84.9824 330.814 85.0787 331.002 85.0787H332.222C332.504 85.0787 332.785 84.8862 332.879 84.6937L335.132 79.4966H346.021L348.274 84.6937C348.368 84.8862 348.555 85.0787 348.931 85.0787H350.151C350.433 85.0787 350.621 84.9824 350.715 84.7899C350.808 84.5975 350.808 84.405 350.715 84.1162L341.327 62.7503ZM345.082 77.3792H336.071L340.483 67.1775H340.576C341.327 68.9099 342.078 70.6422 342.829 72.3746C343.58 74.0107 344.331 75.6469 345.082 77.3792Z" fill="#071689"/>
<path d="M362.824 82.7688H354V63.3278C354 62.9428 353.718 62.6541 353.343 62.6541H352.123C351.747 62.6541 351.466 62.9428 351.466 63.3278V84.3087C351.466 84.6937 351.747 84.9824 352.123 84.9824H362.824C363.199 84.9824 363.481 84.6937 363.481 84.3087V83.3463C363.481 83.0576 363.199 82.7688 362.824 82.7688Z" fill="#071689"/>
<path d="M161.19 62.3654C158.186 62.3654 155.37 63.5203 153.211 65.7339C151.146 67.9474 149.925 70.8347 149.925 73.9145C149.925 80.3628 154.807 85.3674 161.096 85.3674C164.1 85.3674 166.916 84.2125 169.075 81.9989C171.14 79.8815 172.36 76.9943 172.36 73.8183C172.454 67.5625 167.385 62.3654 161.19 62.3654ZM161.19 66.6963C165.038 66.6963 168.23 69.9685 168.23 73.9145C168.23 77.8605 165.038 81.0365 161.19 81.0365C157.341 81.0365 154.243 77.8605 154.243 73.9145C154.243 69.8723 157.341 66.6963 161.19 66.6963Z" fill="#071689"/>
<path fill-rule="evenodd" clip-rule="evenodd" d="M109.749 51.9711C113.222 51.8749 114.442 53.6073 115.381 55.4359C116.226 56.9758 117.352 60.3443 115.381 66.6963C117.728 63.809 117.822 59.9593 117.822 59.9593C117.822 59.9593 117.634 58.8044 117.258 56.8795C116.883 54.9547 116.32 52.5486 112.471 46.8703C110.218 43.7905 105.055 37.9197 95.4803 38.9784C86.9381 39.9408 85.53 48.4102 85.9055 51.3937C86.5626 57.3607 91.6316 62.5579 97.5455 62.4616C102.145 62.3654 103.741 60.1518 104.023 56.8795C104.023 54.0885 106.463 52.0674 109.749 51.9711Z" fill="#6BABE5"/>
<mask id="mask1_3281_918" style="mask-type:luminance" maskUnits="userSpaceOnUse" x="23" y="22" width="97" height="99">
<path d="M119.323 73.6258C118.291 100.67 95.9497 121.651 69.3843 120.592C42.8189 119.534 22.1674 96.8203 23.1999 69.7761C24.2325 42.7318 46.5737 21.7509 73.1391 22.8095C99.7045 23.8682 120.356 46.6778 119.323 73.6258Z" fill="white"/>
</mask>
<g mask="url(#mask1_3281_918)">
<path fill-rule="evenodd" clip-rule="evenodd" d="M129.086 35.9948C109.655 3.56097 71.5432 -8.75811 43.9453 8.37311C16.4412 25.5043 9.77635 65.6376 29.2076 97.9752C48.6388 130.313 86.7503 142.728 114.348 125.597C141.946 108.466 148.611 68.3324 129.086 35.9948ZM104.21 103.461C86.5625 114.433 62.25 106.541 49.8591 85.8486C37.4682 65.1564 41.6924 39.5558 59.2462 28.6804C76.8939 17.7087 101.206 25.6006 113.597 46.2928C126.082 66.985 121.858 92.5856 104.21 103.461ZM105.618 90.8532C91.7254 99.4189 72.3881 92.8743 62.3439 76.1281C52.2059 59.3818 55.3036 38.7859 69.1965 30.2202C77.2694 25.2156 87.1258 25.4081 96.0435 29.6428C91.1622 28.6804 86.2809 29.4503 81.9629 32.0489C71.8249 38.4009 69.3842 53.126 76.5184 65.0602C83.6526 76.9943 97.7331 81.5177 107.871 75.2619C113.973 71.4122 117.728 64.0015 117.258 56.9758C120.356 70.546 116.226 84.3087 105.618 90.8532Z" fill="#071689"/>
</g>
</g>
<path d="M361.759 67.0253V64.1425H363.22C363.337 64.1425 363.465 64.1763 363.603 64.244C363.741 64.3091 363.858 64.4107 363.954 64.5487C364.053 64.6841 364.103 64.856 364.103 65.0643C364.103 65.2753 364.052 65.455 363.95 65.6034C363.849 65.7492 363.725 65.8599 363.579 65.9354C363.436 66.0109 363.301 66.0487 363.173 66.0487H362.118V65.58H362.978C363.064 65.58 363.156 65.537 363.255 65.451C363.357 65.3651 363.407 65.2362 363.407 65.0643C363.407 64.8872 363.357 64.7675 363.255 64.705C363.156 64.6425 363.069 64.6112 362.993 64.6112H362.392V67.0253H361.759ZM363.501 65.6659L364.22 67.0253H363.525L362.821 65.6659H363.501ZM362.853 68.744C362.42 68.744 362.015 68.6633 361.638 68.5018C361.26 68.3404 360.928 68.1164 360.642 67.83C360.355 67.5435 360.131 67.2115 359.97 66.8339C359.808 66.4563 359.728 66.0513 359.728 65.619C359.728 65.1867 359.808 64.7818 359.97 64.4042C360.131 64.0266 360.355 63.6945 360.642 63.4081C360.928 63.1216 361.26 62.8977 361.638 62.7362C362.015 62.5747 362.42 62.494 362.853 62.494C363.285 62.494 363.69 62.5747 364.068 62.7362C364.445 62.8977 364.777 63.1216 365.064 63.4081C365.35 63.6945 365.574 64.0266 365.735 64.4042C365.897 64.7818 365.978 65.1867 365.978 65.619C365.978 66.0513 365.897 66.4563 365.735 66.8339C365.574 67.2115 365.35 67.5435 365.064 67.83C364.777 68.1164 364.445 68.3404 364.068 68.5018C363.69 68.6633 363.285 68.744 362.853 68.744ZM362.853 67.994C363.29 67.994 363.689 67.8872 364.048 67.6737C364.407 67.4602 364.694 67.1737 364.907 66.8143C365.121 66.455 365.228 66.0565 365.228 65.619C365.228 65.1815 365.121 64.7831 364.907 64.4237C364.694 64.0643 364.407 63.7779 364.048 63.5643C363.689 63.3508 363.29 63.244 362.853 63.244C362.415 63.244 362.017 63.3508 361.657 63.5643C361.298 63.7779 361.012 64.0643 360.798 64.4237C360.584 64.7831 360.478 65.1815 360.478 65.619C360.478 66.0565 360.584 66.455 360.798 66.8143C361.012 67.1737 361.298 67.4602 361.657 67.6737C362.017 67.8872 362.415 67.994 362.853 67.994Z" fill="#071689"/>
</g>
<defs>
<clipPath id="clip0_3281_918">
<rect width="385.245" height="143.402" fill="white" transform="translate(0.670898)"/>
</clipPath>
</defs>
</svg>
