<svg width="374" height="111" viewBox="0 0 374 111" fill="none" xmlns="http://www.w3.org/2000/svg">
<g clip-path="url(#clip0_3309_157)">
<path d="M138.739 50.7078H156.99V58.7037H129.185V29.9182H138.739V50.7078Z" fill="#14A2DD"/>
<path d="M261.161 58.7037H251.936V37.2479H240.472V29.9182H272.56V37.2479H261.161V58.7037Z" fill="#14A2DD"/>
<path d="M329.817 58.7037H320.593V29.9182H329.817V58.7037Z" fill="#14A2DD"/>
<path d="M235.266 40.0465V37.1812C235.266 33.1833 232.038 29.9182 228.085 29.9182H207.791C203.837 29.9182 200.609 33.1833 200.609 37.1812V50.3746C200.609 54.3726 203.837 57.6376 207.791 57.6376H228.085C232.038 57.6376 235.266 54.3726 235.266 50.3746V47.0429H226.767V48.842C226.767 50.1747 225.713 51.1742 224.461 51.1742H211.481C210.163 51.1742 209.174 50.1081 209.174 48.842V39.5134C209.174 38.1807 210.229 37.1812 211.481 37.1812H224.461C225.778 37.1812 226.767 38.2474 226.767 39.5134V40.0465H235.266Z" fill="#14A2DD"/>
<path d="M161.998 29.9849H193.493V37.3145H161.998V29.9849Z" fill="#14A2DD"/>
<path d="M161.998 51.3741H193.493V58.7037H161.998V51.3741Z" fill="#14A2DD"/>
<path d="M161.998 41.1793H193.493V47.576H161.998V41.1793Z" fill="#14A2DD"/>
<path d="M140.386 78.6271V79.0269C140.386 80.1596 140.189 81.1591 139.728 81.8921C139.003 83.0915 137.751 83.5579 135.247 83.5579C132.612 83.5579 131.294 83.1581 130.371 82.092C129.515 81.0925 129.185 79.4267 129.185 75.8951C129.185 72.6967 129.515 71.1642 130.305 70.1647C131.162 69.0985 132.546 68.6987 134.786 68.6987C139.135 68.6987 140.321 70.1647 140.321 75.6286V76.8946H132.546V77.4943C132.546 79.9597 133.073 80.6261 134.918 80.6261C136.631 80.6261 137.026 80.2263 137.026 78.6271H140.386ZM137.092 74.4292V73.9627C137.092 72.0304 136.697 71.6972 134.852 71.6972C133.534 71.6972 133.073 71.8971 132.809 72.6967C132.677 73.0965 132.677 73.2964 132.612 74.4958H137.092V74.4292Z" fill="#14A2DD"/>
<path d="M309.26 47.043C311.17 47.043 312.686 45.5104 312.752 43.5114L312.818 36.6482C312.884 32.9167 309.853 29.8516 306.163 29.8516H278.621V58.6371H287.846V51.3075L302.144 51.4407C302.934 51.4407 303.527 52.1071 303.527 52.9067V58.7037H312.818V50.6411C312.884 48.6422 311.302 47.043 309.26 47.043ZM304.186 41.5124C304.186 42.8451 303.132 43.8446 301.88 43.8446H287.846V37.1813H301.88C303.198 37.1813 304.186 38.2474 304.186 39.5134V41.5124Z" fill="#14A2DD"/>
<path d="M184.664 64.6341H192.768C194.284 64.6341 195.206 64.834 195.865 65.3004C196.919 66.0334 197.38 67.4327 197.38 69.6982C197.38 71.5639 197.117 72.4968 196.458 73.1631C195.997 73.6296 195.601 73.8295 194.942 73.9627V74.0294C197.051 74.3625 197.71 75.4287 197.71 78.5604C197.71 82.4251 196.524 83.7578 192.966 83.7578H184.664V64.6341ZM191.384 72.4302C192.834 72.4302 192.9 72.3635 193.229 72.1636C193.625 71.8971 193.822 71.2974 193.822 70.2313C193.822 68.5654 193.493 68.2323 192.043 68.2323H188.288V72.4302H191.384ZM191.253 80.093C193.691 80.093 194.152 79.7598 194.152 77.8941C194.152 76.5614 193.954 76.0283 193.427 75.6952C193.098 75.5619 193.032 75.5619 191.648 75.4953H188.222V80.0263H191.253V80.093Z" fill="#14A2DD"/>
<path d="M235.267 83.6911H231.511V64.5674H235.267V83.6911Z" fill="#14A2DD"/>
<path d="M274.009 71.7638H275.327L279.873 64.2343H284.222L278.358 73.5629L284.749 83.358H280.269L275.261 75.4953H273.877V83.358H270.253V64.2343H273.877V71.7638H274.009Z" fill="#14A2DD"/>
<path d="M320.724 72.2303H327.643V75.362H320.724V79.8931H328.17V83.5579H317.101V64.3676H328.038V68.0324H320.659V72.2303H320.724Z" fill="#14A2DD"/>
<path d="M369.35 69.365C369.35 67.1661 369.021 66.833 366.781 66.833C364.343 66.833 363.816 67.2328 363.816 69.0985C363.816 70.2979 364.079 70.8309 364.804 71.0308C365.024 71.0753 365.968 71.1641 367.637 71.2974C370.141 71.4973 370.998 71.6972 371.788 72.2969C372.777 73.0965 373.172 74.2292 373.172 76.7613C373.172 79.2933 372.908 80.4927 372.118 81.359C371.129 82.4917 369.878 82.8249 366.781 82.8249C362.959 82.8249 361.641 82.3585 360.851 80.8259C360.39 79.8931 360.192 78.8936 360.192 76.4948H363.618V76.8279C363.618 77.8274 363.75 78.4271 364.079 78.8269C364.475 79.2267 364.804 79.2267 366.913 79.2267C368.362 79.2267 368.692 79.1601 369.087 78.7603C369.416 78.4271 369.548 77.8274 369.548 76.8279C369.548 76.0283 369.416 75.4953 369.153 75.2287C368.889 74.9622 367.813 74.7623 365.924 74.629C363.355 74.4291 362.63 74.2959 361.839 73.8294C360.653 73.0965 360.126 71.6972 360.126 68.9652C360.126 66.6997 360.521 65.3004 361.378 64.5008C362.366 63.6346 363.618 63.368 366.517 63.368C369.68 63.368 370.998 63.7678 371.788 64.9006C372.381 65.7668 372.645 66.8996 372.645 68.5654V69.365H369.35Z" fill="#14A2DD"/>
<path d="M0.438354 55.3055L13.682 41.9122L54.2696 82.9582L73.5751 63.4347L87.1482 77.1611L54.5991 110.078L0.438354 55.3055Z" fill="#14A2DD"/>
<path d="M15.5928 39.9799L55.1261 0L79.505 24.5876V31.2509H85.3033L108.957 55.1722L88.993 75.362L75.2881 61.5023L81.7453 54.9057L74.8269 47.9758L49.262 73.8295L37.0726 61.5023L63.0987 35.1823L55.2579 27.2529L29.1 53.7063L15.5928 39.9799Z" fill="#14A2DD"/>
<path d="M373.172 40.6462V37.781C373.172 33.783 369.943 30.5179 365.99 30.5179H345.696C341.743 30.5179 338.514 33.783 338.514 37.781V50.9743C338.514 54.9723 341.743 58.2373 345.696 58.2373H365.99C369.943 58.2373 373.172 54.9723 373.172 50.9743V47.6426H364.672V49.4417C364.672 50.7744 363.618 51.7739 362.366 51.7739H349.386C348.068 51.7739 347.08 50.7078 347.08 49.4417V40.1797C347.08 38.8471 348.134 37.8476 349.386 37.8476H362.366C363.684 37.8476 364.672 38.9137 364.672 40.1797V40.7128H373.172V40.6462Z" fill="#14A2DD"/>
</g>
<defs>
<clipPath id="clip0_3309_157">
<rect width="372.734" height="110.078" fill="white" transform="translate(0.438354)"/>
</clipPath>
</defs>
</svg>
