<svg width="443" height="111" viewBox="0 0 443 111" fill="none" xmlns="http://www.w3.org/2000/svg">
<g clip-path="url(#clip0_3307_98)">
<path d="M200.857 86.3883H187.816L158.743 52.8885H158.569V86.3883H141.828V24.0185H154.869L183.942 57.5182H184.115V24.0185H200.857V86.3883Z" fill="#194F90"/>
<path d="M258.298 70.8878V86.3883H212.218V24.0185H256.976V39.5248H228.96V46.9219H254.246V61.6225H228.96V70.8878H258.298Z" fill="#194F90"/>
<path d="M284.727 39.5248V49.1462H310.539V64.2964H284.727V86.3941H267.986V24.0185H315.036V39.5248H284.727Z" fill="#194F90"/>
<path d="M319.348 55.2063C319.348 34.5331 334.15 22.6874 353.271 22.6874C363.05 22.6874 370.63 25.7174 376.091 29.5473L367.282 44.0728C363.05 41.1303 359.176 39.3497 353.802 39.3497C344.726 39.3497 336.973 44.8726 336.973 55.2122C336.973 65.5517 344.726 71.0746 353.802 71.0746C359.176 71.0746 363.05 69.294 367.282 66.3515L376.091 80.877C370.63 84.7069 363.05 87.7369 353.271 87.7369C334.15 87.7369 319.348 75.8853 319.348 55.218V55.2063Z" fill="#194F90"/>
<path d="M442.354 55.2063C442.354 74.8052 427.818 87.7252 409.488 87.7252C391.159 87.7252 376.628 74.8052 376.628 55.2063C376.628 35.6074 391.165 22.6874 409.488 22.6874C427.812 22.6874 442.354 35.6074 442.354 55.2063ZM394.247 55.2063C394.247 64.9211 400.765 70.8002 409.488 70.8002C418.211 70.8002 424.729 64.9211 424.729 55.2063C424.729 45.4915 418.211 39.6124 409.488 39.6124C400.765 39.6124 394.247 45.4915 394.247 55.2063Z" fill="#194F90"/>
<path d="M69.353 83.5509H76.8118L102.34 38.8067H83.572L73.0824 57.1738L55.8037 26.9026H49.7709L24.2195 71.6176H43.028L52.7844 54.5291L69.353 83.5509Z" fill="#FF7700"/>
<path d="M41.1461 16.4521H85.3906L90.8577 26.0385H109.62L109.637 26.0151L94.7833 0H31.7476L0.232666 55.2063L9.60229 71.6175L41.1461 16.4521Z" fill="#FF7700"/>
<path d="M85.3848 93.9546H41.1461L35.7136 84.4383L35.7252 84.4091H16.9109L31.7476 110.407H94.7832L126.298 55.2063L116.94 38.8067L85.3848 93.9546Z" fill="#FF7700"/>
</g>
<defs>
<clipPath id="clip0_3307_98">
<rect width="442.122" height="110.407" fill="white" transform="translate(0.232666)"/>
</clipPath>
</defs>
</svg>
