<svg width="471" height="147" viewBox="0 0 471 147" fill="none" xmlns="http://www.w3.org/2000/svg">
<path d="M0.57666 0.779811C0.958115 0.772096 1.33957 0.752808 1.72102 0.752808C13.7979 0.752808 25.8747 0.752808 37.9516 0.752808C50.7837 0.752808 61.3195 9.76422 63.4556 22.5561C65.4048 34.2061 58.7561 46.0838 47.8007 50.5432C47.4498 50.6859 47.0988 50.8325 46.6754 51.0061C53.0915 60.2991 59.4732 69.5381 65.9541 78.9237C65.5574 78.9585 65.3018 79.0048 65.0424 79.0048C60.1789 79.0086 55.3192 79.0202 50.4556 78.9855C50.0856 78.9855 49.5707 78.7617 49.3647 78.4685C40.3204 65.4182 31.3066 52.3524 22.289 39.2828C22.2547 39.2326 22.2356 39.1709 22.1212 38.9317C22.5179 38.9317 22.8383 38.9317 23.1626 38.9317C28.0871 38.9317 33.0155 38.9549 37.9401 38.924C44.2723 38.8854 49.2274 34.6228 50.2687 28.3696C51.4093 21.5184 46.1032 14.7058 39.2485 14.2738C37.635 14.1696 36.01 14.2159 34.3888 14.2159C27.9994 14.2121 21.6139 14.2159 15.2245 14.2159H13.9962V28.1381C13.6186 27.652 13.405 27.3974 13.2142 27.1313C9.23186 21.5608 5.24948 15.9866 1.26328 10.4162C1.06492 10.1423 0.809347 9.90695 0.584289 9.65621C0.584289 6.69741 0.584289 3.74247 0.584289 0.783668L0.57666 0.779811Z" fill="#2F4E6B"/>
<path d="M0.57666 50.5432H6.32518V56.3296H0.57666V50.5432Z" fill="#2F4E6B"/>
<path d="M0.57666 59.6086H6.31755V65.3951H0.57666V59.6086Z" fill="#2F4E6B"/>
<path d="M138.366 63.879V78.4261H78.4849V0.139465H136.889V14.648H96.2988V31.6447H132.117V45.779H96.2912V63.879H138.366Z" fill="#2F4E6B"/>
<path d="M311.496 78.3451H306.003V0.0276107C307.483 0.0276107 308.964 -0.0109655 310.444 0.0623294C310.699 0.0739023 310.989 0.53296 311.168 0.84157C316.886 10.8174 322.593 20.8009 328.299 30.7806C333.8 40.4015 339.304 50.0186 344.809 59.6395C344.965 59.9095 345.133 60.1719 345.358 60.5383C346.205 59.0647 346.998 57.6837 347.792 56.2988C358.35 37.8362 368.913 19.3775 379.449 0.903292C379.838 0.22435 380.25 -0.034111 381.009 0.00832286C382.176 0.0700449 383.351 0.0237537 384.629 0.0237537V78.322H379.17V11.8049L378.911 11.7162C378.732 12.021 378.552 12.3219 378.377 12.6266C368.001 30.7497 357.629 48.8767 347.246 66.996C347.036 67.3625 346.739 67.8987 346.422 67.945C345.621 68.0646 344.778 68.0067 343.966 67.9025C343.756 67.8755 343.577 67.4319 343.42 67.158C332.995 49.0272 322.578 30.8925 312.156 12.7578C312 12.4839 311.828 12.2177 311.5 11.9708V78.3413L311.496 78.3451Z" fill="#2F4E6B"/>
<path d="M417.384 52.7652V78.322H411.842V0.0661636C412.162 0.0507331 412.471 0.0237295 412.78 0.0237295C421.935 0.0237295 431.086 -0.0109896 440.241 0.0353019C445.982 0.0623053 451.582 0.937987 456.823 3.44159C465.493 7.58082 470.002 14.6248 470.681 24.2072C471.059 29.5616 470.3 34.7346 467.652 39.4834C464.33 45.4473 459.112 48.9269 452.795 50.9251C448.633 52.2406 444.353 52.7459 440.012 52.7613C432.894 52.7845 425.773 52.7691 418.655 52.7691C418.277 52.7691 417.899 52.7691 417.388 52.7691L417.384 52.7652ZM417.457 47.5767C417.743 47.596 417.96 47.6191 418.178 47.6191C425.456 47.6191 432.73 47.6423 440.008 47.6075C443.899 47.5883 447.744 47.1446 451.46 45.8909C456.995 44.0238 461.274 40.6947 463.495 35.0625C464.986 31.2744 465.276 27.328 464.822 23.3122C464.013 16.1293 460.481 10.8945 453.912 7.874C449.579 5.88346 444.975 5.22381 440.268 5.20452C432.99 5.17366 425.715 5.19681 418.437 5.19681C418.124 5.19681 417.815 5.19681 417.457 5.19681V47.5767Z" fill="#2F4E6B"/>
<path d="M291.813 78.3914C289.841 78.3914 287.98 78.4261 286.118 78.3528C285.855 78.3413 285.52 77.8552 285.367 77.5235C282.872 72.0418 280.397 66.5485 277.921 61.0591C277.341 59.7745 276.723 58.5054 276.197 57.1976C275.93 56.5303 275.567 56.3219 274.858 56.3219C262.209 56.3451 249.564 56.3374 236.915 56.3374C235.198 56.3374 233.481 56.3759 231.769 56.3181C231.082 56.2949 230.781 56.5457 230.51 57.159C227.516 63.9292 224.472 70.6762 221.489 77.4502C221.164 78.187 220.787 78.4454 220.001 78.4184C218.387 78.3567 216.77 78.3991 214.981 78.3991C215.141 78.0018 215.24 77.7202 215.366 77.4502C226.97 51.9281 238.578 26.406 250.162 0.876277C250.46 0.224338 250.788 -0.0341222 251.505 0.0044541C252.772 0.0700337 254.05 0.0738914 255.316 0.0044541C256.052 -0.0379798 256.357 0.262915 256.643 0.899423C262.472 13.7723 268.324 26.6336 274.175 39.495C279.904 52.094 285.634 64.6968 291.363 77.2959C291.505 77.6122 291.627 77.9362 291.817 78.3953L291.813 78.3914ZM273.672 51.4845C266.897 36.432 260.16 21.4683 253.34 6.31553C246.562 21.4606 239.859 36.4282 233.119 51.4845H273.672Z" fill="#2F4E6B"/>
<path d="M177.293 145.796H170.251V119.313C170.179 119.298 170.106 119.282 170.038 119.271C169.683 119.857 169.324 120.443 168.977 121.034C165.155 127.48 161.329 133.926 157.526 140.383C157.179 140.97 156.801 141.151 156.126 141.248C154.261 141.521 153.28 140.727 152.346 139.114C148.718 132.85 144.923 126.685 141.188 120.486C141.009 120.189 140.83 119.892 140.479 119.626V145.78H133.384V105.167C135.341 105.167 137.298 105.136 139.254 105.206C139.506 105.214 139.788 105.696 139.972 106.008C144.518 113.662 149.058 121.323 153.597 128.984C154.181 129.972 154.772 130.955 155.432 132.063C155.672 131.685 155.863 131.411 156.031 131.121C160.917 122.735 165.807 114.352 170.667 105.95C171.022 105.337 171.4 105.121 172.09 105.14C173.795 105.194 175.504 105.156 177.289 105.156V145.792L177.293 145.796Z" fill="#2F4E6B"/>
<path d="M143.034 0.0237271C145.033 0.0237271 146.929 -0.00327625 148.825 0.0584458C149.073 0.066161 149.397 0.486642 149.531 0.787537C152.109 6.58555 154.669 12.3951 157.228 18.2009C164.835 35.4444 172.445 52.6842 180.051 69.9278C180.177 70.2171 180.322 70.4987 180.528 70.9307C180.726 70.5064 180.867 70.2017 181.004 69.8969C191.121 46.9672 201.241 24.0374 211.334 1.09615C211.696 0.270615 212.12 -0.0418523 213.016 0.00443924C214.527 0.0854494 216.045 0.027584 217.7 0.027584C217.227 1.11543 216.819 2.07984 216.396 3.03653C205.517 27.733 194.63 52.4257 183.778 77.1338C183.354 78.0944 182.908 78.5341 181.832 78.4261C180.669 78.3142 179.482 78.3682 178.308 78.4145C177.705 78.4377 177.419 78.2062 177.178 77.6584C169.622 60.465 162.05 43.2754 154.478 26.0897C150.82 17.7881 147.162 9.49034 143.504 1.18873C143.351 0.845402 143.221 0.490499 143.034 0.027584V0.0237271Z" fill="#2F4E6B"/>
<path d="M326.865 145.842C324.912 145.842 323.039 145.873 321.17 145.811C320.842 145.8 320.457 145.456 320.22 145.167C313.709 137.101 307.213 129.023 300.713 120.949C300.08 120.162 299.443 119.383 298.638 118.391V145.769H291.28V105.167C293.221 105.167 295.151 105.136 297.078 105.198C297.364 105.206 297.684 105.607 297.913 105.889C304.802 114.429 311.68 122.982 318.561 131.53C318.801 131.827 319.046 132.124 319.427 132.591V105.244H326.862V145.842H326.865Z" fill="#2F4E6B"/>
<path d="M95.0935 146.432C89.2305 146.259 82.8603 143.608 78.5498 137.074C71.245 125.994 75.6241 108.033 92.5225 104.955C97.8323 103.987 102.974 104.65 107.792 107.2C115.154 111.096 119.495 118.92 118.332 128.147C116.928 139.276 108.345 146.436 95.0935 146.432ZM82.7534 125.47C82.7306 133.706 88.6813 139.797 96.7681 139.816C104.935 139.836 110.954 133.795 110.985 125.547C111.012 117.334 105.046 111.247 96.9436 111.216C88.7423 111.185 82.7802 117.176 82.7573 125.466L82.7534 125.47Z" fill="#2F4E6B"/>
<path d="M377.435 139.496H400.017V145.773H369.954V105.213H399.204V111.467H377.419V122.064H396.702V128.232H377.435V139.492V139.496Z" fill="#2F4E6B"/>
<path d="M202.629 134.084V145.776H195.198V105.21C195.519 105.19 195.828 105.163 196.133 105.163C201.473 105.163 206.81 105.136 212.15 105.171C215.225 105.19 218.219 105.699 221.042 107.011C226.84 109.704 229.289 114.989 228.774 120.883C228.16 127.892 223.723 132.518 216.487 133.636C213.836 134.045 211.109 133.984 208.416 134.072C206.52 134.134 204.62 134.084 202.629 134.084ZM202.66 111.551V127.727C206.882 127.507 211.082 128.155 215.217 127.252C218.07 126.631 220.26 125.038 220.985 122.021C221.98 117.855 220.87 112.844 214.584 111.937C211.029 111.424 207.367 111.656 203.754 111.551C203.415 111.544 203.075 111.551 202.663 111.551H202.66Z" fill="#2F4E6B"/>
<path d="M279.107 145.842C276.578 145.842 274.194 145.861 271.814 145.815C271.551 145.811 271.173 145.464 271.051 145.182C269.884 142.544 268.743 139.894 267.641 137.228C267.396 136.642 267.114 136.41 266.458 136.414C260.324 136.441 254.191 136.441 248.053 136.414C247.412 136.414 247.099 136.599 246.855 137.205C245.779 139.847 244.639 142.463 243.559 145.105C243.334 145.661 243.048 145.873 242.442 145.861C240.187 145.823 237.933 145.846 235.53 145.846C235.686 145.472 235.801 145.19 235.923 144.912C241.683 131.97 247.45 119.031 253.191 106.081C253.492 105.402 253.817 105.113 254.591 105.14C256.464 105.21 258.341 105.183 260.218 105.152C260.763 105.144 261.064 105.291 261.301 105.827C267.137 118.947 272.996 132.055 278.848 145.167C278.924 145.337 278.981 145.514 279.107 145.846V145.842ZM257.242 112.755C254.698 118.769 252.245 124.567 249.754 130.458H264.795C262.281 124.563 259.809 118.769 257.246 112.755H257.242Z" fill="#2F4E6B"/>
<path d="M414.42 135.723C419.17 139.103 424.292 140.603 429.923 140.013C431.376 139.863 432.894 139.473 434.184 138.802C437.472 137.093 437.556 132.896 434.267 131.222C432.143 130.138 429.747 129.597 427.451 128.872C424.849 128.054 422.164 127.468 419.623 126.488C416.198 125.165 413.619 122.877 412.914 118.993C411.933 113.608 414.356 108.89 419.322 106.49C422.431 104.99 425.75 104.534 429.148 104.573C433.199 104.619 437.098 105.402 440.745 107.25C441.275 107.52 441.778 107.844 442.339 108.168C441.549 110.14 440.787 112.038 440.001 113.997C438.936 113.492 437.937 112.963 436.896 112.535C433.009 110.942 428.984 110.309 424.872 111.347C423.633 111.659 422.347 112.338 421.412 113.21C419.395 115.089 419.7 118.356 422.076 119.718C423.785 120.698 425.738 121.292 427.638 121.882C430.033 122.623 432.494 123.136 434.901 123.842C436.053 124.177 437.167 124.675 438.254 125.196C446.02 128.899 445.154 138.524 440.336 142.578C437.88 144.646 435.03 145.726 431.933 146.151C426.242 146.93 420.711 146.27 415.454 143.844C414.367 143.342 413.364 142.636 412.357 141.973C412.155 141.842 411.937 141.41 412.01 141.236C412.769 139.407 413.581 137.606 414.413 135.727L414.42 135.723Z" fill="#2F4E6B"/>
<path d="M64.9814 111.278C63.2496 112.925 61.6628 114.433 60.0721 115.945C53.7667 109.013 43.2576 110.398 38.5161 115.679C33.6717 121.076 33.748 130.238 38.6649 135.507C43.3949 140.576 53.7438 142.046 60.0683 135.017C61.6514 136.541 63.2306 138.065 64.8632 139.639C63.0322 141.822 60.8427 143.412 58.3136 144.546C50.0857 148.234 39.5804 146.606 33.4962 140.507C27.5455 134.539 26.0388 127.237 28.2855 119.271C30.4789 111.505 35.9223 106.903 43.62 105.171C49.9102 103.755 55.9601 104.535 61.4187 108.253C62.6698 109.106 63.7455 110.217 64.9776 111.274L64.9814 111.278Z" fill="#2F4E6B"/>
<path d="M352.03 145.788H344.706V105.221H352.03V145.788Z" fill="#2F4E6B"/>
<path d="M15.2055 56.3682H9.55615V50.6203H15.2055V56.3682Z" fill="#2F4E6B"/>
<path d="M15.2476 59.6279V65.3372H9.55249V59.6279H15.2476Z" fill="#2F4E6B"/>
</svg>
