<svg width="648" height="87" viewBox="0 0 648 87" fill="none" xmlns="http://www.w3.org/2000/svg">
<path d="M399.236 0.127991C398.983 0.191973 398.667 0.255971 398.224 0.383936C402.906 0.895794 406.955 2.62329 410.435 5.63046C415.116 9.66134 417.71 14.8439 418.659 20.9222C419.482 25.8489 419.166 30.7115 417.521 35.4462C414.547 44.0199 408.663 49.5224 399.742 51.2499C390.062 53.1054 380.952 49.2664 375.574 40.7568C373.107 36.7259 371.904 32.3111 371.651 27.5764C371.335 21.5621 372.537 15.8036 375.764 10.749C379.56 4.79868 385.064 1.40762 392.024 0.511869C392.087 0.511869 392.15 0.511885 392.34 0.447902C392.087 0.319938 391.897 0.25594 391.707 0.191957C394.301 0.127975 396.769 0.127991 399.236 0.127991ZM405.626 25.7849C405.689 21.4981 405.057 16.8274 403.791 12.7325C403.032 10.1092 401.957 7.61394 400.185 5.50252C397.275 2.17544 392.909 2.30339 390.379 5.8864C389.24 7.48596 388.291 9.21347 387.658 11.069C384.368 20.6663 384.368 30.3276 387.342 39.989C388.101 42.4843 389.177 44.8516 391.075 46.6432C393.732 49.2664 397.022 49.2024 399.742 46.6432C401.387 45.0436 402.336 43.0601 403.095 41.0127C404.804 36.1501 405.563 31.0314 405.626 25.7849Z" fill="#686059"/>
<path d="M23.1724 0.511884C27.6012 0.831796 31.4605 2.17542 35.5729 3.711C35.826 3.83897 36.2056 4.22287 36.2056 4.4788C36.2056 8.12579 36.2056 11.7088 36.1423 15.3558C36.1423 15.6117 36.0791 15.8676 36.0791 16.3155C35.4464 15.7397 35.0035 15.2918 34.4974 14.8439C31.7136 12.2846 28.9298 9.66136 26.0828 7.23003C24.1847 5.63047 21.9704 4.28686 19.5029 3.77501C17.6049 3.39111 15.7069 3.32714 13.9354 4.22289C10.1393 6.07838 9.44337 10.8131 12.6068 13.6923C14.315 15.2278 16.3395 16.2515 18.4274 17.1473C21.654 18.6189 24.944 20.0265 28.1074 21.5621C30.4483 22.7138 32.5361 24.2493 34.3076 26.1688C38.2302 30.3917 39.5588 35.2543 37.9139 40.8207C36.775 44.6597 34.181 47.283 30.7646 49.0745C26.146 51.5058 21.2744 52.0177 16.1497 51.5698C11.025 51.1219 6.09015 49.7143 1.34506 47.7948C1.09199 47.6669 0.775677 47.219 0.775677 46.9631C0.71241 43.3161 0.775677 39.6051 0.775677 35.9581C0.775677 35.7022 0.838937 35.4462 0.965473 35.0623C1.40835 35.4462 1.6614 35.6382 1.97774 35.8941C5.01459 38.6454 7.92494 41.5246 11.0251 44.2118C13.1762 46.0673 15.6436 47.5389 18.4907 48.0508C19.8825 48.3067 21.3377 48.3707 22.7296 48.0508C27.2216 47.091 28.74 42.4203 26.9053 38.5814C26.2093 37.1098 25.0072 35.9581 23.6786 35.0623C20.7683 33.0789 17.5416 31.9272 14.315 30.6476C11.4046 29.4959 8.55762 28.2802 5.96364 26.4887C3.43293 24.7612 1.40835 22.6498 0.459339 19.5786C0.396071 19.3227 0.269543 19.0028 0.269543 18.7468C0.206275 18.4909 0.332811 19.2587 0.269543 18.7468C0.0797397 19.1947 -0.0468112 13.1804 0.0164565 13.6283C0.585866 9.72534 2.61045 6.71817 5.6473 4.35082C8.68416 2.04746 12.1639 0.959784 16.0232 0.57589C15.6436 0.255979 23.0459 0.447902 23.1724 0.511884Z" fill="#686059"/>
<path d="M647.562 38.0695C647.119 39.5411 646.803 41.0767 646.234 42.4843C644.715 46.0033 641.868 48.2427 638.452 49.7143C634.402 51.5058 630.1 51.9537 625.672 51.6338C620.484 51.2499 615.485 49.8422 610.614 47.9868C609.981 47.7308 609.728 47.4749 609.791 46.7711C609.791 43.1241 609.791 39.4771 609.791 35.8301C609.791 35.6382 609.855 35.4462 609.918 35.0623C610.234 35.3182 610.487 35.5102 610.74 35.7021C613.461 38.1975 616.055 40.7568 618.839 43.2521C620.926 45.1076 623.204 46.6431 625.798 47.6029C628.392 48.4986 630.986 48.8186 633.517 47.4109C635.478 46.3232 636.427 44.6597 636.617 42.3563C636.87 38.7093 634.972 36.342 632.125 34.6784C629.278 33.0789 626.241 31.7992 623.267 30.5836C619.851 29.112 616.498 27.7044 613.587 25.273C606.944 19.7706 608.02 11.3249 612.638 6.14234C615.296 3.13517 618.712 1.59957 622.571 0.831779C623.331 0.703814 624.153 0.575865 624.976 0.4479C624.723 0.319936 624.596 0.255938 624.406 0.191956C627.443 0.191956 630.543 0.191956 633.58 0.191956C633.011 0.255938 632.378 0.383918 631.808 0.4479C632.757 0.639847 633.707 0.703838 634.592 0.895784C638.072 1.53561 641.425 2.49532 644.715 3.71098C645.221 3.90293 645.348 4.09489 645.348 4.60675C645.348 8.25374 645.348 11.8368 645.285 15.4837C645.285 15.6757 645.221 15.9316 645.221 16.3155C644.209 15.4198 643.386 14.588 642.564 13.8202C639.527 10.941 636.617 7.99781 633.074 5.75843C630.48 4.15887 627.696 3.07118 624.533 3.64702C621.116 4.28684 618.839 7.80585 619.914 11.0689C620.484 12.8605 621.812 14.1401 623.457 15.0359C625.861 16.3155 628.329 17.4672 630.796 18.5549C634.086 19.9625 637.376 21.3701 640.286 23.5455C643.829 26.1688 646.613 29.3039 647.372 33.9106C647.372 33.9746 647.562 34.0386 647.689 34.1026C647.562 35.3822 647.562 36.7259 647.562 38.0695Z" fill="#686059"/>
<path d="M547.472 0.128034C546.84 0.192016 546.207 0.319996 545.638 0.383978C545.638 0.447961 545.638 0.44793 545.638 0.511912C546.207 0.575894 546.713 0.639908 547.283 0.70389C550.826 1.4077 554.432 2.11148 557.975 2.87927C558.228 2.94325 558.544 3.32714 558.544 3.51909C558.544 7.86989 558.481 12.2847 558.481 16.6355C558.481 16.6994 558.418 16.6995 558.354 16.8914C558.165 16.6995 558.038 16.5075 557.912 16.3156C555.571 12.9245 553.293 9.46945 550.193 6.71821C548.864 5.50254 547.409 4.41484 545.701 3.839C542.917 2.81528 540.386 3.32717 538.172 5.18265C535.515 7.35805 533.87 10.3012 532.794 13.6283C530.01 22.5858 530.074 31.5434 533.68 40.245C534.376 41.9725 535.515 43.5081 536.654 45.0436C537.919 46.7072 539.564 47.7949 541.588 48.2428C543.866 48.7546 545.891 48.0508 547.789 46.7712C550.889 44.6597 553.23 41.8445 555.381 38.8373C556.33 37.4937 557.279 36.1501 558.418 34.5505C558.481 35.2543 558.544 35.7662 558.544 36.2141C558.544 40.117 558.544 44.0199 558.608 47.8588C558.608 48.4987 558.481 48.8186 557.785 48.9465C553.989 49.7143 550.256 50.6741 546.397 51.2499C541.525 51.9537 536.654 51.8258 532.035 49.8423C525.835 47.219 521.596 42.6763 519.255 36.342C516.661 29.4319 516.598 22.3299 519.255 15.4198C522.608 6.4623 529.188 1.53565 538.552 0.256006C538.362 0.192024 538.235 0.128026 538.045 6.10352e-05C541.146 0.128026 544.309 0.128034 547.472 0.128034Z" fill="#686059"/>
<path d="M647.562 85.8643C640.539 85.8643 633.516 85.8643 626.367 85.8643C626.367 78.5703 626.367 71.4043 626.367 64.1103C628.835 64.1103 631.239 64.1103 633.706 64.1103C633.706 69.4208 633.706 74.6674 633.706 80.1059C638.325 80.1059 642.943 80.1059 647.562 80.1059C647.562 82.0253 647.562 83.9448 647.562 85.8643Z" fill="#686059"/>
<path d="M344.003 50.802C338.626 50.802 333.374 50.802 327.997 50.802C328.25 49.7782 328.503 48.7545 328.756 47.7948C329.515 44.7876 330.021 41.7164 329.958 38.5813C329.895 30.6475 329.895 22.7777 329.958 14.8439C330.021 10.4931 329.515 6.27027 328.25 2.1754C328.123 1.72752 328.06 1.34361 327.997 0.959717C329.325 0.959717 330.527 0.959717 331.793 0.959717C338.499 0.959717 345.205 0.959717 351.975 0.959717C355.455 0.959717 358.745 1.59956 361.718 3.45504C365.831 5.95035 368.108 9.59734 367.855 14.524C367.602 19.3866 365.135 22.7777 360.706 24.7612C358.428 25.7849 356.024 26.3607 353.493 26.6167C353.683 26.6806 353.936 26.8086 354.126 26.8726C358.681 28.2802 362.161 31.0314 364.376 35.3182C365.388 37.2377 366.4 39.1572 367.349 41.1406C369.057 44.5957 370.829 47.9867 373.802 50.802C373.423 50.8659 373.17 50.8659 372.917 50.8659C368.678 50.8659 364.502 50.866 360.263 50.9299C359.504 50.9299 358.934 50.738 358.555 50.0342C357.353 47.9228 356.087 45.8113 355.075 43.6359C353.873 41.2046 352.924 38.6453 351.785 36.214C350.33 33.2708 348.559 30.5196 345.648 28.7281C344.763 28.2162 343.687 27.9603 342.675 27.6404C342.295 27.5124 342.042 27.7043 342.042 28.1522C342.169 33.4627 341.599 38.8373 342.485 44.0838C342.801 46.0033 343.371 47.9228 343.814 49.8422C343.877 50.1621 343.94 50.4821 344.003 50.802ZM341.979 3.71095C341.979 5.50245 341.979 7.42193 341.979 9.27742C341.979 14.2041 341.979 19.1307 341.979 24.0574C341.979 24.4413 341.979 24.8251 342.548 24.7612C344.573 24.6972 346.661 24.7612 348.685 24.5692C350.963 24.3773 352.734 23.1616 353.81 21.0502C354.759 19.1307 355.012 17.0833 355.075 14.9079C355.138 12.2846 354.885 9.7253 353.747 7.35795C352.798 5.43848 351.406 3.96688 349.255 3.71095C346.85 3.519 344.446 3.71095 341.979 3.71095Z" fill="#686059"/>
<path d="M423.025 50.8019C423.404 49.3943 423.721 48.1147 424.037 46.771C424.733 43.9558 424.986 41.0766 424.986 38.1974C425.049 29.6238 424.986 21.0501 424.986 12.4765C424.986 8.82949 424.164 5.31045 423.214 1.79142C422.961 0.767706 422.961 0.767706 424.037 0.831688C426.188 0.895671 428.339 0.895694 430.49 0.895694C434.982 0.895694 439.474 0.895694 443.903 0.895694C454.026 0.959677 462.63 7.10196 465.794 16.8273C468.324 24.6971 467.818 32.439 463.643 39.669C460.289 45.4914 455.101 49.0104 448.585 50.2901C446.687 50.674 444.726 50.8019 442.764 50.8659C436.311 50.9299 429.858 50.9299 423.404 50.9299C423.404 50.9299 423.278 50.8659 423.025 50.8019ZM437.07 25.7848C437.07 32.6309 437.07 39.477 437.07 46.3231C437.07 47.7947 437.07 47.7947 438.525 47.7947C440.36 47.7947 442.195 47.7947 443.903 47.1549C447.636 45.7473 449.913 42.9321 451.369 39.4131C454.216 32.439 454.342 25.273 453.077 17.979C452.507 14.5239 451.305 11.2608 449.218 8.4456C447.573 6.2702 445.548 4.67064 442.891 4.15878C441.246 3.83887 439.538 3.90286 437.893 3.7749C437.26 3.71092 437.07 3.90286 437.07 4.60666C437.07 11.7087 437.07 18.7467 437.07 25.7848Z" fill="#686059"/>
<path d="M298.64 31.1594C298.451 37.8775 298.324 44.4037 300.728 50.8659C295.224 50.8659 289.973 50.8659 284.595 50.8659C284.911 49.5223 285.228 48.2427 285.544 47.027C286.177 44.5957 286.493 42.1004 286.493 39.6051C286.493 30.4556 286.493 21.2421 286.493 12.0927C286.493 8.57363 285.734 5.24653 284.785 1.91945C284.721 1.59954 284.721 1.27963 284.658 0.959717C292.693 0.959717 300.665 0.959717 308.573 0.959717C311.737 0.959717 314.71 1.79149 317.431 3.51901C321.227 5.95034 323.441 9.40539 324.074 13.8842C324.96 20.2184 322.113 25.5289 316.419 28.6001C313.065 30.3916 309.459 31.0954 305.663 31.1594C303.765 31.2234 301.93 31.1594 300.032 31.1594C299.653 31.1594 299.21 31.1594 298.64 31.1594ZM298.64 27.7043C300.918 27.7043 303.069 27.8323 305.157 27.6404C306.992 27.4484 308.384 26.4247 309.459 24.8251C310.535 23.1616 311.167 21.4341 311.42 19.5146C311.927 15.8036 311.8 12.1566 310.282 8.6376C309.016 5.75839 306.865 4.15883 303.702 4.15883C302.247 4.15883 300.791 4.15883 299.336 4.15883C298.767 4.15883 298.64 4.35079 298.64 4.92663C298.64 11.1969 298.64 17.4672 298.64 23.6734C298.64 24.9531 298.64 26.2967 298.64 27.7043Z" fill="#686059"/>
<path d="M173.876 0.895797C173.876 5.31058 173.876 9.72534 173.876 14.0761C173.813 14.0761 173.75 14.0762 173.686 14.1401C173.56 14.0122 173.433 13.8202 173.307 13.6923C170.713 10.5571 167.929 7.61393 164.449 5.43853C162.804 4.41481 161.096 3.83898 159.135 3.96694C156.667 4.03092 154.137 3.96694 151.606 3.96694C151.606 10.6211 151.606 17.2113 151.606 23.9294C151.922 23.9294 152.302 23.9934 152.682 23.9934C157.11 24.1853 161.223 22.9057 165.272 21.3061C166.031 20.9862 166.79 20.6663 167.549 20.3464C167.929 20.1545 168.245 20.2185 168.245 20.7303C168.245 23.8655 168.245 26.9366 168.245 30.0717C168.245 30.1357 168.182 30.1997 168.119 30.3916C167.676 30.2637 167.233 30.0717 166.853 29.8798C163.817 28.5362 160.717 27.3845 157.49 26.8726C155.655 26.5527 153.757 26.5527 151.796 26.4247C151.796 33.5907 151.796 40.6288 151.796 47.6669C152.175 47.6669 152.555 47.7309 152.935 47.7309C155.275 47.7309 157.553 47.7309 159.894 47.7309C161.349 47.7309 162.615 47.347 163.88 46.6432C167.423 44.7877 170.143 41.9085 172.801 38.9653C173.244 38.5174 173.686 38.0695 174.129 37.5577C174.193 37.6216 174.256 37.6217 174.319 37.6856C174.382 38.5174 174.446 39.2852 174.446 40.117C174.446 43.3161 174.446 46.5792 174.446 49.7783C174.446 50.4821 174.256 50.674 173.56 50.674C165.778 50.674 157.933 50.674 150.151 50.674C146.355 50.674 142.495 50.674 138.699 50.674C138.383 50.674 138.067 50.6101 137.75 50.6101C138.256 48.3707 138.763 46.3232 139.142 44.1478C139.395 42.6123 139.585 41.0127 139.585 39.4771C139.648 30.2637 139.585 21.0502 139.585 11.7728C139.585 8.31775 138.763 4.99066 137.877 1.72756C137.814 1.40765 137.75 1.15173 137.624 0.703857C149.771 0.895804 161.792 0.895797 173.876 0.895797Z" fill="#686059"/>
<path d="M471.298 0.895813C476.676 0.895813 481.864 0.895813 487.242 0.895813C487.052 1.59962 486.989 2.30341 486.799 2.87925C485.66 6.65421 485.217 10.4932 485.28 14.4601C485.344 20.5384 485.28 26.5527 485.344 32.631C485.344 34.8064 485.66 36.9178 486.293 39.0293C488.191 44.9156 492.493 47.0911 498.124 46.4512C503.375 45.8754 506.538 41.9085 507.424 36.9179C507.614 35.6382 507.74 34.3586 507.74 33.0789C507.804 27.6404 507.804 22.138 507.804 16.6995C507.804 13.4364 507.044 10.2372 506.095 7.16607C505.589 5.43855 504.957 3.71102 504.387 1.91951C504.261 1.5996 504.261 1.21572 504.197 0.895813C507.867 0.895813 511.347 0.895813 514.953 0.895813C514.763 1.53564 514.636 2.11146 514.447 2.55934C513.245 5.88642 512.169 9.21349 511.6 12.6685C511.347 14.3961 511.157 16.1876 511.157 17.9791C511.094 22.8418 511.157 27.7044 511.157 32.631C511.094 35.9581 510.587 39.2852 509.196 42.3563C507.171 46.8991 503.691 49.7783 498.946 50.93C494.138 52.1457 489.329 51.8897 484.711 50.0342C478.953 47.6669 475.6 43.3161 474.082 37.3017C473.386 34.4865 473.196 31.6713 473.196 28.7921C473.196 23.2256 473.259 17.5952 473.259 12.0287C473.259 8.50969 472.437 5.18263 471.551 1.85555C471.425 1.53564 471.361 1.21572 471.298 0.895813Z" fill="#686059"/>
<path d="M605.742 0.895729C605.742 6.0783 605.742 11.3248 605.742 16.5074C605.679 16.5714 605.616 16.5714 605.552 16.6354C604.856 15.7396 604.16 14.8439 603.464 13.9481C601.313 11.0049 599.036 8.18969 596.125 5.95031C594.417 4.67066 592.519 3.96688 590.368 4.09485C589.862 4.09485 589.735 4.22281 589.735 4.73467C589.735 16.2515 589.735 27.7683 589.799 39.2851C589.799 42.9961 590.621 46.6431 591.633 50.1621C591.697 50.3541 591.697 50.546 591.76 50.8019C586.382 50.8019 581.131 50.8019 575.753 50.8019C576.069 49.6503 576.323 48.5625 576.576 47.4748C577.335 44.5956 577.651 41.6525 577.651 38.7093C577.651 28.664 577.651 18.6188 577.651 8.57361C577.651 7.29396 577.651 5.95031 577.714 4.67066C577.714 4.1588 577.525 4.03084 577.019 4.03084C574.614 4.03084 572.653 4.99061 570.818 6.4622C568.288 8.50963 566.263 11.0689 564.365 13.6282C563.606 14.6519 562.847 15.6757 561.898 16.6994C561.834 15.6757 561.771 14.6519 561.771 13.6282C561.771 9.66128 561.771 5.63043 561.771 1.66352C561.771 0.831755 562.151 0.895729 562.783 0.895729C567.275 0.959712 571.767 0.959696 576.196 0.959696C584.737 0.959696 593.278 0.959696 601.819 0.959696C603.085 0.895714 604.413 0.895729 605.742 0.895729Z" fill="#686059"/>
<path d="M205.32 4.22284C205.32 4.54275 205.32 4.86266 205.32 5.18257C205.32 16.3795 205.384 27.6404 205.32 38.8373C205.32 42.2283 205.826 45.4914 206.712 48.6906C206.902 49.3304 207.028 50.0342 207.282 50.802C201.967 50.802 196.653 50.802 191.275 50.802C191.338 50.4821 191.401 50.0981 191.465 49.7782C192.857 45.3634 193.236 40.7567 193.236 36.15C193.173 25.9768 193.236 15.8036 193.236 5.63042C193.236 3.96688 193.426 4.09485 191.718 4.15883C190.009 4.22282 188.491 4.86265 187.099 5.88636C183.999 8.18973 181.595 11.1329 179.38 14.268C178.811 15.0998 178.178 15.9316 177.356 16.6994C177.356 11.4528 177.356 6.20627 177.356 0.959717C191.971 0.959717 206.586 0.959717 221.2 0.959717C221.2 6.20627 221.2 11.4528 221.2 16.6354C221.137 16.6354 221.074 16.6994 221.011 16.6994C220.505 16.0596 219.935 15.3558 219.429 14.6519C217.404 11.8367 215.317 9.0855 212.596 6.78213C210.508 5.05461 208.294 3.77496 205.32 4.22284Z" fill="#686059"/>
<path d="M133.638 13.2443C133.068 12.7325 132.562 12.2206 131.993 11.6448C129.715 9.34141 127.438 7.10203 124.591 5.43849C122.882 4.47875 121.111 3.83895 119.086 3.90293C116.935 3.96692 114.784 3.90293 112.57 3.90293C112.57 4.15886 112.506 4.35081 112.506 4.54276C112.506 10.6851 112.506 16.8273 112.443 22.9057C112.443 23.6095 112.696 23.7375 113.329 23.7375C117.062 23.6735 120.605 22.5858 124.021 21.2421C125.097 20.7943 126.236 20.3464 127.374 19.8985C127.374 23.3536 127.374 26.7446 127.374 30.2636C122.566 28.2162 117.758 26.2967 112.443 26.4247C112.443 26.6806 112.443 27.0006 112.443 27.2565C112.443 34.8064 112.443 42.3563 112.443 49.9062C112.443 50.674 112.317 50.9299 111.431 50.9299C107.318 50.866 103.269 50.9299 99.1569 50.9299C98.9038 50.9299 98.714 50.9299 98.3977 50.8659C98.7773 49.3943 99.2202 48.0507 99.41 46.6431C99.7896 44.3398 100.296 41.9724 100.296 39.6051C100.422 30.1357 100.359 20.6023 100.296 11.1329C100.296 8.06178 99.41 5.11857 98.6508 2.1114C98.3345 0.895733 98.3345 0.895757 99.5366 0.895757C110.545 0.895757 121.49 0.895757 132.499 0.895757C132.689 0.895757 132.942 0.895733 133.132 0.831751C133.638 0.767768 133.764 1.0237 133.764 1.47157C133.764 5.3745 133.764 9.27742 133.764 13.1164C133.828 13.1803 133.764 13.1804 133.638 13.2443Z" fill="#686059"/>
<path d="M267.26 0.95978C265.868 3.19916 264.539 5.11862 263.4 7.23004C261.059 11.6448 258.845 16.1236 256.567 20.5384C254.859 23.9934 253.088 27.3845 251.379 30.8395C251.253 31.0955 251.126 31.4154 251.126 31.6713C251.063 37.3657 250.81 43.0602 252.455 48.5626C252.645 49.2665 252.835 49.9703 253.024 50.802C247.583 50.802 242.332 50.802 236.954 50.802C237.397 48.9465 237.903 47.219 238.156 45.4275C238.473 43.2521 238.663 41.0767 238.789 38.9013C238.916 36.7259 238.852 34.5505 238.789 32.3751C238.789 31.8633 238.663 31.2234 238.41 30.7756C234.487 23.2257 230.628 15.6757 226.642 8.18977C225.44 5.95039 223.921 3.775 222.593 1.5996C222.529 1.47164 222.403 1.27969 222.213 0.95978C228.413 0.95978 234.487 0.95978 240.687 0.95978C240.561 1.66359 240.434 2.4314 240.308 3.26317C239.738 6.78219 240.181 10.1092 241.763 13.3084C244.104 18.171 246.381 23.0977 248.722 27.9603C248.785 28.0243 248.849 28.1523 248.975 28.3442C249.292 27.8323 249.545 27.4485 249.734 27.0006C251.759 22.8417 253.72 18.6829 255.745 14.588C257.706 10.6851 257.769 6.65422 256.884 2.49537C256.757 1.98351 256.631 1.40767 256.504 0.895813C260.174 0.959795 263.653 0.95978 267.26 0.95978Z" fill="#686059"/>
<path d="M493.505 85.8003C493.505 78.5703 493.505 71.3402 493.505 64.1102C493.821 64.1102 494.075 64.0463 494.391 64.0463C499.452 64.0463 504.514 63.9823 509.575 63.9823C511.979 63.9823 514.32 64.3662 516.282 65.9657C519.002 68.2051 518.749 71.9161 515.712 73.7076C515.143 74.0275 514.384 74.1555 513.688 74.3474C514.51 74.6673 515.269 74.9233 516.028 75.2432C517.99 76.011 519.192 77.3546 519.318 79.53C519.445 81.7054 518.496 83.3049 516.661 84.3926C514.953 85.4163 513.055 85.8003 511.157 85.8003C505.463 85.8642 499.705 85.8003 494.011 85.8003C493.821 85.8642 493.695 85.8642 493.505 85.8003ZM500.844 80.9376C503.881 80.9376 506.855 81.0016 509.828 80.9376C511.03 80.9376 511.726 80.1058 511.726 79.0181C511.726 77.8665 511.094 77.1627 509.828 77.0987C507.424 76.9707 505.02 76.9707 502.679 76.9707C502.11 76.9707 501.477 76.9707 500.844 76.9707C500.844 78.3143 500.844 79.594 500.844 80.9376ZM500.781 72.4279C503.565 72.4279 506.348 72.4919 509.069 72.4279C510.398 72.4279 510.967 71.4042 510.587 70.1246C510.271 69.1009 509.385 68.9729 508.563 68.9729C506.159 68.9089 503.755 68.9089 501.414 68.9089C501.224 68.9089 501.034 68.9089 500.781 68.9729C500.781 70.1246 500.781 71.2123 500.781 72.4279Z" fill="#686059"/>
<path d="M75.6215 51.6337C75.0521 51.6977 74.6725 51.7617 74.2296 51.7617C63.4741 51.7617 52.6553 51.7617 41.8998 51.7617C41.3936 51.7617 40.8242 51.7617 40.3181 51.6977C38.167 51.4418 36.9649 49.3304 37.9772 47.4109C39.3691 44.7876 40.8242 42.2283 42.2794 39.733C42.9753 38.5174 44.0509 38.0695 45.3795 38.0695C51.0103 38.0695 56.6412 38.0055 62.272 38.0055C63.7904 38.0055 65.3088 38.0695 66.8273 38.0695C67.3967 38.0695 67.713 38.3254 68.0294 38.8373C70.307 42.8042 72.5846 46.7071 74.799 50.61C75.1153 50.8659 75.3051 51.1858 75.6215 51.6337Z" fill="#A1A367"/>
<path d="M46.1387 32.3751C47.5938 29.9438 48.9224 27.5764 50.3143 25.2731C54.6165 17.9151 58.8555 10.5571 63.1577 3.13519C63.4741 2.55935 63.7904 2.04749 64.17 1.53563C65.4986 -0.255873 67.966 -0.127932 69.0416 1.79154C70.3702 4.15888 71.6989 6.52625 73.0275 8.8936C73.9132 10.4292 73.7866 11.8368 72.9009 13.3084C69.4212 19.1947 65.9415 25.1451 62.525 31.0955C61.8924 32.1832 61.1964 32.5031 60.0576 32.5031C55.7554 32.4391 51.3899 32.4391 47.0877 32.4391C46.8346 32.4391 46.5183 32.4391 46.1387 32.3751Z" fill="#656635"/>
<path d="M77.3296 16.3796C79.6705 20.4744 81.9481 24.5053 84.1625 28.4722C87.579 34.4226 90.9321 40.4369 94.3486 46.3873C94.9813 47.475 95.5507 48.5627 94.9813 49.8423C94.5384 50.93 93.7159 51.6338 92.5138 51.6338C89.6035 51.6338 86.6932 51.6338 83.8462 51.6978C82.5175 51.6978 81.5686 51.058 80.8726 49.9063C78.9746 46.5792 77.0765 43.2521 75.2418 39.9251C73.5968 37.0459 72.0151 34.1667 70.3069 31.2875C69.8007 30.4557 69.8007 29.8158 70.3069 28.9841C72.458 25.2091 74.5458 21.3702 76.6969 17.5952C76.8867 17.2113 77.0765 16.8275 77.3296 16.3796Z" fill="#878B30"/>
<path d="M437.703 86.696C434.286 86.6321 431.06 86.1202 428.149 84.2007C424.417 81.7694 422.962 78.1864 423.278 73.8996C423.594 69.9966 425.366 66.9254 428.972 65.1979C434.476 62.6386 440.107 62.5107 445.611 65.006C450.483 67.2454 452.255 71.6601 451.622 76.7147C450.989 81.7054 447.383 84.8405 442.511 85.9922C440.993 86.3761 439.348 86.4401 437.703 86.696ZM437.26 80.6817C438.082 80.6177 438.778 80.5537 439.474 80.4257C442.321 80.0418 444.093 78.1224 444.283 75.3072C444.409 72.364 442.828 70.0606 439.917 69.5487C438.462 69.2928 436.88 69.2928 435.362 69.4848C432.578 69.8687 430.807 72.044 430.743 74.7953C430.68 77.5465 432.199 79.594 434.919 80.3618C435.742 80.5537 436.564 80.6177 437.26 80.6817Z" fill="#686059"/>
<path d="M320.341 67.1815C318.949 68.2692 317.684 69.1649 316.418 70.1247C315.216 71.0204 315.216 71.0204 313.888 70.3166C311.041 68.717 308.004 68.6531 305.03 69.7408C302.942 70.5086 301.804 72.1081 301.677 74.4114C301.551 76.7148 302.057 78.8263 304.271 79.978C305.283 80.4898 306.422 80.8737 307.561 81.0017C309.269 81.1936 311.041 81.1936 312.686 80.4898C314.141 79.9139 314.331 79.594 314.014 77.9305C312.306 77.9305 310.598 77.9305 308.89 77.9305C308.194 77.9305 307.941 77.7385 308.004 76.9707C308.067 75.7551 308.004 74.4754 308.004 73.1318C312.306 73.1318 316.672 73.1318 321.1 73.1318C321.1 73.4517 321.1 73.7077 321.1 74.0276C321.1 76.3949 321.1 78.6983 321.1 81.0656C321.1 81.8334 320.847 82.4093 320.278 82.8572C318.127 84.7766 315.533 85.9282 312.686 86.3121C308.89 86.888 305.094 86.824 301.361 85.4804C293.642 82.6652 292.503 74.3474 295.667 69.0369C296.616 67.4374 297.944 66.1577 299.653 65.39C305.853 62.5747 312.053 62.5747 318.127 65.7738C318.886 66.0937 319.519 66.6057 320.341 67.1815Z" fill="#686059"/>
<path d="M587.078 85.8643C584.484 85.8643 582.08 85.8643 579.676 85.8643C579.486 85.8643 579.17 85.6084 579.106 85.4165C578.664 84.5207 578.221 83.561 577.778 82.6013C577.651 82.3453 577.208 82.0894 576.955 82.0894C573.855 82.0254 570.755 82.0894 567.655 82.0894C567.022 82.0894 566.643 82.2813 566.39 82.9212C566.073 83.8169 565.63 84.5847 565.188 85.4165C565.061 85.6084 564.808 85.8643 564.618 85.8643C562.214 85.8643 559.873 85.8643 557.342 85.8643C557.469 85.5444 557.532 85.3525 557.659 85.1606C561.012 78.4424 564.365 71.7243 567.655 64.9422C567.971 64.3023 568.351 64.0464 569.047 64.0464C571.198 64.1104 573.349 64.1104 575.5 64.0464C576.07 64.0464 576.323 64.3023 576.576 64.7502C579.613 70.8925 582.649 76.9708 585.686 83.0491C586.129 84.0088 586.572 84.8406 587.078 85.8643ZM575.247 77.0988C574.235 74.8594 573.223 72.684 572.147 70.3166C571.071 72.684 570.059 74.8594 568.984 77.0988C571.198 77.0988 573.222 77.0988 575.247 77.0988Z" fill="#686059"/>
<path d="M362.857 85.8004C362.857 78.5704 362.857 71.4043 362.857 64.1743C365.325 64.1743 367.855 64.1743 370.386 64.1743C370.386 69.4848 370.386 74.7314 370.386 80.1059C374.688 80.1059 378.927 80.1059 383.166 80.1059C383.862 80.1059 384.052 80.2979 384.052 81.0017C383.989 82.6013 384.052 84.2008 384.052 85.8643C376.966 85.8004 369.943 85.8004 362.857 85.8004Z" fill="#686059"/>
</svg>
