<svg width="332" height="313" viewBox="0 0 332 313" fill="none" xmlns="http://www.w3.org/2000/svg">
<g clip-path="url(#clip0_3303_53)">
<path d="M210.303 221.852C209.288 225.013 208.406 227.847 207.465 230.659C205.752 235.774 204.003 240.878 202.268 245.985C201.678 247.722 200.476 248.589 198.661 248.588C197.479 248.588 196.294 248.527 195.12 248.61C194.402 248.662 194.107 248.327 193.917 247.751C191.672 240.93 189.384 234.123 187.22 227.274C186.679 225.557 186.217 223.826 185.312 222.164C184.966 223.755 184.555 225.334 184.283 226.939C183.761 230.005 183.341 233.089 182.837 236.158C182.318 239.311 181.762 242.457 181.201 245.604C181.079 246.289 180.835 246.937 180.818 247.656C180.809 248.012 180.716 248.602 180.021 248.593C177.577 248.567 175.133 248.585 172.703 248.585C173.171 245.851 173.613 243.251 174.061 240.652C174.557 237.772 175.014 234.883 175.575 232.014C176.174 228.962 176.497 225.864 177.177 222.82C177.69 220.522 177.934 218.16 178.334 215.833C178.876 212.684 179.516 209.548 179.976 206.384C180.098 205.55 180.395 205.516 181.022 205.522C183.052 205.545 185.088 205.596 187.115 205.499C187.98 205.459 188.213 205.86 188.431 206.533C191.479 215.951 194.541 225.365 197.603 234.777C197.64 234.891 197.728 234.992 197.927 235.327C198.896 232.418 199.804 229.701 200.705 226.984C202.979 220.146 205.251 213.308 207.516 206.47C207.729 205.831 208.041 205.49 208.798 205.513C210.78 205.57 212.767 205.582 214.749 205.513C215.614 205.482 215.9 205.894 216.014 206.617C216.961 212.632 217.826 218.662 218.877 224.657C220.057 231.375 221.339 238.075 222.271 244.836C222.399 245.756 222.666 246.656 222.81 247.573C222.904 248.169 222.892 248.648 221.988 248.613C219.912 248.536 217.831 248.567 215.753 248.602C215.095 248.613 214.965 248.407 214.851 247.736C214.134 243.521 213.649 239.268 212.77 235.072C212.118 231.948 211.724 228.77 211.191 225.62C210.995 224.474 210.964 223.279 210.303 221.849V221.852Z" fill="#231F20"/>
<path d="M65.8454 247.662C63.8663 244.504 61.873 241.351 59.8882 238.199C58.2153 235.542 56.5453 232.882 54.8752 230.226C54.3762 229.432 54.8752 229.478 55.4763 229.355C58.7654 228.693 61.3456 226.99 63.027 223.981C64.2944 221.708 64.5156 219.224 64.3143 216.742C64.008 212.927 62.5677 209.703 59.1453 207.574C56.5283 205.946 53.5936 205.803 50.7384 205.662C45.836 205.419 40.9166 205.568 36.0056 205.522C35.3337 205.516 35.1352 205.705 35.138 206.402C35.1579 220.144 35.1607 233.886 35.1323 247.627C35.1295 248.524 35.4868 248.616 36.2126 248.602C38.101 248.562 39.995 248.516 41.8778 248.616C43.0233 248.676 43.3862 248.404 43.3692 247.166C43.2898 242.013 43.3295 236.86 43.3465 231.707C43.3493 231.318 43.1083 230.825 43.596 230.547C44.2396 230.177 46.1195 230.667 46.542 231.335C50.0579 236.909 53.5709 242.486 57.0528 248.08C57.3392 248.536 57.6482 248.593 58.0849 248.59C60.7757 248.585 63.4665 248.588 66.2537 248.588C66.1006 248.235 66.0098 247.926 65.8454 247.662ZM48.402 222.353C46.8369 222.353 45.6091 222.316 44.3842 222.367C43.6414 222.399 43.2926 222.253 43.3153 221.382C43.3748 219.095 43.3578 216.808 43.321 214.521C43.3096 213.804 43.4684 213.509 44.2453 213.543C47.2395 213.669 50.245 213.343 53.2307 213.862C54.983 214.168 56.3411 215.558 56.412 217.263C56.5311 220.184 55.723 221.413 53.5142 221.946C51.7081 222.382 49.8849 222.299 48.402 222.353Z" fill="#231F20"/>
<path d="M143.195 226.838C143.096 222.453 142.203 218.338 139.968 214.584C138.182 211.58 135.758 209.107 132.602 207.651C129.435 206.187 125.936 205.823 122.491 205.642C118.674 205.442 114.841 205.593 111.016 205.51C109.944 205.487 109.593 205.728 109.604 206.892C109.664 213.575 109.632 220.255 109.632 226.939V247.412C109.632 248.009 109.445 248.639 110.48 248.605C116.074 248.43 121.683 248.894 127.271 248.281C133.54 247.596 138.012 244.269 140.876 238.692C142.778 234.986 143.289 231 143.195 226.838ZM134.221 233.404C132.61 237.858 129.316 240.334 124.649 240.531C122.67 240.615 120.685 240.514 118.706 240.603C117.756 240.646 117.645 240.251 117.654 239.44C117.688 235.29 117.668 231.137 117.668 226.987C117.668 222.837 117.699 218.782 117.645 214.681C117.634 213.692 117.883 213.354 118.896 213.397C120.713 213.475 122.516 213.661 124.325 213.839C128.457 214.24 131.476 216.24 133.47 219.803C134.394 221.456 134.958 223.305 134.933 225.268C134.893 227.996 135.179 230.759 134.221 233.404Z" fill="#231F20"/>
<path d="M286.23 229.552C290.434 228.896 293.202 226.953 294.869 223.895C296.193 221.47 296.032 218.888 295.949 216.318C295.802 211.812 292.802 207.754 288.674 206.505C286.629 205.886 284.486 205.674 282.373 205.619C277.652 205.496 272.929 205.582 268.208 205.51C267.215 205.496 266.949 205.76 266.96 206.768C267.017 211.394 266.986 216.022 266.986 220.651C266.986 229.572 266.997 238.494 266.966 247.415C266.966 248.324 267.159 248.653 268.117 248.61C270.003 248.533 271.897 248.522 273.782 248.613C274.843 248.668 275.115 248.367 275.101 247.289C275.041 242.088 275.067 236.889 275.086 231.687C275.086 231.257 274.831 230.71 275.387 230.401C276.096 230.005 277.823 230.449 278.265 231.146C281.792 236.737 285.328 242.323 288.824 247.934C289.119 248.404 289.397 248.596 289.921 248.593C292.558 248.579 295.195 248.588 298.144 248.588C294.109 242.139 290.188 235.88 286.23 229.552ZM280.167 222.353C278.608 222.353 277.38 222.325 276.155 222.365C275.413 222.39 275.035 222.23 275.055 221.356C275.109 219.069 275.103 216.779 275.058 214.492C275.041 213.701 275.35 213.518 276.053 213.549C279.053 213.684 282.059 213.334 285.053 213.876C286.428 214.125 288.041 215.117 288.299 217.716C288.438 219.143 287.732 221.207 285.801 221.774C283.828 222.353 281.838 222.307 280.167 222.353Z" fill="#231F20"/>
<path d="M104.832 240.122C101.937 232.573 99.0252 225.027 96.133 217.475C94.6927 213.715 93.258 209.952 91.8828 206.167C91.6843 205.619 91.4178 205.536 90.9698 205.536C88.7015 205.536 86.436 205.542 84.1677 205.53C83.663 205.527 83.2547 205.608 83.0534 206.158C82.3984 207.941 81.7321 209.72 81.0572 211.497C78.3041 218.762 75.5622 226.033 72.7864 233.289C70.9746 238.021 69.1089 242.732 67.28 247.461C67.0419 248.077 66.9001 248.633 67.9549 248.605C70.1721 248.547 72.3951 248.576 74.6152 248.596C75.2106 248.602 75.497 248.441 75.7267 247.808C76.5886 245.441 77.6207 243.137 78.46 240.761C78.7577 239.912 79.1518 239.7 79.9684 239.706C85.024 239.735 90.0795 239.743 95.135 239.7C96.0508 239.692 96.3882 240.013 96.6746 240.867C97.443 243.148 98.3787 245.369 99.1924 247.636C99.4335 248.304 99.7283 248.619 100.48 248.605C102.935 248.559 105.391 248.588 108.036 248.588C106.925 245.647 105.89 242.882 104.832 240.122ZM81.9022 231.659C82.9371 228.905 83.9323 226.239 84.9389 223.58C85.5287 222.024 86.1638 220.485 86.7167 218.917C86.8897 218.424 87.1618 217.96 87.6013 217.971C87.9955 217.98 88.0153 218.576 88.1627 218.951C89.6627 222.734 91.1853 226.506 92.6994 230.283C92.8723 230.713 93.0169 231.154 93.1984 231.659H81.9022Z" fill="#231F20"/>
<path d="M264.856 247.008C264.411 245.753 263.768 244.587 263.422 243.274C262.75 240.729 261.46 238.411 260.606 235.912C259.747 233.395 258.658 230.954 257.782 228.429C256.654 225.173 255.358 221.978 254.136 218.754C252.573 214.627 251.008 210.5 249.452 206.37C249.236 205.794 248.944 205.493 248.238 205.513C246.069 205.573 243.894 205.57 241.722 205.516C240.903 205.496 240.639 205.891 240.381 206.582C237.852 213.366 235.346 220.158 232.703 226.898C231.407 230.206 230.213 233.55 228.827 236.826C227.214 240.64 225.898 244.581 224.409 248.588C226.876 248.588 229.334 248.547 231.787 248.61C232.697 248.633 233.043 248.301 233.338 247.456C234.132 245.169 235.054 242.927 235.941 240.672C236.173 240.082 236.485 239.692 237.276 239.698C242.471 239.743 247.665 239.723 252.86 239.715C253.359 239.715 253.611 239.763 253.832 240.374C254.649 242.641 255.616 244.85 256.523 247.086C256.775 247.705 256.897 248.536 257.711 248.565C259.693 248.636 261.681 248.653 263.66 248.553C264.442 248.516 265.231 248.06 264.856 247.008ZM240.129 231.696C239.091 231.693 239.596 231.14 239.777 230.667C241.28 226.772 242.774 222.872 244.257 218.969C244.467 218.413 244.595 217.825 245.057 217.283C246.945 222.107 248.794 226.824 250.702 231.699C247.073 231.699 243.599 231.705 240.129 231.696Z" fill="#231F20"/>
<path d="M331.78 248.59C328.707 248.59 325.871 248.565 323.039 248.61C322.378 248.622 322.058 248.35 321.715 247.845C317.938 242.297 314.138 236.766 310.347 231.229C310.084 230.845 309.817 230.478 309.25 230.231C309.227 230.724 309.188 231.172 309.188 231.619C309.182 236.866 309.157 242.116 309.208 247.364C309.219 248.387 308.913 248.651 307.937 248.613C305.955 248.539 303.971 248.559 301.989 248.608C301.22 248.625 300.94 248.439 300.942 247.599C300.968 233.906 300.968 220.212 300.942 206.516C300.942 205.645 301.28 205.51 302.017 205.525C304.047 205.565 306.08 205.582 308.107 205.519C309.009 205.49 309.208 205.817 309.199 206.665C309.162 211.05 309.182 215.435 309.182 220.224C310.656 218.361 311.915 216.785 313.16 215.194C315.497 212.208 317.824 209.219 320.158 206.23C320.45 205.854 320.719 205.522 321.295 205.528C324.255 205.556 327.212 205.542 330.425 205.542C327.896 208.832 325.522 211.933 323.132 215.019C320.699 218.163 318.258 221.304 315.791 224.419C315.508 224.775 315.593 224.852 315.825 225.193C320.005 231.283 324.11 237.425 328.327 243.489C329.458 245.117 330.533 246.773 331.78 248.593V248.59Z" fill="#231F20"/>
<path d="M146.444 226.987C146.444 220.258 146.464 213.529 146.425 206.8C146.419 205.837 146.612 205.502 147.644 205.51C154.588 205.559 161.532 205.55 168.473 205.516C169.411 205.51 169.814 205.691 169.766 206.751C169.678 208.657 169.695 210.569 169.76 212.477C169.791 213.377 169.496 213.604 168.634 213.595C164.384 213.555 160.131 213.606 155.881 213.555C154.843 213.541 154.378 213.715 154.46 214.913C154.576 216.624 154.571 218.352 154.46 220.063C154.386 221.198 154.8 221.373 155.807 221.359C160.009 221.301 164.214 221.37 168.419 221.31C169.454 221.296 169.831 221.513 169.763 222.631C169.658 224.342 169.672 226.067 169.757 227.781C169.814 228.879 169.527 229.251 168.371 229.228C164.217 229.154 160.057 229.251 155.903 229.165C154.678 229.14 154.426 229.521 154.46 230.679C154.545 233.539 154.551 236.408 154.457 239.268C154.42 240.4 154.798 240.575 155.801 240.56C160.052 240.503 164.302 240.56 168.555 240.517C169.445 240.509 169.8 240.692 169.76 241.681C169.681 243.681 169.712 245.69 169.749 247.693C169.76 248.367 169.567 248.605 168.875 248.602C161.696 248.582 154.517 248.567 147.338 248.613C146.209 248.619 146.444 247.943 146.444 247.318C146.442 240.54 146.444 233.765 146.444 226.987Z" fill="#231F20"/>
<path d="M20.72 231.1C20.72 236.542 20.6974 241.984 20.7399 247.424C20.7484 248.349 20.5216 248.647 19.5802 248.61C17.6465 248.536 15.7042 248.524 13.7705 248.61C12.7214 248.659 12.4378 248.384 12.4407 247.289C12.4889 237.694 12.469 228.099 12.469 218.504C12.469 217.263 12.4123 216.019 12.4889 214.781C12.5456 213.861 12.2904 213.572 11.3405 213.592C8.2698 213.658 5.19906 213.575 2.12833 213.641C1.16429 213.661 0.948803 213.345 0.979993 212.44C1.04521 210.58 1.06222 208.714 0.974322 206.857C0.92612 205.805 1.19265 205.499 2.28144 205.504C10.8812 205.556 19.4781 205.533 28.0779 205.533C29.2603 205.533 30.4398 205.559 31.6221 205.524C32.2346 205.507 32.4529 205.725 32.4472 206.347C32.4246 208.493 32.4019 210.643 32.4586 212.789C32.4813 213.698 31.9709 213.626 31.3811 213.623C28.2622 213.615 25.1433 213.666 22.0272 213.592C20.9837 213.566 20.6803 213.815 20.6917 214.913C20.7541 220.307 20.72 225.7 20.72 231.094V231.1Z" fill="#231F20"/>
<path d="M97.7152 290.309C100.454 290.309 103.196 290.338 105.935 290.292C106.689 290.281 106.896 290.504 106.859 291.252C106.499 298.683 103.854 304.92 97.4572 309.029C94.8203 310.723 91.8289 311.58 88.6674 311.844C87.4596 311.944 86.2573 312.036 85.0466 312.079C77.7767 312.325 71.7231 309.565 66.9199 304.197C63.6025 300.492 61.5554 296.095 61.459 290.948C61.4022 287.899 61.6886 284.999 62.7377 282.024C63.7216 279.23 64.9692 276.647 66.8434 274.544C69.9623 271.048 73.844 268.629 78.5366 267.64C80.5866 267.21 82.6564 266.763 84.7036 266.866C89.467 267.101 94.0745 268.033 98.2794 270.575C100.12 271.687 101.872 272.865 103.443 274.323C103.942 274.788 104.231 275.252 103.494 275.791C103.153 276.04 102.887 276.39 102.586 276.693C100.948 278.353 101.007 278.278 99.1896 276.751C96.771 274.716 94.0632 273.24 91.0407 272.174C88.8688 271.409 86.6968 271.079 84.5193 271.159C77.805 271.412 72.2562 274.146 68.5475 279.946C66.6251 282.952 65.3775 286.36 65.7546 290.017C66.4691 296.972 69.7015 302.392 76.0131 305.604C78.0319 306.63 80.0393 308.018 82.5373 307.31C85.9625 309.089 89.2345 307.717 92.4045 306.602C95.9913 305.341 98.7813 302.974 100.369 299.34C100.925 298.07 101.605 296.898 101.778 295.451C101.903 294.413 101.512 294.485 100.82 294.488C97.1821 294.505 93.5415 294.433 89.9065 294.525C88.6306 294.559 88.3187 294.187 88.3669 292.937C88.4661 290.312 88.3952 290.309 91.052 290.309C93.2721 290.309 95.4922 290.309 97.7124 290.309H97.7152Z" fill="#231F20"/>
<path d="M175.397 284.821C173.936 275.862 165.768 266.978 153.309 266.872C146.561 266.812 140.66 269.397 136.294 274.75C131.859 280.19 130.189 286.503 131.207 293.519C132.389 301.647 141.006 312.778 152.027 312.162C160.811 312.093 166.516 309.061 171.05 303.647C175.663 298.142 176.508 291.625 175.397 284.821ZM167.066 301.65C162.72 306.88 156.762 308.379 150.289 307.734C145.378 307.247 141.791 304.172 138.746 300.535C135.959 297.207 135.009 292.917 135.111 288.871C135.211 284.97 136.52 280.961 139.254 277.8C141.219 275.527 143.504 273.653 146.252 272.397C147.939 271.626 149.932 271.758 151.477 270.572C155.512 271.377 159.791 271.477 163.335 273.833C165.782 275.461 167.922 277.628 169.38 280.23C170.318 281.906 170.715 283.89 171.044 284.832C172.232 291.696 170.846 297.099 167.066 301.65Z" fill="#231F20"/>
<path d="M205.055 296.133C204.34 291.951 201.556 289.358 197.646 287.976C197.303 287.856 196.863 287.77 196.775 287.455C196.679 287.102 197.116 287.033 197.391 286.862C203.476 283.07 203.081 273.627 197.606 270.004C195.176 268.397 192.347 268.058 189.528 267.944C186.75 267.829 183.959 267.964 181.175 267.872C180.092 267.835 179.86 268.164 179.868 269.216C179.916 275.942 179.891 282.666 179.891 289.392C179.891 296.118 179.913 302.936 179.868 309.708C179.862 310.691 180.086 310.998 181.096 310.978C184.683 310.912 188.272 310.932 191.859 310.958C195.902 310.987 199.353 309.754 202.219 306.708C205.109 303.638 205.716 299.99 205.055 296.133ZM184.011 273.214C184.002 272.297 184.328 272.051 185.165 272.108C185.326 272.119 185.488 272.125 185.649 272.134C186.069 272.145 186.489 272.139 186.908 272.134C187.178 272.128 187.447 272.122 187.714 272.122C187.997 272.119 188.281 272.125 188.561 272.137C188.78 272.142 188.998 272.154 189.216 272.165C189.432 272.18 189.65 272.197 189.868 272.217C190.084 272.237 190.299 272.26 190.518 272.286C190.733 272.309 190.949 272.337 191.167 272.369C191.408 272.403 191.649 272.44 191.887 272.48C192.049 272.509 192.211 272.538 192.375 272.566C192.622 272.612 192.871 272.661 193.121 272.713C196.656 273.438 198.256 277.224 197.184 280.482C196.228 283.377 194.218 284.87 191.241 285.517C189.188 285.964 187.181 285.772 185.156 285.91C184.32 285.967 183.999 285.732 184.011 284.81C184.062 280.946 184.059 277.08 184.011 273.214ZM200.929 298.895C200.742 302.601 198.613 305.255 194.791 306.241C191.487 307.095 188.062 306.639 184.685 306.719C183.948 306.736 184.033 306.212 184.033 305.736C184.03 303.306 184.033 300.876 184.033 298.448C184.033 296.021 184.025 293.682 184.039 291.301C184.042 290.871 183.835 290.26 184.62 290.266C188.295 290.301 192.001 290.077 195.559 291.318C199.285 292.619 201.091 295.697 200.929 298.895Z" fill="#231F20"/>
<path d="M247.033 309.731C245.269 305.905 243.509 302.074 241.734 298.253C240.228 295.018 238.703 291.797 237.186 288.567C235.601 285.188 234.007 281.815 232.431 278.43C230.914 275.172 229.4 271.913 227.922 268.634C227.715 268.176 227.494 267.955 227.004 267.961C226.485 267.964 226.332 268.276 226.136 268.706C225.118 270.927 224.259 273.237 223.153 275.395C221.146 279.307 219.419 283.348 217.48 287.289C215.574 291.166 213.873 295.144 212.044 299.062C210.201 303.005 208.31 306.929 206.396 310.952C207.802 310.952 209.115 310.909 210.425 310.969C211.108 311.001 211.417 310.703 211.678 310.13C213.553 306.046 215.478 301.988 217.318 297.89C217.681 297.078 218.092 296.803 218.971 296.809C224.072 296.855 229.176 296.909 234.274 296.786C235.805 296.749 236.485 297.331 237.066 298.635C238.771 302.463 240.58 306.246 242.366 310.038C242.542 310.413 242.544 310.972 243.214 310.961C244.606 310.929 245.998 310.949 247.557 310.949C247.325 310.411 247.186 310.067 247.033 309.731ZM219.892 292.527C222.297 287.383 224.664 282.322 227.131 277.054C229.55 282.371 231.722 287.486 234.401 292.527H219.892Z" fill="#231F20"/>
<path d="M250.606 289.381C250.606 282.654 250.634 275.931 250.577 269.205C250.569 268.116 250.858 267.852 251.91 267.872C254.87 267.929 254.873 267.878 254.873 270.804C254.873 282.299 254.898 293.794 254.839 305.289C254.833 306.593 255.19 306.863 256.41 306.843C260.941 306.768 265.474 306.837 270.005 306.791C270.927 306.782 271.315 306.917 271.298 307.992C271.25 310.952 271.307 310.952 268.378 310.952C262.903 310.952 257.425 310.915 251.95 310.984C250.801 310.998 250.572 310.646 250.577 309.557C250.625 302.83 250.603 296.107 250.603 289.381H250.606Z" fill="#231F20"/>
<path d="M111.399 289.346C111.399 282.62 111.419 275.897 111.379 269.17C111.373 268.21 111.563 267.861 112.598 267.872C115.669 267.906 115.669 267.855 115.669 270.982C115.669 282.428 115.686 293.877 115.643 305.324C115.638 306.481 115.89 306.86 117.101 306.843C121.68 306.768 126.259 306.842 130.838 306.788C131.811 306.777 132.111 307.009 132.094 308.026C132.049 310.952 132.097 310.952 129.143 310.952C123.668 310.952 118.19 310.924 112.714 310.978C111.685 310.987 111.365 310.775 111.373 309.665C111.43 302.893 111.402 296.118 111.402 289.346H111.399Z" fill="#231F20"/>
<path d="M269.9 269.744C269.416 270.747 268.908 271.741 268.46 272.761C268.29 273.151 268.1 273.409 267.658 273.392C267.11 273.372 267.363 272.887 267.247 272.63C266.779 271.612 266.359 270.575 265.684 269.569C265.684 270.612 265.687 271.652 265.684 272.695C265.684 273.022 265.73 273.386 265.225 273.395C264.703 273.403 264.766 273.028 264.763 272.704C264.757 271.466 264.737 270.225 264.774 268.99C264.785 268.634 264.502 268.058 265.191 267.998C265.696 267.955 266.2 267.901 266.475 268.551C266.852 269.44 267.32 270.291 267.859 271.377C268.426 270.34 268.951 269.534 269.316 268.66C269.611 267.958 270.099 267.927 270.677 267.995C271.446 268.084 271.134 268.712 271.148 269.116C271.191 270.211 271.182 271.308 271.151 272.403C271.14 272.773 271.386 273.349 270.694 273.383C269.974 273.42 270.204 272.83 270.193 272.46C270.164 271.569 270.184 270.678 270.184 269.784L269.903 269.744H269.9Z" fill="#231F20"/>
<path d="M261.377 267.984C261.612 267.984 261.856 267.944 262.08 267.992C262.585 268.101 263.447 267.649 263.538 268.308C263.674 269.314 262.732 268.68 262.296 268.804C261.805 268.941 261.905 269.262 261.902 269.563C261.888 270.606 261.899 271.652 261.893 272.695C261.893 273.022 261.941 273.392 261.434 273.392C260.943 273.392 260.957 273.042 260.957 272.707C260.955 271.804 260.923 270.901 260.963 270.001C260.994 269.311 260.878 268.93 260.047 269.084C259.682 269.153 259.041 269.377 259.075 268.526C259.109 267.694 259.718 268.041 260.11 267.995C260.527 267.947 260.955 267.984 261.377 267.984Z" fill="#231F20"/>
<path d="M123.146 12.2316C122.97 12.3062 122.794 12.3864 122.621 12.4752C122.451 12.5612 122.281 12.6472 122.114 12.7418C122.001 12.7991 121.893 12.8621 121.785 12.9309C121.655 13.0054 121.53 13.0857 121.405 13.1803C121.365 13.2089 121.326 13.2376 121.286 13.2662C121.218 13.3178 121.156 13.3637 121.093 13.421C120.968 13.5184 120.849 13.6302 120.736 13.7448C120.674 13.8079 120.611 13.8709 120.554 13.9397C120.481 14.02 120.407 14.1117 120.339 14.2062C120.288 14.2693 120.237 14.3381 120.192 14.4126C120.18 14.424 120.169 14.4412 120.158 14.4584L124.059 11.8447C123.758 11.9708 123.449 12.0998 123.149 12.2316H123.146ZM120.047 14.533V14.5387C120.07 14.5272 120.098 14.5158 120.121 14.51C120.132 14.4928 120.143 14.4756 120.155 14.4584H120.07C120.064 14.4814 120.053 14.5043 120.047 14.533ZM119.656 14.6705C119.746 14.7393 119.843 14.8081 119.934 14.8855C119.951 14.8281 119.968 14.7708 119.99 14.7135C120.007 14.6505 120.024 14.5931 120.047 14.5415H120.041C119.917 14.5817 119.786 14.6333 119.656 14.6734V14.6705ZM254.788 79.3996C254.612 75.0262 253.764 70.6213 251.972 66.4887C251.978 69.0508 252.358 71.5556 252.616 74.0776C253.265 80.5746 252.996 87.0228 252.185 93.5313C251.53 98.7644 250.2 102.691 244.535 103.926C240.679 104.774 237.418 107.474 233.511 108.104C233.511 106.568 233.403 105.213 233.528 103.886C233.908 99.8878 234.172 95.6434 233.551 91.9235C232.544 85.8765 232.003 79.6604 230.12 73.7509C229.153 70.7044 229.028 67.3743 227.044 64.6832C226.094 68.2426 227.903 71.3779 228.614 74.6622C229.496 78.7318 230.106 82.787 230.463 86.9541C230.735 90.0865 231.628 93.2046 231.628 96.4115C231.628 99.9652 231.526 103.516 231.555 107.07C231.572 108.635 230.996 109.5 229.496 110.024C223.193 112.223 216.901 114.469 210.649 116.822C208.579 117.602 207.873 116.799 207.703 114.882C206.901 105.938 205.149 97.1595 202.852 88.4959C202.299 86.4067 203.238 83.8503 201.015 82.1938C200.595 81.8757 201.292 81.506 201.738 81.3226C205.821 79.626 209.906 77.9236 213.978 76.1926C216.754 75.009 219.513 73.7738 222.459 72.4813C221.024 71.7763 220.012 72.4641 218.988 72.7822C213.283 74.5648 207.584 76.3732 201.894 78.2074C200.649 78.6057 199.79 78.8293 199.688 76.9492C199.591 75.0807 197.419 73.0946 198.477 71.6387C199.364 70.415 201.857 70.3978 203.569 69.7816C210.071 67.4488 216.881 66.3139 223.423 64.1731C224.645 63.7747 225.802 64.4339 226.984 64.5886C226.95 63.918 226.837 63.1757 227.735 63.0124C230.738 62.4707 233.537 61.184 236.548 60.5821C240.166 59.8656 243.693 58.6591 247.254 57.6618C240.543 56.9281 234.149 58.4757 227.733 59.5905C226.207 59.857 225.867 59.5561 225.365 58.4012C220.514 47.2041 213.833 37.2967 205.098 28.8366C203.921 27.6931 202.875 26.4121 201.463 24.8559C208.242 23.3484 214.556 21.9413 220.877 20.5341C213.981 20.6258 207.139 21.1818 200.445 22.824C199.495 23.0561 198.925 23.102 198.199 22.4543C188.374 13.762 177.152 7.63475 163.916 3.53652C170.775 2.16949 176.908 1.18076 183.285 1.74247C182.899 0.905632 182.227 0.785264 181.601 0.656299C175.884 -0.527315 170.197 0.0687911 164.517 0.968681C161.77 1.40716 158.954 2.53346 156.292 2.22108C151.645 1.68515 147.105 1.57338 142.515 2.56785C143.447 3.39323 144.709 2.9834 145.71 3.4964L145.676 3.54225C145.693 3.52506 145.704 3.51359 145.721 3.50213C145.807 3.41615 145.892 3.34164 145.982 3.26426C146.022 3.22987 146.067 3.19548 146.113 3.16682C146.186 3.1095 146.266 3.05792 146.345 3.01206C146.425 2.96621 146.504 2.92609 146.583 2.8917C146.742 2.81718 146.901 2.7656 147.068 2.72547C147.114 2.71401 147.159 2.70828 147.199 2.69681C147.289 2.67962 147.38 2.66816 147.471 2.65669C148.855 2.50767 150.394 3.15822 152.158 2.73694C151.418 3.34737 150.712 3.71134 150.043 3.91482C149.872 3.96641 149.708 4.00653 149.535 4.04092C149.422 4.06385 149.308 4.08104 149.189 4.09824C149.076 4.11543 148.962 4.12689 148.849 4.13836C148.673 4.15555 148.497 4.16702 148.319 4.16702C147.822 4.17848 147.335 4.14982 146.85 4.13263C146.161 5.7146 144.533 5.41941 143.3 5.8235C141.355 6.46546 139.129 6.47693 137.391 7.43987C135.378 8.5547 133.319 9.21672 130.969 9.49471C132.443 8.21939 133.915 6.93834 135.531 5.53691C134.394 5.06977 133.824 5.50252 133.22 5.74326C119.962 11.1225 108.521 19.2015 99.3344 30.2581C89.2488 42.3952 81.9165 55.8935 79.2711 71.9196C78.7125 75.2841 78.083 78.8923 77.6832 82.2511C76.8695 89.1407 76.8525 96.2911 78.1681 103.138C79.4582 109.861 81.0007 116.579 83.6858 122.996C89.4984 136.875 97.6104 148.972 109.097 158.656C114.694 163.376 120.685 167.56 127.232 170.736C137.933 175.917 149.178 179.201 161.135 179.832C169.513 180.276 177.858 179.969 185.976 178.118C191.782 176.791 197.283 174.112 202.928 172.037C203.014 172.002 203.116 171.997 203.201 171.956C206.501 170.323 209.351 167.904 212.79 166.485C218.421 164.173 222.238 159.335 226.817 155.595C231.926 151.422 235.975 146.138 239.74 140.635C245.783 131.817 250.002 122.139 252.676 111.839C254.309 105.559 255.156 99.0682 255.587 92.5397C255.882 88.1061 254.967 83.7901 254.791 79.4053L254.788 79.3996ZM207.119 126.652C208.37 130.005 205.168 129.937 203.263 130.295C190.827 132.639 178.921 136.78 167.015 140.953C165.206 141.581 162.442 139.695 162.453 137.804C162.459 137.081 163.148 137.139 163.409 137.053C168.813 135.373 174.263 133.837 179.661 132.129C187.586 129.624 195.491 127.022 203.172 123.818C206.711 122.345 207.153 122.388 207.119 126.652ZM207.119 138.073C207.61 142.091 206.345 146.642 205.891 151.27C205.733 152.915 204.925 153.815 203.172 154.357C195.925 156.607 188.882 159.521 181.3 160.648C179.959 160.842 179.276 160.751 178.416 159.874C174.35 155.724 170.988 151.021 167.625 146.295C166.528 144.748 166.851 144.189 168.495 143.478C180.407 138.331 192.613 134.107 205.168 130.88C207.028 130.401 207.233 130.874 207.142 132.473C207.051 134.101 207.119 135.74 207.119 138.07V138.073ZM200.172 84.5868C203.393 94.8467 204.701 105.514 206.555 116.069C206.844 117.742 206.124 118.407 204.667 118.909C198.534 121.027 192.375 123.231 186.157 124.841C177.529 127.085 168.881 129.343 160.219 131.49C159.32 131.711 158.951 131.364 158.535 130.533C155.759 124.964 153.221 119.296 150.8 113.572C150.179 112.114 150.913 111.79 151.948 111.363C155.787 109.792 159.615 108.176 163.446 106.58C163.355 106.436 163.264 106.29 163.179 106.147C159.368 107.531 155.529 108.841 151.769 110.348C150.284 110.947 149.603 110.781 149.073 109.188C148.248 106.677 147.207 104.235 146.263 101.765C145.716 100.346 146.053 99.693 147.664 99.2086C157.281 96.2997 166.925 93.4539 176.412 90.1123C183.285 87.6877 190.274 85.587 197.079 82.9848C199.262 82.148 199.696 83.0536 200.178 84.5897L200.172 84.5868ZM136.223 66.2451C134.703 65.265 136.257 64.2132 136.064 63.1872C135.25 58.8826 134.533 54.5523 133.807 50.2305C133.558 48.7173 133.756 47.783 135.582 47.0494C145.098 43.2349 154.701 39.6382 164.313 36.073C167.812 34.7805 171.458 34.0067 174.946 32.7486C176.33 32.2528 176.789 32.7142 177.433 33.637C182.899 41.4695 187.218 49.9468 191.147 58.6419C192.103 60.7598 192.883 62.9522 193.844 65.0644C194.805 67.188 194.212 68.2856 191.955 68.7126C186.693 69.7042 181.7 71.7247 176.579 73.1462C171.288 74.6107 166.097 76.3503 160.834 77.8835C155.39 79.4769 150.009 81.2366 144.729 83.3144C141.003 84.7788 140.867 84.8046 139.844 80.9758C138.843 77.2301 137.887 73.4672 136.915 69.71C137.21 68.406 137.473 67.0447 136.226 66.2422L136.223 66.2451ZM154.902 34.5455C148.645 36.48 142.415 38.4574 136.319 40.8476C134.323 41.6328 133.47 41.4637 133.362 38.9074C132.988 30.1521 132.866 30.0718 140.955 27.845C148.73 25.7042 156.315 23.0332 163.647 19.6801C165.252 18.9464 166.219 19.1499 167.27 20.4883C169.335 23.1077 171.509 25.6354 173.874 28.4927C167.543 31.3557 161.115 32.6253 154.902 34.5455ZM135.432 85.0769C135.5 86.3637 135.006 86.8308 133.901 87.2177C128.094 89.2726 122.329 91.4478 116.574 93.6516C114.702 94.3681 113.798 94.1188 113.194 91.9092C112.278 88.5217 111.926 85.0196 110.809 81.6378C110.245 79.9469 110.9 77.4192 110.968 75.2612C111.002 74.1808 112.145 74.1407 112.89 73.9802C118.748 72.7106 124.637 71.5671 130.484 70.2287C131.598 69.9736 131.734 70.0396 132.134 71.1401C133.801 75.7169 133.898 80.652 135.429 85.0769H135.432ZM116.883 98.859C121.643 97.1108 126.381 95.2995 131.133 93.5084C131.652 93.3135 132.174 93.1157 132.698 92.9266C137.601 91.1727 137.709 91.2873 138.667 96.4459C138.843 97.3916 138.491 97.8072 137.916 97.9763C131.131 99.9566 124.32 101.877 117.728 103.754C115.777 103.783 116.185 102.138 115.731 101.255C115.179 100.212 115.635 99.3147 116.885 98.859H116.883ZM118.3 129.59C120.557 130.306 121.048 133.318 122.483 135.239C122.857 135.74 123.415 136.313 122.879 137.01C122.488 137.517 121.839 137.305 121.093 137.357C119.865 137.038 118.419 136.763 117.056 136.276C115.788 135.82 114.512 135.104 114.997 133.39C115.51 131.567 117.22 129.24 118.303 129.587L118.3 129.59ZM118.624 109.067C117.974 107.594 118.556 107.098 119.982 106.729C126.154 105.147 132.296 103.427 138.457 101.799C139.203 101.604 140.147 101.031 140.652 102.198C142.092 105.482 142.727 109.076 144.451 112.102C144.695 113.194 143.921 113.343 143.354 113.593C137.451 116.149 131.522 118.665 125.641 121.267C124.64 121.712 124.11 121.637 123.673 120.62C122.006 116.759 120.322 112.91 118.621 109.067H118.624ZM127.15 123.374C132.372 120.465 137.72 117.817 143.121 115.283C144.823 114.481 145.585 114.914 146.348 116.605C148.514 121.388 150.859 126.099 153.179 130.814C153.68 131.84 154.265 132.682 152.518 133.006C146.705 134.092 140.901 135.216 135.094 136.325C133.49 136.603 132.613 135.772 131.845 134.502C130.115 131.645 128.329 128.819 126.514 126.008C125.757 124.835 125.74 124.156 127.147 123.377L127.15 123.374ZM198.193 79.3766C198.205 79.3365 197.431 79.4626 196.864 79.6489C192.103 81.1965 187.314 82.6667 182.545 84.2028C174.867 86.6789 167.151 89.0204 159.416 91.3074C154.883 92.64 150.389 94.1646 145.855 95.5259C144.369 95.9702 144.142 95.7266 143.853 94.371C143.53 92.8234 142.276 91.1956 142.586 89.8801C142.773 89.0777 145.118 88.7481 146.51 88.2752C154.316 85.6099 162.153 83.0478 169.924 80.288C177.081 77.7431 184.544 76.1898 191.564 73.2178C195.381 71.6015 198.383 73.9515 198.196 79.3766H198.193ZM200.674 26.3519C210.578 35.4368 218.319 46.095 223.621 58.5473C223.735 58.8139 223.831 59.0833 223.99 59.4759C223.899 61.0063 222.306 60.8257 221.492 61.0407C216.411 62.3848 211.27 63.4824 206.149 64.6603C204.255 65.093 202.356 65.4914 200.473 65.9585C196.362 66.9845 196.356 67.0017 194.831 63.1872C190.748 52.9502 185.513 43.3294 179.386 34.2216C177.946 32.0808 178.482 31.6309 180.625 31.0176C186.494 29.3496 192.31 27.4868 198.128 25.6383C199.214 25.2915 199.943 25.6784 200.671 26.349L200.674 26.3519ZM137.556 11.6413C141.259 10.28 145.001 9.01611 148.67 7.5717C149.067 7.41694 149.461 7.29371 149.841 7.21919C149.938 7.19627 150.034 7.17907 150.125 7.16761C150.187 7.15614 150.244 7.15041 150.306 7.14468C150.42 7.13322 150.533 7.12175 150.647 7.11029C150.76 7.10456 150.873 7.09883 150.987 7.09883C151.27 7.09883 151.545 7.12175 151.823 7.16761C151.959 7.1848 152.095 7.21346 152.232 7.24785C152.362 7.28224 152.498 7.31663 152.634 7.36249C152.77 7.40834 152.901 7.4542 153.037 7.51151C153.133 7.55164 153.23 7.59749 153.332 7.64335C153.615 7.78091 153.896 7.94426 154.174 8.12195C154.179 8.12195 154.185 8.12195 154.191 8.12768L154.168 8.09902C154.168 8.09902 154.185 8.09329 154.191 8.09329C154.123 7.98439 154.06 7.88695 154.009 7.79237C153.998 7.77518 153.987 7.76371 153.981 7.74652C153.936 7.66627 153.902 7.59749 153.868 7.52584C153.839 7.47999 153.817 7.4284 153.8 7.38255C153.754 7.29657 153.726 7.2106 153.703 7.13322C153.692 7.09883 153.686 7.07017 153.68 7.03578C153.652 6.89248 153.658 6.76925 153.686 6.65461C153.703 6.60876 153.72 6.5629 153.743 6.52278C153.765 6.48266 153.794 6.44254 153.822 6.40241C153.964 6.23619 154.202 6.0843 154.545 5.93527C154.704 5.86649 154.88 5.79771 155.087 5.72033C155.183 5.68021 155.291 5.64582 155.404 5.6057C158.954 4.38769 162.184 4.79751 165.564 5.81204C175.825 8.89287 184.932 14.232 193.574 20.4883C194.017 20.8121 194.269 21.4111 194.711 21.7521C196.73 23.2883 195.327 23.9961 193.977 24.2168C188.159 25.1625 182.4 26.4092 176.741 28.0485C174.994 28.55 174.569 27.3378 173.857 26.4321C168.881 20.1186 163.465 14.2492 157.021 9.43739C156.975 9.403 156.935 9.36861 156.89 9.33422C156.85 9.29983 156.811 9.26544 156.765 9.22532C156.743 9.20812 156.72 9.19093 156.697 9.168C156.635 9.11068 156.573 9.05336 156.51 8.99605C156.425 8.92153 156.34 8.84129 156.255 8.75818C156.17 8.67793 156.085 8.60342 155.994 8.52604C155.903 8.45153 155.813 8.38275 155.716 8.3197C155.643 8.27384 155.569 8.22799 155.495 8.1936C155.421 8.15347 155.348 8.12481 155.268 8.09042C155.03 8.01018 154.766 7.98152 154.471 8.02738C154.386 8.04457 154.296 8.0675 154.199 8.09616C154.211 8.11335 154.222 8.13628 154.233 8.15347C154.449 8.36268 154.67 8.5633 154.894 8.76391C155.285 9.12215 155.685 9.47465 156.082 9.82716C156.122 9.86155 156.156 9.89021 156.19 9.9246C156.57 10.2542 156.958 10.5838 157.344 10.9105C157.834 11.3317 158.322 11.7473 158.818 12.1743C159.096 12.4122 159.377 12.6529 159.655 12.8908C159.683 12.9137 159.711 12.9424 159.74 12.9653C160.001 13.1917 160.259 13.421 160.519 13.6531C160.888 13.9827 161.259 14.318 161.622 14.6619C161.736 14.7708 161.844 14.8769 161.957 14.9858C162.218 15.2294 162.476 15.4816 162.731 15.7424L163.071 16.0891C163.514 16.5391 163.947 17.0119 164.367 17.4963C164.566 17.7227 164.758 17.9577 164.954 18.1956C160.205 20.5513 155.231 22.0043 150.34 23.5691C145.432 25.1396 140.346 26.1484 135.358 27.4868C134.136 27.8164 133.651 27.7132 133.657 26.2802C133.668 21.8897 134.578 17.6453 135.5 13.3923C135.744 12.2832 136.677 11.968 137.553 11.6384L137.556 11.6413ZM124.91 11.1168C124.966 11.1168 125.017 11.2142 125.074 11.2658C125.046 11.3174 125.017 11.369 124.983 11.4206C124.904 11.369 124.819 11.3117 124.734 11.2601C124.791 11.2085 124.853 11.1168 124.91 11.1168ZM133.852 13.5872C132.338 18.442 130.833 23.1851 130.303 28.1603C130.235 28.7965 129.806 28.8882 129.307 28.8997C125.372 28.9914 121.555 30.5103 117.356 29.9142C119.934 21.5458 124.416 15.238 133.852 13.5872ZM119.108 32.4534C121.777 31.969 124.479 31.6624 127.152 31.2239C128.984 30.923 130.098 31.3787 129.849 33.531C129.815 33.8204 129.838 34.107 129.832 34.3965C129.747 37.3684 130.634 40.9765 129.279 43.1288C128.08 45.0289 124.36 45.2582 121.782 46.31C118.317 47.7171 114.887 49.2074 111.149 50.7836C112.133 46.2526 113.129 42.2949 113.823 38.2826C114.512 34.2589 115.315 33.1412 119.108 32.4534ZM110.463 27.5527C110.999 25.3087 112.414 24.085 115.037 23.7325C113.636 25.2342 112.715 26.6299 111.977 28.1545C111.785 28.5472 111.529 29.0888 110.925 28.7908C110.429 28.5472 110.35 28.017 110.463 27.5556V27.5527ZM110.424 68.406C110.497 67.9389 110.435 67.4488 110.429 66.9702C110.367 58.5846 110.344 58.533 117.807 54.9592C121.657 53.1136 125.613 51.4743 129.577 49.7204C130.249 55.0194 130.351 60.1322 131.425 65.136C131.888 67.2826 131.567 68.9047 128.757 69.24C123.775 69.8332 118.842 70.799 113.883 71.5843C111.476 71.9654 109.976 71.2776 110.424 68.4089V68.406ZM87.7036 61.1754C90.4624 50.9269 95.0926 41.587 101.311 33.0581C101.892 32.2614 102.516 30.4845 103.097 30.8485C105.025 32.0493 107.262 32.3187 109.173 33.3991C109.332 33.4908 109.196 34.1213 109.196 34.4968C109.224 36.9729 107.205 38.5663 106.584 40.8848C105.561 44.7165 105.362 48.6887 104.228 52.486C103.865 53.704 103.5 54.5007 102.351 55.0423C97.8571 57.1545 93.6125 59.7338 89.3651 62.3074C88.8008 62.6484 88.1884 63.1901 87.5448 62.8376C86.5666 62.3016 87.5618 61.7055 87.7036 61.1754ZM107.231 105.577C106.644 105.559 105.688 105.906 105.598 105.035C105.496 104.061 106.497 103.679 107.242 103.401C108.277 103.026 108.073 104.095 108.357 104.579C108.657 105.7 107.821 105.594 107.231 105.577ZM102.34 71.5613C101.05 71.1286 99.6434 71.014 99.5527 69.3116C99.4393 67.0447 101.027 65.8897 102.762 64.7692C102.215 66.9902 102.609 69.2085 102.343 71.5613H102.34ZM87.213 104.273C85.2793 95.5059 84.4485 86.6531 84.8341 77.6743C84.8852 76.4219 85.4551 76.3187 86.4503 76.4104C91.7298 76.912 96.9725 76.4448 102.201 75.6882C103.111 75.5564 103.117 75.608 103.02 77.7087C104.35 83.1854 103.749 89.284 105.547 94.9585C106.275 97.2541 105.989 97.5951 103.8 98.495C99.0451 100.458 94.5397 103.072 90.0116 105.571C88.2536 106.54 87.627 106.147 87.213 104.273ZM102.612 134.155C101.657 134.855 101.172 134.6 100.576 133.745C96.4054 127.767 93.0228 121.373 90.434 114.538C90.0087 113.401 90.0598 112.687 91.4179 112.569C97.1284 112.068 102.663 110.537 108.283 109.529C109.233 109.362 109.922 109.125 110.285 110.234C111.872 115.034 114.022 119.594 116.188 124.148C116.313 124.408 116.449 124.661 116.562 124.887C116.817 125.873 116.004 126.036 115.476 126.317C111.033 128.679 106.675 131.178 102.609 134.155H102.612ZM137.289 155.965C136.458 156.403 135.576 156.91 134.984 157.621C132.338 160.797 129.778 159.994 126.764 158.025C121.833 154.81 117.047 151.428 112.377 147.298C117.657 146.301 122.914 146.301 127.98 144.965C129.021 144.693 129.716 145.132 130.422 145.928C132.701 148.485 135.029 151.012 137.436 153.449C138.449 154.48 138.809 155.157 137.289 155.965ZM156.612 138.807C158.963 138.362 159.212 141.397 160.236 142.905C161.112 144.192 159.337 144.226 158.654 144.567C154.934 146.424 151.151 148.158 147.426 149.998C146.413 150.494 145.622 150.835 144.684 149.815C142.756 147.725 140.606 145.845 138.664 143.154C144.848 141.612 150.678 139.927 156.612 138.81V138.807ZM145.137 163.68C144.346 163.127 143.618 162.525 143.493 161.47C143.425 160.888 143.464 160.287 143.947 159.888C144.562 159.375 144.947 160.009 145.376 160.292C147.474 161.717 149.558 163.155 152.212 164.978C149.322 165.007 147.091 165.058 145.135 163.68H145.137ZM166.998 163.846C165.907 164.035 164.804 164.006 163.687 163.442C159.085 161.129 154.823 158.289 150.746 155.137C149.535 154.202 149.637 153.678 150.871 152.881C154.228 150.712 157.69 148.748 161.228 146.909C162.303 146.344 162.89 146.562 163.601 147.49C165.513 149.989 167.469 152.471 169.527 154.853C171.58 157.231 173.789 159.47 176.137 162.003C173.055 162.631 170.038 163.307 166.995 163.843L166.998 163.846ZM176.605 167.792C179.505 167.047 182.406 164.648 185.366 167.792C182.42 169.351 179.514 169.073 176.605 167.792ZM199.313 164.087C196.781 164.872 194.343 165.981 191.8 166.815C189.114 167.698 187.164 166.643 185.082 165.262C191.003 163.138 196.847 161.037 203.291 158.722C202.438 161.562 201.8 163.31 199.316 164.084L199.313 164.087ZM203.425 162.181C204.573 156.888 208.761 156.409 213.147 154.945C210.559 159.008 207.267 160.785 203.425 162.181ZM215.217 149.623C212.793 150.362 210.468 151.417 208.117 152.382C206.946 152.861 206.711 152.827 207.014 151.368C208.361 144.854 209.033 138.256 208.835 131.585C208.806 130.719 208.727 129.968 209.977 129.728C214.471 128.856 218.943 127.842 221.622 127.269C219.422 127.125 215.523 127.782 211.661 128.544C209.66 128.942 208.931 128.653 208.755 126.3C208.511 123.073 209.285 121.457 212.56 120.362C217.993 118.545 223.216 116.04 228.458 113.684C230.233 112.882 230.449 113.464 230.511 115.097C230.608 117.55 229.714 119.794 229.21 122.087C227.457 130.011 224.823 137.629 220.78 144.71C219.445 147.06 217.868 148.814 215.217 149.628V149.623ZM244.41 120.86C241.697 127.406 237.481 133.009 233.46 138.769C233.25 139.07 233.035 139.363 232.805 139.641C232.675 139.807 232.539 139.976 232.397 140.136C231.923 140.69 231.424 141.185 230.905 141.644C230.837 141.701 230.775 141.759 230.707 141.81C230.565 141.93 230.423 142.054 230.276 142.163C230.213 142.208 230.157 142.254 230.094 142.3C229.987 142.392 229.868 142.472 229.754 142.555C229.635 142.641 229.522 142.721 229.403 142.799C229.221 142.925 229.034 143.048 228.838 143.163C228.629 143.295 228.419 143.418 228.2 143.538C228.081 143.607 227.968 143.67 227.849 143.727C227.735 143.79 227.616 143.848 227.497 143.905C227.146 144.083 226.78 144.252 226.406 144.407C226.19 144.498 225.975 144.579 225.756 144.667C225.388 144.811 225.005 144.945 224.614 145.072C224.387 145.146 224.151 145.221 223.913 145.292C223.834 145.315 223.754 145.344 223.669 145.367C223.658 145.39 223.652 145.418 223.641 145.441C223.613 145.458 223.59 145.481 223.562 145.499C223.545 145.596 223.528 145.688 223.511 145.788C223.437 145.765 223.357 145.736 223.284 145.708C223.375 145.639 223.471 145.57 223.562 145.499C223.567 145.464 223.579 145.424 223.584 145.39C223.613 145.384 223.641 145.372 223.669 145.367C223.817 144.957 223.964 144.547 224.123 144.137C224.293 143.693 224.463 143.249 224.636 142.81C224.806 142.366 224.982 141.928 225.166 141.489C225.297 141.154 225.433 140.824 225.569 140.498C226.15 139.073 226.734 137.646 227.282 136.204C227.378 135.967 227.469 135.726 227.554 135.482C227.741 134.998 227.917 134.514 228.084 134.029C228.129 133.903 228.175 133.768 228.22 133.637C228.3 133.404 228.379 133.169 228.453 132.937C228.651 132.333 228.833 131.725 229.011 131.109C230.395 126.202 231.589 121.293 232.167 116.226C232.485 113.403 233.038 111.177 236.304 109.884C241.076 107.998 245.496 105.187 250.348 102.619C249.562 109.354 246.82 115.063 244.416 120.866L244.41 120.86ZM146.807 4.13549H146.841C146.853 4.1183 146.858 4.10683 146.864 4.08964L146.807 4.13549Z" fill="#02B3E2"/>
<path d="M251.346 64.5915C250.759 62.2759 250.172 59.9631 249.517 57.3781C251.028 59.6994 251.28 62.1698 252.077 64.4539L251.346 64.5915Z" fill="#02B3E2"/>
<path d="M145.71 3.50499C145.812 3.55645 145.908 3.60792 146.01 3.65367C145.886 3.63651 145.767 3.60792 145.665 3.54502L145.699 3.49927C145.699 3.49927 145.704 3.50499 145.71 3.50499Z" fill="#02B3E2"/>
<path d="M146.773 4.04379C146.518 3.91769 146.26 3.78872 146.011 3.65689C146.306 3.70275 146.626 3.69701 146.773 4.04379Z" fill="#02B3E2"/>
<path d="M146.863 4.08889L146.807 4.13399C146.796 4.10017 146.785 4.07198 146.773 4.04379C146.801 4.0607 146.835 4.07198 146.863 4.08889Z" fill="#02B3E2"/>
<path d="M153.686 7.04349C153.658 6.90052 153.658 6.77186 153.692 6.66321C153.663 6.77758 153.658 6.90052 153.686 7.04349Z" fill="white"/>
<path d="M154.229 8.15483H154.224L154.212 8.14367C154.212 8.14367 154.201 8.13809 154.196 8.13251L154.174 8.10461C154.174 8.10461 154.19 8.09903 154.196 8.09903C154.207 8.11577 154.218 8.13809 154.229 8.15483Z" fill="white"/>
<path d="M154.551 5.94052C154.709 5.86618 154.885 5.79756 155.091 5.72607C154.888 5.80041 154.712 5.86904 154.551 5.94052Z" fill="white"/>
<path d="M223.579 145.392C223.607 145.387 223.635 145.375 223.662 145.37C223.651 145.392 223.646 145.42 223.635 145.443L223.579 145.392Z" fill="white"/>
<path d="M153.337 7.64908C153.615 7.78091 153.902 7.93853 154.18 8.12768C153.902 7.95 153.621 7.78664 153.337 7.64908Z" fill="white"/>
<path d="M145.71 3.505C145.812 3.55647 145.908 3.60794 146.01 3.65369C145.886 3.63653 145.767 3.60794 145.665 3.54503C145.682 3.52788 145.693 3.51644 145.71 3.505Z" fill="white"/>
<path d="M146.863 4.08889C146.857 4.1058 146.852 4.11708 146.84 4.13399H146.807C146.796 4.10017 146.785 4.07198 146.773 4.04379C146.801 4.0607 146.835 4.07198 146.863 4.08889Z" fill="white"/>
<path d="M124.056 11.8448C123.756 11.9709 123.447 12.0998 123.146 12.2317C122.97 12.3062 122.794 12.3864 122.622 12.4753C122.451 12.5555 122.281 12.6415 122.114 12.7418C122.001 12.7934 121.887 12.8564 121.785 12.9309C121.655 13.0054 121.53 13.0857 121.405 13.1803L121.286 13.2662C121.218 13.3178 121.156 13.3637 121.093 13.421C120.968 13.5184 120.849 13.6273 120.736 13.7448C120.674 13.8079 120.611 13.8709 120.555 13.9397C120.481 14.02 120.407 14.1117 120.339 14.2063C120.288 14.2693 120.237 14.3381 120.192 14.4126C120.18 14.4241 120.169 14.4413 120.158 14.4585L120.124 14.51L120.073 14.4585H120.158L124.059 11.8448H124.056Z" fill="white"/>
<path d="M120.066 14.4584C120.021 14.5985 119.975 14.7415 119.93 14.8816C119.837 14.8101 119.746 14.7415 119.653 14.67C119.808 14.6157 119.964 14.5614 120.12 14.507L120.066 14.4556V14.4584Z" fill="white"/>
<path d="M223.575 145.395C223.553 145.527 223.527 145.661 223.505 145.793C223.428 145.767 223.352 145.738 223.275 145.713C223.394 145.624 223.516 145.533 223.635 145.444L223.575 145.398V145.395Z" fill="white"/>
<path d="M125.073 11.2684C125.042 11.3198 125.014 11.3713 124.983 11.4228C124.898 11.3684 124.813 11.3141 124.728 11.2569C124.788 11.2054 124.847 11.114 124.904 11.114C124.96 11.114 125.017 11.2112 125.071 11.2655L125.073 11.2684Z" fill="white"/>
<path d="M147.36 65.0901C145.137 66.1763 142.815 67.3628 140.119 66.7466C142.532 66.1992 144.947 65.6433 147.36 65.0901Z" fill="#02B3E2"/>
</g>
<defs>
<clipPath id="clip0_3303_53">
<rect width="330.809" height="312.185" fill="white" transform="translate(0.971436)"/>
</clipPath>
</defs>
</svg>
